<svg width="36" height="36" viewBox="0 0 36 36" fill="none" xmlns="http://www.w3.org/2000/svg">
<g clip-path="url(#clip0_4407_4462)">
<path d="M36 0H0V36H36V0Z" fill="white" fill-opacity="0.01"/>
<path d="M18 34C22.4182 34 26.4182 32.2091 29.3137 29.3137C32.2091 26.4182 34 22.4182 34 18C34 13.5818 32.2091 9.58176 29.3137 6.68629C26.4182 3.79086 22.4182 2 18 2C13.5818 2 9.58176 3.79086 6.68629 6.68629C3.79086 9.58176 2 13.5818 2 18C2 22.4182 3.79086 26.4182 6.68629 29.3137C9.58176 32.2091 13.5818 34 18 34Z" fill="#FF7172"/>
<path fill-rule="evenodd" clip-rule="evenodd" d="M26.6961 12.2821C27.0926 12.6666 27.1024 13.2997 26.7179 13.6961L16.0512 24.6961C15.8629 24.8904 15.6039 25 15.3333 25C15.0628 25 14.8038 24.8904 14.6154 24.6961L9.2821 19.1961C8.89763 18.7997 8.90737 18.1666 9.30385 17.7821C9.70034 17.3976 10.3334 17.4074 10.7179 17.8039L15.3333 20.5635L25.2821 12.3039C25.6666 11.9074 26.2997 11.8976 26.6961 12.2821Z" fill="white"/>
</g>
<defs>
<clipPath id="clip0_4407_4462">
<rect width="36" height="36" fill="white"/>
</clipPath>
</defs>
</svg>
