<svg xmlns="http://www.w3.org/2000/svg" width="48" height="48" viewBox="0 0 48 48" fill="none">
	<path fill-rule="evenodd" clip-rule="evenodd" d="M24 43.0476C34.5197 43.0476 43.0476 34.5197 43.0476 24C43.0476 13.4803 34.5197 4.95238 24 4.95238C13.4803 4.95238 4.95238 13.4803 4.95238 24C4.95238 34.5197 13.4803 43.0476 24 43.0476ZM24 44C35.0457 44 44 35.0457 44 24C44 12.9543 35.0457 4 24 4C12.9543 4 4 12.9543 4 24C4 35.0457 12.9543 44 24 44Z" fill="#B1835A"/>
	<path fill-rule="evenodd" clip-rule="evenodd" d="M11.4149 39.545C14.1596 35.9096 18.7724 34.4762 24 34.4762C29.2276 34.4762 33.8404 35.9096 36.5851 39.545C40.9557 36.0022 43.8026 30.6533 43.9901 24.6343C43.695 24.8404 43.3779 24.9525 43.0476 24.9525C41.4696 24.9525 40.1905 22.3941 40.1905 19.2382C40.1905 17.1888 40.7299 15.3914 41.5402 14.3829C38.1399 8.19437 31.5598 4 24 4C16.4402 4 9.86009 8.19437 6.45977 14.3829C7.27012 15.3914 7.80954 17.1888 7.80954 19.2382C7.80954 22.3941 6.53035 24.9525 4.9524 24.9525C4.62214 24.9525 4.30497 24.8404 4.00988 24.6343C4.19736 30.6533 7.04433 36.0022 11.4149 39.545ZM39.2381 18.762C39.2381 26.3888 32.4158 32.5716 24 32.5716C15.5842 32.5716 8.76192 26.3888 8.76192 18.762C8.76192 11.1351 15.5842 4.95238 24 4.95238C32.4158 4.95238 39.2381 11.1351 39.2381 18.762Z" fill="#B1835A"/>
	<path d="M23.9946 28.7619C22.3332 28.7619 20.8552 28.5129 19.5605 28.015C18.2731 27.5105 17.2626 26.8233 16.529 25.9536C15.7954 25.084 15.4286 24.0981 15.4286 22.996C15.4286 22.1462 15.6371 21.3662 16.0543 20.6558C16.4786 19.9388 17.054 19.3446 17.7805 18.8733C18.5069 18.3953 19.3196 18.0899 20.2186 17.9571V17.8177C19.0391 17.5986 18.0825 17.0708 17.3489 16.2343C16.6153 15.3912 16.2485 14.4119 16.2485 13.2966C16.2485 12.241 16.5829 11.3016 17.2518 10.4784C17.9207 9.6485 18.8377 8.99789 20.0029 8.52653C21.1752 8.04852 22.5058 7.80952 23.9946 7.80952C25.4834 7.80952 26.8104 8.04852 27.9755 8.52653C29.1479 9.00453 30.0685 9.65846 30.7374 10.4883C31.4063 11.3115 31.7443 12.2476 31.7515 13.2966C31.7443 14.4186 31.3703 15.3978 30.6295 16.2343C29.8887 17.0708 28.9393 17.5986 27.7814 17.8177V17.9571C28.666 18.0899 29.4679 18.3953 30.1872 18.8733C30.9136 19.3446 31.489 19.9388 31.9133 20.6558C32.3449 21.3662 32.5642 22.1462 32.5714 22.996C32.5642 24.0981 32.1938 25.084 31.4602 25.9536C30.7266 26.8233 29.7125 27.5105 28.4179 28.015C27.1304 28.5129 25.656 28.7619 23.9946 28.7619ZM23.9946 25.5951C24.7354 25.5951 25.3827 25.4723 25.9365 25.2267C26.4903 24.9744 26.9219 24.6292 27.2311 24.191C27.5476 23.7462 27.7058 23.235 27.7058 22.6574C27.7058 22.0666 27.544 21.5454 27.2204 21.094C26.8967 20.6359 26.458 20.2774 25.9042 20.0185C25.3504 19.7529 24.7138 19.6201 23.9946 19.6201C23.2826 19.6201 22.646 19.7529 22.085 20.0185C21.524 20.2774 21.0817 20.6359 20.7581 21.094C20.4416 21.5454 20.2834 22.0666 20.2834 22.6574C20.2834 23.235 20.438 23.7462 20.7473 24.191C21.0565 24.6292 21.4917 24.9744 22.0527 25.2267C22.6137 25.4723 23.261 25.5951 23.9946 25.5951ZM23.9946 16.4833C24.6131 16.4833 25.1634 16.3671 25.6452 16.1347C26.1271 15.9023 26.5047 15.5804 26.778 15.1687C27.0513 14.7571 27.188 14.2825 27.188 13.7447C27.188 13.2136 27.0513 12.7489 26.778 12.3505C26.5047 11.9456 26.1307 11.6302 25.656 11.4045C25.1813 11.1721 24.6275 11.0559 23.9946 11.0559C23.3689 11.0559 22.8151 11.1721 22.3332 11.4045C21.8513 11.6302 21.4737 11.9456 21.2004 12.3505C20.9343 12.7489 20.8012 13.2136 20.8012 13.7447C20.8012 14.2825 20.9379 14.7571 21.2112 15.1687C21.4845 15.5804 21.8621 15.9023 22.344 16.1347C22.8259 16.3671 23.3761 16.4833 23.9946 16.4833Z" fill="#B1835A"/>
</svg>
