<svg width="110" height="110" viewBox="0 0 110 110" fill="none" xmlns="http://www.w3.org/2000/svg">
<mask id="mask0_101_4075" style="mask-type:alpha" maskUnits="userSpaceOnUse" x="0" y="0" width="110" height="110">
<path d="M0 55C0 24.6243 24.6243 0 55 0V0C85.3757 0 110 24.6243 110 55V55C110 85.3757 85.3757 110 55 110V110C24.6243 110 0 85.3757 0 55V55Z" fill="#482BBF"/>
</mask>
<g mask="url(#mask0_101_4075)">
<g filter="url(#filter0_f_101_4075)">
<path d="M0 55C0 24.6243 24.6243 0 55 0V0C85.3757 0 110 24.6243 110 55V55C110 85.3757 85.3757 110 55 110V110C24.6243 110 0 85.3757 0 55V55Z" fill="#E49700"/>
</g>
</g>
<path d="M0 55C0 24.6243 24.6243 0 55 0V0C85.3757 0 110 24.6243 110 55V55C110 85.3757 85.3757 110 55 110V110C24.6243 110 0 85.3757 0 55V55Z" fill="#D9B38C" fill-opacity="0.8"/>
<g filter="url(#filter1_i_101_4075)">
<path fill-rule="evenodd" clip-rule="evenodd" d="M32.6125 27.6833C27.4591 31.2674 18.7642 40.3112 17.2182 53.6333C15.1997 71.0264 27.3104 90.8669 48.3725 94.1008C65.2221 96.6879 77.9764 86.8464 82.2473 81.6022C91.7252 69.0162 90.6721 58.6153 90.6721 58.6153C90.6721 58.6153 89.7068 63.9468 86.0209 67.0934C81.495 70.9571 78.2981 71.0265 77.5961 71.0265C75.6946 69.4824 70.8036 65.5376 66.0997 63.1602C60.2199 60.1885 51.5318 55.2066 51.7951 50.3121C52.0606 45.3749 56.7973 43.2325 65.1344 43.8443C65.3976 43.8636 63.3792 47.515 61.3607 49.1758C64.9003 49.6419 72.9975 50.9239 76.0164 53.3712C79.0353 55.8185 78.3274 57.887 77.5961 58.6153C78.5029 58.6736 80.7905 58.493 82.6861 57.3043C84.5817 56.1156 85.5236 54.7114 85.7576 54.1578C84.9971 54.4783 83.3179 54.857 82.6861 53.8082C82.0542 52.7594 82.1888 51.7397 82.335 51.3609C79.7023 51.0404 74.6825 49.8052 75.6654 47.4278C76.894 44.4561 80.4044 44.3687 81.5452 44.7183C82.6861 45.0679 84.88 45.942 85.1433 50.6617C85.1534 50.8422 85.3886 50.6677 85.7941 50.367C86.7338 49.6699 88.5877 48.2947 90.6721 49.0885C92.164 49.6566 91.93 52.8759 90.6721 53.8082C92.164 53.5169 96.0254 51.5357 96.9907 46.816C97.0621 46.4669 96.7192 46.4245 96.0406 46.3405C94.8875 46.1978 92.7648 45.9351 90.0578 43.8443C86.6177 41.1872 85.6406 40.4065 85.5821 40.3482L85.7576 37.1143C85.4005 36.8868 85.0157 36.6427 84.6107 36.3857C81.3335 34.3067 76.7308 31.3867 74.7 29.5977C72.6166 27.7621 68.2059 22.518 66.9773 12.2045C66.7415 10.2253 65.9242 23.1299 68.6807 28.5488C69.2216 29.6121 57.6231 19.4589 56.1312 14.914C56.0746 14.7415 57.0606 21.3818 61.624 27.4126C62.0775 28.0119 61.3273 27.914 59.7446 27.7076C56.48 27.2818 49.673 26.394 42.5804 30.2095C30.5575 36.6773 29.5921 48.3892 30.5575 53.8082C31.2581 57.7413 32.6637 63.2477 39.9477 70.4147C41.4984 71.9405 37.0516 75.9211 29.5044 71.0265C25.1165 68.1808 20.2897 63.5972 21.1673 51.3609C22.0954 38.4211 29.9991 29.7534 32.6125 27.6833ZM76.7185 36.0654L82.6861 38.8623L80.4921 40.1733C80.0533 39.5615 79.0353 38.198 78.4737 37.6386C77.912 37.0792 77.0695 36.3567 76.7185 36.0654Z" fill="url(#paint0_linear_101_4075)"/>
</g>
<mask id="mask1_101_4075" style="mask-type:alpha" maskUnits="userSpaceOnUse" x="17" y="12" width="80" height="83">
<path fill-rule="evenodd" clip-rule="evenodd" d="M32.6125 27.6833C27.4591 31.2674 18.7642 40.3112 17.2182 53.6333C15.1997 71.0264 27.3104 90.8669 48.3725 94.1008C65.2221 96.6879 77.9764 86.8464 82.2473 81.6022C91.7252 69.0162 90.6721 58.6153 90.6721 58.6153C90.6721 58.6153 89.7068 63.9468 86.0209 67.0934C81.495 70.9571 78.2981 71.0265 77.5961 71.0265C75.6946 69.4824 70.8036 65.5376 66.0997 63.1602C60.2199 60.1885 51.5318 55.2066 51.7951 50.3121C52.0606 45.3749 56.7973 43.2325 65.1344 43.8443C65.3976 43.8636 63.3792 47.515 61.3607 49.1758C64.9003 49.6419 72.9975 50.9239 76.0164 53.3712C79.0353 55.8185 78.3274 57.887 77.5961 58.6153C78.5029 58.6736 80.7905 58.493 82.6861 57.3043C84.5817 56.1156 85.5236 54.7114 85.7576 54.1578C84.9971 54.4783 83.3179 54.857 82.6861 53.8082C82.0542 52.7594 82.1888 51.7397 82.335 51.3609C79.7023 51.0404 74.6825 49.8052 75.6654 47.4278C76.894 44.4561 80.4044 44.3687 81.5452 44.7183C82.6861 45.0679 84.88 45.942 85.1433 50.6617C85.1534 50.8422 85.3886 50.6677 85.7941 50.367C86.7338 49.6699 88.5877 48.2947 90.6721 49.0885C92.164 49.6566 91.93 52.8759 90.6721 53.8082C92.164 53.5169 96.0254 51.5357 96.9907 46.816C97.0621 46.4669 96.7192 46.4245 96.0406 46.3405C94.8875 46.1978 92.7648 45.9351 90.0578 43.8443C86.6177 41.1872 85.6406 40.4065 85.5821 40.3482L85.7576 37.1143C85.4005 36.8868 85.0157 36.6427 84.6107 36.3857C81.3335 34.3067 76.7308 31.3867 74.7 29.5977C72.6166 27.7621 68.2059 22.518 66.9773 12.2045C66.7415 10.2253 65.9242 23.1299 68.6807 28.5488C69.2216 29.6121 57.6231 19.4589 56.1312 14.914C56.0746 14.7415 57.0606 21.3818 61.624 27.4126C62.0775 28.0119 61.3273 27.914 59.7446 27.7076C56.48 27.2818 49.673 26.394 42.5804 30.2095C30.5575 36.6773 29.5921 48.3892 30.5575 53.8082C31.2581 57.7413 32.6637 63.2477 39.9477 70.4147C41.4984 71.9405 37.0516 75.9211 29.5044 71.0265C25.1165 68.1808 20.2897 63.5972 21.1673 51.3609C22.0954 38.4211 29.9991 29.7534 32.6125 27.6833ZM76.7185 36.0654L82.6861 38.8623L80.4921 40.1733C80.0533 39.5615 79.0353 38.198 78.4737 37.6386C77.912 37.0792 77.0695 36.3567 76.7185 36.0654Z" fill="url(#paint1_linear_101_4075)"/>
</mask>
<g mask="url(#mask1_101_4075)">
<g filter="url(#filter2_i_101_4075)">
<path d="M54.2312 42.5323C58.2396 41.8994 62.9782 43.0841 65.3019 43.6981C63.7925 45.2075 52.3141 45.6021 52.227 49.8121C52.1554 53.2715 56.282 57.6748 62.2481 60.6003C72.4434 65.5997 76.4518 69.5466 77.846 70.7745C83.4874 75.7429 82.6841 81.0526 82.6841 81.0526C82.6841 81.0526 80.406 84.5427 75.5262 87.7895C70.6464 91.0362 66.434 92.3773 66.434 92.3773C66.434 92.3773 75.7547 84.8079 64.2523 75.5108C59.01 71.2736 43.7745 60.688 43.9487 53.0573C44.107 46.1302 49.7871 43.234 54.2312 42.5323Z" fill="url(#paint2_linear_101_4075)"/>
</g>
<g filter="url(#filter3_i_101_4075)">
<path d="M81.3322 75.1708C80.019 72.7546 78.1296 71.4823 77.3774 70.8678C78.3703 70.8678 82.8667 70.1669 86.8382 66.3043C89.2597 63.9492 90.3231 60.247 90.6841 58.3157C90.7744 60.247 91.0805 63.4951 89.6363 67.9722C88.1264 72.6533 85.5725 77.8044 82.6841 81.0525C82.6841 79.2968 82.4044 77.1432 81.3322 75.1708Z" fill="url(#paint3_linear_101_4075)"/>
</g>
<g filter="url(#filter4_i_101_4075)">
<path d="M48.7295 77.99C46.5499 75.9447 41.7012 72.0896 39.6415 70.1133C39.3767 76.0422 21.9977 72.6714 21.2774 54.8845C20.6595 39.6262 28.9569 31.0815 33.3705 27.158C27.5446 30.7328 17.5701 41.8931 17.0404 54.8845C16.5645 66.5586 20.3064 75.8974 27.3681 82.9598C34.8656 90.4582 43.8915 93.5241 48.1579 94.1053C49.7468 93.6694 52.3 90.7198 53.0548 87.4066C53.9882 83.3086 50.4949 79.6466 48.7295 77.99Z" fill="url(#paint4_linear_101_4075)"/>
</g>
</g>
<defs>
<filter id="filter0_f_101_4075" x="-30" y="-30" width="170" height="170" filterUnits="userSpaceOnUse" color-interpolation-filters="sRGB">
<feFlood flood-opacity="0" result="BackgroundImageFix"/>
<feBlend mode="normal" in="SourceGraphic" in2="BackgroundImageFix" result="shape"/>
<feGaussianBlur stdDeviation="15" result="effect1_foregroundBlur_101_4075"/>
</filter>
<filter id="filter1_i_101_4075" x="17" y="12" width="80" height="84.5264" filterUnits="userSpaceOnUse" color-interpolation-filters="sRGB">
<feFlood flood-opacity="0" result="BackgroundImageFix"/>
<feBlend mode="normal" in="SourceGraphic" in2="BackgroundImageFix" result="shape"/>
<feColorMatrix in="SourceAlpha" type="matrix" values="0 0 0 0 0 0 0 0 0 0 0 0 0 0 0 0 0 0 127 0" result="hardAlpha"/>
<feOffset dy="2"/>
<feGaussianBlur stdDeviation="1"/>
<feComposite in2="hardAlpha" operator="arithmetic" k2="-1" k3="1"/>
<feColorMatrix type="matrix" values="0 0 0 0 0.85098 0 0 0 0 0.701961 0 0 0 0 0.54902 0 0 0 0.2 0"/>
<feBlend mode="normal" in2="shape" result="effect1_innerShadow_101_4075"/>
</filter>
<filter id="filter2_i_101_4075" x="43.9473" y="42.3516" width="38.7764" height="52.0259" filterUnits="userSpaceOnUse" color-interpolation-filters="sRGB">
<feFlood flood-opacity="0" result="BackgroundImageFix"/>
<feBlend mode="normal" in="SourceGraphic" in2="BackgroundImageFix" result="shape"/>
<feColorMatrix in="SourceAlpha" type="matrix" values="0 0 0 0 0 0 0 0 0 0 0 0 0 0 0 0 0 0 127 0" result="hardAlpha"/>
<feOffset dy="2"/>
<feGaussianBlur stdDeviation="1"/>
<feComposite in2="hardAlpha" operator="arithmetic" k2="-1" k3="1"/>
<feColorMatrix type="matrix" values="0 0 0 0 0.85098 0 0 0 0 0.701961 0 0 0 0 0.54902 0 0 0 0.2 0"/>
<feBlend mode="normal" in2="shape" result="effect1_innerShadow_101_4075"/>
</filter>
<filter id="filter3_i_101_4075" x="77.3774" y="58.3157" width="13.3965" height="24.7368" filterUnits="userSpaceOnUse" color-interpolation-filters="sRGB">
<feFlood flood-opacity="0" result="BackgroundImageFix"/>
<feBlend mode="normal" in="SourceGraphic" in2="BackgroundImageFix" result="shape"/>
<feColorMatrix in="SourceAlpha" type="matrix" values="0 0 0 0 0 0 0 0 0 0 0 0 0 0 0 0 0 0 127 0" result="hardAlpha"/>
<feOffset dy="2"/>
<feGaussianBlur stdDeviation="1"/>
<feComposite in2="hardAlpha" operator="arithmetic" k2="-1" k3="1"/>
<feColorMatrix type="matrix" values="0 0 0 0 0.85098 0 0 0 0 0.701961 0 0 0 0 0.54902 0 0 0 0.2 0"/>
<feBlend mode="normal" in2="shape" result="effect1_innerShadow_101_4075"/>
</filter>
<filter id="filter4_i_101_4075" x="17" y="27.158" width="36.2104" height="68.9473" filterUnits="userSpaceOnUse" color-interpolation-filters="sRGB">
<feFlood flood-opacity="0" result="BackgroundImageFix"/>
<feBlend mode="normal" in="SourceGraphic" in2="BackgroundImageFix" result="shape"/>
<feColorMatrix in="SourceAlpha" type="matrix" values="0 0 0 0 0 0 0 0 0 0 0 0 0 0 0 0 0 0 127 0" result="hardAlpha"/>
<feOffset dy="2"/>
<feGaussianBlur stdDeviation="1"/>
<feComposite in2="hardAlpha" operator="arithmetic" k2="-1" k3="1"/>
<feColorMatrix type="matrix" values="0 0 0 0 0.85098 0 0 0 0 0.701961 0 0 0 0 0.54902 0 0 0 0.2 0"/>
<feBlend mode="normal" in2="shape" result="effect1_innerShadow_101_4075"/>
</filter>
<linearGradient id="paint0_linear_101_4075" x1="57" y1="12" x2="57" y2="94.0073" gradientUnits="userSpaceOnUse">
<stop stop-color="#FF9E8D"/>
<stop offset="0.0001" stop-color="white"/>
<stop offset="1" stop-color="white"/>
</linearGradient>
<linearGradient id="paint1_linear_101_4075" x1="57" y1="12" x2="57" y2="94.5263" gradientUnits="userSpaceOnUse">
<stop stop-color="#FF736D"/>
<stop offset="1" stop-color="#F73E46"/>
</linearGradient>
<linearGradient id="paint2_linear_101_4075" x1="63.3354" y1="42.3516" x2="63.3354" y2="92.0627" gradientUnits="userSpaceOnUse">
<stop stop-color="#FF9E8D"/>
<stop offset="0.0001" stop-color="white"/>
<stop offset="1" stop-color="white"/>
</linearGradient>
<linearGradient id="paint3_linear_101_4075" x1="84.0757" y1="58.3157" x2="84.0757" y2="80.9095" gradientUnits="userSpaceOnUse">
<stop stop-color="#FF9E8D"/>
<stop offset="0.0001" stop-color="white"/>
<stop offset="1" stop-color="white"/>
</linearGradient>
<linearGradient id="paint4_linear_101_4075" x1="35.1053" y1="27.158" x2="35.1053" y2="93.6843" gradientUnits="userSpaceOnUse">
<stop stop-color="#FF9E8D"/>
<stop offset="0.0001" stop-color="white"/>
<stop offset="1" stop-color="white"/>
</linearGradient>
</defs>
</svg>
