<svg data-v-4641417b="" xmlns="http://www.w3.org/2000/svg" width="210" height="80" viewBox="0 0 210 80" fill="none">
          <path d="M0 10C0 4.47715 4.47715 0 10 0H200C205.523 0 210 4.47715 210 10V70C210 75.5229 205.523 80 200 80H10C4.47715 80 0 75.5229 0 70V10Z" fill="#2b3270" data-v-4641417b="">
          </path>
          <path d="M93.3413 15H78.4997L83.5947 22.1899L76.5052 51.1817C76.2837 51.8775 75.4873 54.2432 73.1835 56.2842C70.8797 58.3252 67.2025 57.2893 65.6518 56.5161C64.5434 58.1397 61 63.2422 61 63.2422C61 63.2422 66.8737 66.6818 74.734 63.938C79.3849 62.3145 83.1507 56.5161 84.0376 52.5733L93.3413 15Z" fill="url(#paint0_linear_84_6498)" data-v-4641417b="">
          </path>
          <path fill-rule="evenodd" clip-rule="evenodd" d="M94.005 15.2319L139.194 15C142.295 15 148.719 18.0151 148.719 24.9732C148.719 30.3076 145.84 33.5547 144.289 34.4824L144.299 34.494C144.969 35.2733 146.504 37.0591 146.504 42.1362C146.504 48.3985 139.637 54.1968 132.77 54.1968H90.4607L98.6568 22.4219L94.005 15.2319ZM106.188 22.1899L99.9859 46.543L100.038 46.5475C102.71 46.7808 107.768 47.2223 112.169 44.6875C116.6 42.1362 121.03 35.874 120.808 29.6118C120.587 23.3496 115.713 22.1899 112.834 22.1899H106.188ZM135.733 38.1934H125.903C125.017 41.9042 121.916 45.3832 120.365 46.7748C123.335 46.7748 128.257 46.6593 131.155 46.5913L131.156 46.5913C132.364 46.563 133.22 46.5429 133.435 46.5429C135.207 46.543 139.43 45.1514 139.194 41.4404C139.017 38.6572 136.979 38.1935 135.733 38.1934ZM127.675 30.7715H136.619C138.087 30.7715 141.188 29.6118 141.188 26.3648C141.188 23.1177 139.263 22.1899 137.2 22.19C136.848 22.1901 135.237 22.19 133.191 22.19C130.997 22.19 128.303 22.1899 126.125 22.1899C127.011 23.8135 127.897 27.5244 127.675 30.7715Z" fill="url(#paint1_linear_84_6498)" data-v-4641417b="">
          </path>
          <defs data-v-4641417b="">
            <linearGradient id="paint0_linear_84_6498" x1="144.5" y1="30.5" x2="83" y2="36.5" gradientUnits="userSpaceOnUse" data-v-4641417b="">
              <stop stop-color="#FF2E3B" data-v-4641417b="">
              </stop>
              <stop offset="1" stop-color="#FFD200" data-v-4641417b="">
              </stop>
            </linearGradient>
            <linearGradient id="paint1_linear_84_6498" x1="144.5" y1="30.5" x2="83" y2="36.5" gradientUnits="userSpaceOnUse" data-v-4641417b="">
              <stop stop-color="#FF2E3B" data-v-4641417b="">
              </stop>
              <stop offset="1" stop-color="#FFD200" data-v-4641417b="">
              </stop>
            </linearGradient>
          </defs>
        </svg>