<svg data-v-4641417b="" xmlns="http://www.w3.org/2000/svg" width="210" height="80" viewBox="0 0 210 80" fill="none">
          <path d="M0 10C0 4.47715 4.47715 0 10 0H200C205.523 0 210 4.47715 210 10V70C210 75.5229 205.523 80 200 80H10C4.47715 80 0 75.5229 0 70V10Z" fill="#2b3270" data-v-4641417b="">
          </path>
          <g filter="url(#filter0_d_84_6495)" data-v-4641417b="">
            <path d="M72.0619 51.9586V27.022C72.0619 26.3785 71.4242 26.2176 70.8505 26.2176C70.1774 26.2176 68.8313 26.2176 68.8313 25.011C68.8314 23.4022 69.639 23.4022 70.0428 23.4022H84.5805C84.9843 23.4022 85.3882 23.8044 85.3881 25.011C85.3881 25.8154 84.5805 26.2176 84.1767 26.2176C82.9652 26.2176 82.9652 27.022 82.9652 27.022V49.5454C82.9652 51.9586 81.3499 53.5674 78.9269 55.1762C75.8621 57.2112 72.1965 57.1872 70.4466 56.785V53.5674C70.4466 53.5674 72.0619 52.763 72.0619 51.9586Z" fill="url(#paint0_linear_84_6495)" data-v-4641417b="">
            </path>
            <path d="M61.1587 53.1652C62.774 55.5784 66.8122 56.785 68.4275 56.785V53.9696C66.9468 54.1037 66.5501 53.2522 66.8122 53.1652C70.4466 51.9586 70.8504 49.1432 70.4466 47.5344C70.1528 46.3638 68.0238 42.3057 63.5817 43.9145C59.4941 45.3949 59.2318 50.2864 61.1587 53.1652Z" fill="url(#paint1_linear_84_6495)" data-v-4641417b="">
            </path>
            <path d="M87.8111 24.6088C87.8111 23.7203 88.5343 23 89.4264 23H103.156C104.048 23 104.772 23.7203 104.772 24.6088V24.8211C104.772 25.4305 104.426 25.9876 103.879 26.2601L102.349 27.022V52.763L103.667 53.2007C104.327 53.4197 104.772 54.0345 104.772 54.727V55.1762C104.772 56.0647 104.048 56.785 103.156 56.785H89.4264C88.5343 56.785 87.8111 56.0647 87.8111 55.1762V54.727C87.8111 54.0345 88.256 53.4197 88.9156 53.2007L90.234 52.763V27.022L88.704 26.2601C88.1567 25.9876 87.8111 25.4305 87.8111 24.8211V24.6088Z" fill="url(#paint2_linear_84_6495)" data-v-4641417b="">
            </path>
            <path d="M133.039 24.6088C133.039 23.7203 133.763 23 134.655 23H148.385C149.277 23 150 23.7203 150 24.6088V24.8211C150 25.4305 149.654 25.9876 149.107 26.2601L147.577 27.022V52.763L148.896 53.2007C149.555 53.4197 150 54.0345 150 54.727V55.1762C150 56.0647 149.277 56.785 148.385 56.785H134.655C133.763 56.785 133.039 56.0647 133.039 55.1762V54.727C133.039 54.0345 133.484 53.4197 134.144 53.2007L135.462 52.763V27.022L133.932 26.2601C133.385 25.9876 133.039 25.4305 133.039 24.8211V24.6088Z" fill="url(#paint3_linear_84_6495)" data-v-4641417b="">
            </path>
            <path d="M107.195 24.6088C107.195 23.7203 107.918 23 108.81 23H122.54C123.432 23 124.155 23.7203 124.155 24.6088V24.8211C124.155 25.4305 123.81 25.9876 123.262 26.2601L121.732 27.022V56.785H108.81C107.918 56.785 107.195 56.0647 107.195 55.1762V54.727C107.195 54.0345 107.64 53.4197 108.299 53.2007L109.618 52.763V27.022L108.088 26.2601C107.54 25.9876 107.195 25.4305 107.195 24.8211V24.6088Z" fill="url(#paint4_linear_84_6495)" data-v-4641417b="">
            </path>
            <path d="M126.982 49.9476C128.3 48.1094 129.102 46.0997 129.5 44.9261C129.7 44.3369 130.247 43.9145 130.871 43.9145C131.623 43.9145 132.232 44.5213 132.232 45.2697V56.785H122.54V53.5674C122.54 53.5674 124.963 52.763 126.982 49.9476Z" fill="url(#paint5_linear_84_6495)" data-v-4641417b="">
            </path>
            <path d="M102.126 26.5745L101.849 26.7125V27.022V52.763V53.1238L102.191 53.2375L103.51 53.6752C103.966 53.8267 104.272 54.251 104.272 54.727V55.1762C104.272 55.7867 103.774 56.285 103.156 56.285H89.4264C88.8085 56.285 88.3111 55.7867 88.3111 55.1762V54.727C88.3111 54.251 88.617 53.8267 89.0731 53.6752L90.3916 53.2375L90.734 53.1238V52.763V27.022V26.7125L90.4569 26.5745L88.9269 25.8125C88.5487 25.6242 88.3111 25.24 88.3111 24.8211V24.6088C88.3111 23.9983 88.8085 23.5 89.4264 23.5H103.156C103.774 23.5 104.272 23.9983 104.272 24.6088V24.8211C104.272 25.24 104.034 25.6242 103.656 25.8125L102.126 26.5745ZM147.354 26.5745L147.077 26.7125V27.022V52.763V53.1238L147.42 53.2375L148.738 53.6752C149.194 53.8267 149.5 54.251 149.5 54.727V55.1762C149.5 55.7867 149.003 56.285 148.385 56.285H134.655C134.037 56.285 133.539 55.7867 133.539 55.1762V54.727C133.539 54.251 133.845 53.8267 134.301 53.6752L135.62 53.2375L135.962 53.1238V52.763V27.022V26.7125L135.685 26.5745L134.155 25.8125C133.777 25.6242 133.539 25.24 133.539 24.8211V24.6088C133.539 23.9983 134.037 23.5 134.655 23.5H148.385C149.003 23.5 149.5 23.9983 149.5 24.6088V24.8211C149.5 25.24 149.262 25.6242 148.884 25.8125L147.354 26.5745ZM121.509 26.5745L121.232 26.7125V27.022V56.285H108.81C108.192 56.285 107.695 55.7867 107.695 55.1762V54.727C107.695 54.251 108.001 53.8267 108.457 53.6752L109.775 53.2375L110.118 53.1238V52.763V27.022V26.7125L109.84 26.5745L108.31 25.8125C107.932 25.6242 107.695 25.24 107.695 24.8211V24.6088C107.695 23.9983 108.192 23.5 108.81 23.5H122.54C123.158 23.5 123.655 23.9983 123.655 24.6088V24.8211C123.655 25.24 123.418 25.6242 123.039 25.8125L121.509 26.5745ZM72.5619 51.9586V27.022C72.5619 26.7746 72.4993 26.547 72.3723 26.352C72.2472 26.1599 72.0773 26.0264 71.9027 25.9353C71.5665 25.7598 71.1687 25.7176 70.8505 25.7176C70.498 25.7176 70.0823 25.7127 69.7573 25.5961C69.6038 25.5411 69.5035 25.4718 69.4415 25.3949C69.3851 25.3249 69.3313 25.2133 69.3313 25.011C69.3314 24.2762 69.5162 24.0589 69.5972 23.9943C69.6966 23.9152 69.8269 23.9022 70.0428 23.9022H84.5805C84.5809 23.9022 84.5814 23.9022 84.5819 23.9022C84.5934 23.9018 84.64 23.9001 84.7075 24.0122C84.7925 24.1534 84.8882 24.4516 84.8881 25.011C84.8881 25.2265 84.7854 25.3949 84.6222 25.5249C84.4433 25.6675 84.2475 25.7176 84.1767 25.7176C83.4497 25.7176 82.9827 25.9664 82.7172 26.3191C82.593 26.484 82.5306 26.6492 82.4991 26.7746C82.4833 26.8376 82.4749 26.8921 82.4704 26.934C82.4682 26.955 82.4668 26.9732 82.4661 26.9879L82.4654 27.0076L82.4652 27.0155L82.4652 27.0189L82.4652 27.0205L82.4652 27.0213C82.4652 27.0217 82.4652 27.022 82.8911 27.022H82.4652V49.5454C82.4652 51.6831 81.0578 53.1611 78.6504 54.7597C75.9403 56.5592 72.719 56.6707 70.9466 56.3741V53.8635C70.9478 53.8629 70.949 53.8622 70.9502 53.8615C71.1124 53.7673 71.3316 53.631 71.5535 53.4652C71.7725 53.3016 72.0111 53.0968 72.1993 52.8624C72.382 52.6351 72.5619 52.3244 72.5619 51.9586ZM66.6486 54.0364C66.9385 54.2749 67.3659 54.4461 67.9275 54.4783V56.2516C67.1707 56.1618 66.0892 55.8897 64.9894 55.4202C63.6151 54.8336 62.3041 53.9775 61.5742 52.8871C60.683 51.5556 60.2951 49.7462 60.606 48.1087C60.9133 46.4906 61.8958 45.0569 63.7519 44.3847C65.7857 43.6481 67.2423 44.2064 68.2451 45.0625C69.2816 45.9473 69.8371 47.1597 69.9617 47.6561C70.1398 48.3659 70.1396 49.3501 69.6926 50.2849C69.2528 51.2048 68.3576 52.1253 66.6546 52.6907C66.4719 52.7513 66.3372 52.8895 66.2754 53.0601C66.2196 53.2144 66.2333 53.3629 66.262 53.4727C66.3194 53.693 66.4675 53.8874 66.6486 54.0364ZM127.388 50.239C128.747 48.3445 129.568 46.2833 129.974 45.0866C130.11 44.6847 130.477 44.4145 130.871 44.4145C131.348 44.4145 131.732 44.7993 131.732 45.2697V56.285H123.04V53.9056C123.077 53.8893 123.117 53.8713 123.16 53.8517C123.437 53.7236 123.824 53.5241 124.275 53.2336C125.176 52.6524 126.336 51.706 127.388 50.239Z" stroke="url(#paint6_linear_84_6495)" data-v-4641417b="">
            </path>
          </g>
          <defs data-v-4641417b="">
            <filter id="filter0_d_84_6495" x="60" y="23" width="90" height="35" filterUnits="userSpaceOnUse" color-interpolation-filters="sRGB" data-v-4641417b="">
              <feFlood flood-opacity="0" result="BackgroundImageFix" data-v-4641417b="">
              </feFlood>
              <feColorMatrix in="SourceAlpha" type="matrix" values="0 0 0 0 0 0 0 0 0 0 0 0 0 0 0 0 0 0 127 0" result="hardAlpha" data-v-4641417b="">
              </feColorMatrix>
              <feOffset dy="1" data-v-4641417b="">
              </feOffset>
              <feComposite in2="hardAlpha" operator="out" data-v-4641417b="">
              </feComposite>
              <feColorMatrix type="matrix" values="0 0 0 0 0.482353 0 0 0 0 0.239216 0 0 0 0 0 0 0 0 1 0" data-v-4641417b="">
              </feColorMatrix>
              <feBlend mode="normal" in2="BackgroundImageFix" result="effect1_dropShadow_84_6495" data-v-4641417b="">
              </feBlend>
              <feBlend mode="normal" in="SourceGraphic" in2="effect1_dropShadow_84_6495" result="shape" data-v-4641417b="">
              </feBlend>
            </filter>
            <linearGradient id="paint0_linear_84_6495" x1="105" y1="23" x2="105" y2="57" gradientUnits="userSpaceOnUse" data-v-4641417b="">
              <stop stop-color="#FFE03A" data-v-4641417b="">
              </stop>
              <stop offset="0.43817" stop-color="white" data-v-4641417b="">
              </stop>
              <stop offset="0.511377" stop-color="#FBB21D" data-v-4641417b="">
              </stop>
              <stop offset="1" stop-color="#DB9506" data-v-4641417b="">
              </stop>
            </linearGradient>
            <linearGradient id="paint1_linear_84_6495" x1="105" y1="23" x2="105" y2="57" gradientUnits="userSpaceOnUse" data-v-4641417b="">
              <stop stop-color="#FFE03A" data-v-4641417b="">
              </stop>
              <stop offset="0.43817" stop-color="white" data-v-4641417b="">
              </stop>
              <stop offset="0.511377" stop-color="#FBB21D" data-v-4641417b="">
              </stop>
              <stop offset="1" stop-color="#DB9506" data-v-4641417b="">
              </stop>
            </linearGradient>
            <linearGradient id="paint2_linear_84_6495" x1="105" y1="23" x2="105" y2="57" gradientUnits="userSpaceOnUse" data-v-4641417b="">
              <stop stop-color="#FFE03A" data-v-4641417b="">
              </stop>
              <stop offset="0.43817" stop-color="white" data-v-4641417b="">
              </stop>
              <stop offset="0.511377" stop-color="#FBB21D" data-v-4641417b="">
              </stop>
              <stop offset="1" stop-color="#DB9506" data-v-4641417b="">
              </stop>
            </linearGradient>
            <linearGradient id="paint3_linear_84_6495" x1="105" y1="23" x2="105" y2="57" gradientUnits="userSpaceOnUse" data-v-4641417b="">
              <stop stop-color="#FFE03A" data-v-4641417b="">
              </stop>
              <stop offset="0.43817" stop-color="white" data-v-4641417b="">
              </stop>
              <stop offset="0.511377" stop-color="#FBB21D" data-v-4641417b="">
              </stop>
              <stop offset="1" stop-color="#DB9506" data-v-4641417b="">
              </stop>
            </linearGradient>
            <linearGradient id="paint4_linear_84_6495" x1="105" y1="23" x2="105" y2="57" gradientUnits="userSpaceOnUse" data-v-4641417b="">
              <stop stop-color="#FFE03A" data-v-4641417b="">
              </stop>
              <stop offset="0.43817" stop-color="white" data-v-4641417b="">
              </stop>
              <stop offset="0.511377" stop-color="#FBB21D" data-v-4641417b="">
              </stop>
              <stop offset="1" stop-color="#DB9506" data-v-4641417b="">
              </stop>
            </linearGradient>
            <linearGradient id="paint5_linear_84_6495" x1="105" y1="23" x2="105" y2="57" gradientUnits="userSpaceOnUse" data-v-4641417b="">
              <stop stop-color="#FFE03A" data-v-4641417b="">
              </stop>
              <stop offset="0.43817" stop-color="white" data-v-4641417b="">
              </stop>
              <stop offset="0.511377" stop-color="#FBB21D" data-v-4641417b="">
              </stop>
              <stop offset="1" stop-color="#DB9506" data-v-4641417b="">
              </stop>
            </linearGradient>
            <linearGradient id="paint6_linear_84_6495" x1="105" y1="23" x2="105" y2="57" gradientUnits="userSpaceOnUse" data-v-4641417b="">
              <stop stop-color="#FFFF7D" data-v-4641417b="">
              </stop>
              <stop offset="1" stop-color="#FFC500" data-v-4641417b="">
              </stop>
            </linearGradient>
          </defs>
        </svg>