<svg id="__svg__cms__" xmlns="http://www.w3.org/2000/svg" xmlns:link="http://www.w3.org/1999/xlink" style="position: absolute; width: 0px; height: 0px;">
    <symbol viewBox="0 0 26 27" id="cms-icon-arrow-right">
      <g filter="url(#cms-icon-arrow-right_filter0_d_84_7508)">
        <path d="M3 10.5C2.17157 10.5 1.5 11.1716 1.5 12C1.5 12.8284 2.17157 13.5 3 13.5V10.5ZM24.0607 13.0607C24.6464 12.4749 24.6464 11.5251 24.0607 10.9393L14.5147 1.3934C13.9289 0.807611 12.9792 0.807611 12.3934 1.3934C11.8076 1.97919 11.8076 2.92893 12.3934 3.51472L20.8787 12L12.3934 20.4853C11.8076 21.0711 11.8076 22.0208 12.3934 22.6066C12.9792 23.1924 13.9289 23.1924 14.5147 22.6066L24.0607 13.0607ZM3 13.5H23V10.5H3V13.5Z">
        </path>
      </g>
      <defs>
        <filter id="cms-icon-arrow-right_filter0_d_84_7508" x="0.5" y="0.954102" width="25" height="25.0918" filterUnits="userSpaceOnUse" color-interpolation-filters="sRGB">
          <feFlood flood-opacity="0" result="BackgroundImageFix">
          </feFlood>
          <feColorMatrix in="SourceAlpha" type="matrix" values="0 0 0 0 0 0 0 0 0 0 0 0 0 0 0 0 0 0 127 0" result="hardAlpha">
          </feColorMatrix>
          <feOffset dy="2">
          </feOffset>
          <feGaussianBlur stdDeviation="0.5">
          </feGaussianBlur>
          <feComposite in2="hardAlpha" operator="out">
          </feComposite>
          <feColorMatrix type="matrix" values="0 0 0 0 0.968627 0 0 0 0 0.278431 0 0 0 0 0.278431 0 0 0 0.36 0">
          </feColorMatrix>
          <feBlend mode="normal" in2="BackgroundImageFix" result="effect1_dropShadow_84_7508">
          </feBlend>
          <feBlend mode="normal" in="SourceGraphic" in2="effect1_dropShadow_84_7508" result="shape">
          </feBlend>
        </filter>
      </defs>
    </symbol>
    <symbol viewBox="0 0 48 48" id="cms-icon-hot">
      <path d="M24 29L19.03 33.7099C17.7233 34.9718 17 36.6169 17 38.3746C17 42.0254 20.15 45 24 45C27.85 45 31 42.0254 31 38.3746C31 36.6169 30.2767 34.9493 28.97 33.7099L24 29Z">
      </path>
      <path d="M33.4993 12.1825L32.4543 13.4451C29.6519 16.8197 23.9995 14.9143 23.9995 10.5756V3C23.9995 3 5 12.1825 5 28.252C5 34.9552 8.7049 40.8091 14.2385 44C12.9085 42.1865 12.1248 39.9597 12.1248 37.5722C12.1248 34.542 13.3598 31.6954 15.616 29.5375L23.9995 21.5946L32.383 29.5605C34.6392 31.6954 35.8742 34.542 35.8742 37.5952C35.8742 39.9367 35.138 42.0946 33.8555 43.9082C38.3441 41.2682 41.669 36.8835 42.6665 31.7413C44.234 23.5918 40.1253 15.9015 33.4993 12.1825Z">
      </path>
    </symbol>
    <symbol viewBox="0 0 48 48" id="cms-icon-menu">
      <path d="M44 17.04V7.96C44 5.14 42.72 4 39.54 4H31.46C28.28 4 27 5.14 27 7.96V17.02C27 19.86 28.28 20.98 31.46 20.98H39.54C42.72 21 44 19.86 44 17.04ZM44 39.54V31.46C44 28.28 42.72 27 39.54 27H31.46C28.28 27 27 28.28 27 31.46V39.54C27 42.72 28.28 44 31.46 44H39.54C42.72 44 44 42.72 44 39.54ZM21 17.04V7.96C21 5.14 19.72 4 16.54 4H8.46C5.28 4 4 5.14 4 7.96V17.02C4 19.86 5.28 20.98 8.46 20.98H16.54C19.72 21 21 19.86 21 17.04ZM21 39.54V31.46C21 28.28 19.72 27 16.54 27H8.46C5.28 27 4 28.28 4 31.46V39.54C4 42.72 5.28 44 8.46 44H16.54C19.72 44 21 42.72 21 39.54Z">
      </path>
    </symbol>
    <symbol viewBox="0 0 40 40" id="cms-icon-voice">
      <path d="M0 13.5467C0 12.8031 0.262051 12.1728 0.786154 11.658C1.31077 11.1426 1.94103 10.8851 2.67846 10.8851H5.3559V22.9487H2.67795C1.94103 22.9487 1.31077 22.6913 0.786154 22.1759C0.262051 21.6605 0 21.0308 0 20.2867V13.5467ZM29.7554 2.47078C30.9744 1.29744 32.0795 0.653342 33.0718 0.53847C34.0636 0.423598 34.9421 0.688726 35.7077 1.33232C36.4723 1.97642 37.1241 2.92103 37.6626 4.16565C38.201 5.41078 38.64 6.79898 38.9805 8.32975C39.3294 9.91631 39.5849 11.522 39.7456 13.1385C39.9154 14.8128 40.0005 16.4082 40.0005 17.9251C40.0005 19.4421 39.8944 20.959 39.6815 22.4759C39.4692 23.9928 39.1574 25.4164 38.7467 26.7477C38.3354 28.0785 37.8538 29.2446 37.301 30.2462C36.7487 31.2482 36.1323 31.9923 35.4523 32.4785C34.7723 32.9656 34.0421 33.1369 33.2626 32.9939C32.4836 32.8508 31.6687 32.2928 30.819 31.3195C29.9969 30.3467 28.8846 29.538 27.4821 28.8939C26.079 28.2503 24.5487 27.7062 22.8913 27.2631C21.2317 26.8189 19.5503 26.4605 17.8538 26.1892C16.1533 25.9174 14.5949 25.6744 13.1779 25.4595C11.761 25.2446 10.5779 25.0374 9.62872 24.8369C8.67949 24.6369 8.14769 24.3933 8.03436 24.1072V10.6703C8.14769 10.2698 8.59436 9.94052 9.37333 9.68309C10.1528 9.42565 11.1446 9.18206 12.3492 8.95334C13.5533 8.72411 14.9133 8.47386 16.4297 8.20206C17.9942 7.91848 19.5412 7.54573 21.0631 7.08565C22.6464 6.60931 24.1888 6.00634 25.6754 5.28257C27.1702 4.55759 28.5461 3.60948 29.7559 2.47078H29.7554ZM14.4528 28.7872C14.5944 29.1308 14.7646 29.5026 14.9626 29.9036C15.1685 30.3436 15.3956 30.7733 15.6431 31.1913C15.9625 31.7338 16.3029 32.2636 16.6636 32.7795C17.1446 33.4667 17.6338 34.1898 18.1297 34.9477C18.6256 35.7067 19.0015 36.3933 19.2559 37.0087C19.5113 37.6241 19.5892 38.1318 19.4897 38.5323C19.3908 38.9333 18.9872 39.1333 18.2785 39.1333H15.8554C15.2887 39.1333 14.7646 39.0262 14.2826 38.8118C13.8005 38.5964 13.3405 38.2682 12.901 37.8241C12.4621 37.3805 12.0087 36.8154 11.541 36.1282C11.0733 35.441 10.5703 34.6256 10.0318 33.681C9.38051 32.5939 8.92667 31.6421 8.67179 30.8267C8.41641 30.0108 8.24615 29.3308 8.16154 28.7872C8.04821 28.1574 8.04821 27.6139 8.16154 27.1559C8.3882 27.1846 8.65744 27.2415 8.96923 27.3277C9.2241 27.3846 9.5359 27.4559 9.90462 27.5421C10.2728 27.6282 10.6979 27.7139 11.1795 27.8C11.6615 27.9144 12.0933 28.0215 12.4759 28.1215C12.8585 28.2221 13.2056 28.3292 13.5174 28.4436C13.8325 28.5489 14.1445 28.6635 14.4528 28.7872Z">
      </path>
      <defs>
        <linearGradient id="cms-icon-voice_paint0_linear_19_15864" x1="20.0003" y1="0.512421" x2="20.0003" y2="39.1333" gradientUnits="userSpaceOnUse">
          <stop stop-color="#F84948">
          </stop>
          <stop offset="1" stop-color="#FF7857">
          </stop>
        </linearGradient>
      </defs>
    </symbol>
  </svg>