<svg data-v-4641417b="" width="210" height="80" viewBox="0 0 210 80" fill="none" xmlns="http://www.w3.org/2000/svg">
          <path d="M0 10C0 4.47715 4.47715 0 10 0H200C205.523 0 210 4.47715 210 10V70C210 75.5229 205.523 80 200 80H10C4.47715 80 0 75.5229 0 70V10Z" fill="#2b3270" data-v-4641417b="">
          </path>
          <path fill-rule="evenodd" clip-rule="evenodd" d="M105 47C115.493 47 124 38.4934 124 28C124 17.5066 115.493 9 105 9C94.5066 9 86 17.5066 86 28C86 29.9874 86.3051 31.9034 86.8711 33.704C86.8777 33.6928 86.8845 33.6819 86.8915 33.6713C89.1199 30.9738 92.9341 25.5392 94.2804 23.1158C96.0397 19.9491 97.7989 16.196 98.5026 14.6713C98.7372 14.2022 99.4878 12.9824 100.614 13.2638C101.679 13.5302 101.673 15.0059 101.67 15.9278C101.67 15.98 101.669 16.0304 101.669 16.0787C101.669 17.4079 101.628 19.0014 101.583 20.7098C101.403 27.5937 101.173 36.344 103.429 37.1898C104.902 37.7424 109.761 29.0971 111.872 22.4119C111.891 22.354 111.91 22.2961 111.929 22.2384C112.257 21.2437 112.568 20.301 113.632 20.301C114.544 20.301 114.671 21.2235 114.872 22.6953C114.92 23.0413 114.972 23.4175 115.038 23.8193C115.062 23.9613 115.087 24.1177 115.115 24.2865C115.493 26.6278 116.26 31.3739 118.557 33.6712C119.801 34.9151 119.964 36.1341 117.15 34.023C116.68 33.6712 115.038 32.2637 114.335 29.4489C113.631 26.6341 113.069 26.9858 112.929 27.6897C112.577 29.4489 107.651 40.3565 103.78 40.3565C98.244 40.3565 98.6229 31.2148 98.8059 26.7988C98.8322 26.1631 98.8545 25.6254 98.8545 25.2269C98.8545 22.0602 97.0952 25.2269 96.0397 27.338C95.9066 27.6041 95.7245 27.9804 95.5041 28.4357C94.0796 31.3783 91.057 37.6226 89.3523 38.7803C92.7798 43.7459 98.5099 47 105 47Z" fill="url(#paint0_linear_84_6488)" data-v-4641417b="">
          </path>
          <path d="M33.1136 51.5455H35.6364L41.5682 66.0341H41.7727L47.7045 51.5455H50.2273V69H48.25V55.7386H48.0795L42.625 69H40.7159L35.2614 55.7386H35.0909V69H33.1136V51.5455ZM54.1925 69V55.9091H56.2038V69H54.1925ZM55.2152 53.7273C54.8232 53.7273 54.4851 53.5938 54.201 53.3267C53.9226 53.0597 53.7834 52.7386 53.7834 52.3636C53.7834 51.9886 53.9226 51.6676 54.201 51.4006C54.4851 51.1335 54.8232 51 55.2152 51C55.6072 51 55.9425 51.1335 56.2209 51.4006C56.505 51.6676 56.647 51.9886 56.647 52.3636C56.647 52.7386 56.505 53.0597 56.2209 53.3267C55.9425 53.5938 55.6072 53.7273 55.2152 53.7273ZM65.206 69.2727C63.9787 69.2727 62.9219 68.983 62.0355 68.4034C61.1491 67.8239 60.4673 67.0256 59.9901 66.0085C59.5128 64.9915 59.2741 63.8295 59.2741 62.5227C59.2741 61.1932 59.5185 60.0199 60.0071 59.0028C60.5014 57.9801 61.1889 57.1818 62.0696 56.608C62.956 56.0284 63.9901 55.7386 65.1719 55.7386C66.0923 55.7386 66.9219 55.9091 67.6605 56.25C68.3991 56.5909 69.0043 57.0682 69.4759 57.6818C69.9474 58.2955 70.2401 59.0114 70.3537 59.8295H68.3423C68.1889 59.233 67.848 58.7045 67.3196 58.2443C66.7969 57.7784 66.0923 57.5455 65.206 57.5455C64.4219 57.5455 63.7344 57.75 63.1435 58.1591C62.5582 58.5625 62.1009 59.1335 61.7713 59.8722C61.4474 60.6051 61.2855 61.4659 61.2855 62.4545C61.2855 63.4659 61.4446 64.3466 61.7628 65.0966C62.0866 65.8466 62.5412 66.429 63.1264 66.8438C63.7173 67.2585 64.4105 67.4659 65.206 67.4659C65.7287 67.4659 66.2031 67.375 66.6293 67.1932C67.0554 67.0114 67.4162 66.75 67.7116 66.4091C68.0071 66.0682 68.2173 65.6591 68.3423 65.1818H70.3537C70.2401 65.9545 69.9588 66.6506 69.5099 67.2699C69.0668 67.8835 68.4787 68.3722 67.7457 68.7358C67.0185 69.0938 66.1719 69.2727 65.206 69.2727ZM73.294 69V55.9091H75.2372V57.8864H75.3736C75.6122 57.2386 76.044 56.7131 76.669 56.3097C77.294 55.9062 77.9986 55.7045 78.7827 55.7045C78.9304 55.7045 79.1151 55.7074 79.3366 55.7131C79.5582 55.7187 79.7259 55.7273 79.8395 55.7386V57.7841C79.7713 57.767 79.6151 57.7415 79.3707 57.7074C79.1321 57.6676 78.8793 57.6477 78.6122 57.6477C77.9759 57.6477 77.4077 57.7812 76.9077 58.0483C76.4134 58.3097 76.0213 58.6733 75.7315 59.1392C75.4474 59.5994 75.3054 60.125 75.3054 60.7159V69H73.294ZM87.1435 69.2727C85.9616 69.2727 84.9247 68.9915 84.0327 68.429C83.1463 67.8665 82.4531 67.0795 81.9531 66.0682C81.4588 65.0568 81.2116 63.875 81.2116 62.5227C81.2116 61.1591 81.4588 59.9687 81.9531 58.9517C82.4531 57.9347 83.1463 57.1449 84.0327 56.5824C84.9247 56.0199 85.9616 55.7386 87.1435 55.7386C88.3253 55.7386 89.3594 56.0199 90.2457 56.5824C91.1378 57.1449 91.831 57.9347 92.3253 58.9517C92.8253 59.9687 93.0753 61.1591 93.0753 62.5227C93.0753 63.875 92.8253 65.0568 92.3253 66.0682C91.831 67.0795 91.1378 67.8665 90.2457 68.429C89.3594 68.9915 88.3253 69.2727 87.1435 69.2727ZM87.1435 67.4659C88.0412 67.4659 88.7798 67.2358 89.3594 66.7756C89.9389 66.3153 90.3679 65.7102 90.6463 64.9602C90.9247 64.2102 91.0639 63.3977 91.0639 62.5227C91.0639 61.6477 90.9247 60.8324 90.6463 60.0767C90.3679 59.321 89.9389 58.7102 89.3594 58.2443C88.7798 57.7784 88.0412 57.5455 87.1435 57.5455C86.2457 57.5455 85.5071 57.7784 84.9276 58.2443C84.348 58.7102 83.919 59.321 83.6406 60.0767C83.3622 60.8324 83.223 61.6477 83.223 62.5227C83.223 63.3977 83.3622 64.2102 83.6406 64.9602C83.919 65.7102 84.348 66.3153 84.9276 66.7756C85.5071 67.2358 86.2457 67.4659 87.1435 67.4659ZM101.43 74.1818C100.458 74.1818 99.6229 74.0568 98.924 73.8068C98.2251 73.5625 97.6428 73.2386 97.1768 72.8352C96.7166 72.4375 96.3501 72.0114 96.0774 71.5568L97.6797 70.4318C97.8615 70.6705 98.0916 70.9432 98.37 71.25C98.6484 71.5625 99.0291 71.8324 99.5121 72.0597C100.001 72.2926 100.64 72.4091 101.43 72.4091C102.487 72.4091 103.359 72.1534 104.046 71.642C104.734 71.1307 105.077 70.3295 105.077 69.2386V66.5795H104.907C104.759 66.8182 104.549 67.1136 104.276 67.4659C104.009 67.8125 103.623 68.1222 103.117 68.3949C102.617 68.6619 101.941 68.7955 101.089 68.7955C100.032 68.7955 99.0831 68.5455 98.2422 68.0455C97.407 67.5455 96.745 66.8182 96.2564 65.8636C95.7734 64.9091 95.532 63.75 95.532 62.3864C95.532 61.0455 95.7678 59.8778 96.2393 58.8835C96.7109 57.8835 97.3672 57.1108 98.2081 56.5653C99.049 56.0142 100.021 55.7386 101.123 55.7386C101.975 55.7386 102.651 55.8807 103.151 56.1648C103.657 56.4432 104.043 56.7614 104.31 57.1193C104.583 57.4716 104.793 57.7614 104.941 57.9886H105.146V55.9091H107.089V69.375C107.089 70.5 106.833 71.4148 106.322 72.1193C105.816 72.8295 105.134 73.3494 104.276 73.679C103.424 74.0142 102.475 74.1818 101.43 74.1818ZM101.362 66.9886C102.168 66.9886 102.85 66.804 103.407 66.4347C103.964 66.0653 104.387 65.5341 104.677 64.8409C104.967 64.1477 105.112 63.3182 105.112 62.3523C105.112 61.4091 104.969 60.5767 104.685 59.8551C104.401 59.1335 103.981 58.5682 103.424 58.1591C102.867 57.75 102.18 57.5455 101.362 57.5455C100.509 57.5455 99.799 57.7614 99.2308 58.1932C98.6683 58.625 98.245 59.2045 97.9609 59.9318C97.6825 60.6591 97.5433 61.4659 97.5433 62.3523C97.5433 63.2614 97.6854 64.0653 97.9695 64.7642C98.2592 65.4574 98.6854 66.0028 99.2479 66.4006C99.8161 66.7926 100.521 66.9886 101.362 66.9886ZM114.623 69.3068C113.793 69.3068 113.04 69.1506 112.364 68.8381C111.688 68.5199 111.151 68.0625 110.754 67.4659C110.356 66.8636 110.157 66.1364 110.157 65.2841C110.157 64.5341 110.305 63.9261 110.6 63.4602C110.896 62.9886 111.29 62.6193 111.785 62.3523C112.279 62.0852 112.825 61.8864 113.421 61.7557C114.023 61.6193 114.629 61.5114 115.237 61.4318C116.032 61.3295 116.677 61.2528 117.171 61.2017C117.671 61.1449 118.035 61.0511 118.262 60.9205C118.495 60.7898 118.612 60.5625 118.612 60.2386V60.1705C118.612 59.3295 118.381 58.6761 117.921 58.2102C117.467 57.7443 116.776 57.5114 115.85 57.5114C114.89 57.5114 114.137 57.7216 113.592 58.142C113.046 58.5625 112.663 59.0114 112.441 59.4886L110.532 58.8068C110.873 58.0114 111.327 57.392 111.896 56.9489C112.469 56.5 113.094 56.1875 113.771 56.0114C114.452 55.8295 115.123 55.7386 115.782 55.7386C116.202 55.7386 116.685 55.7898 117.231 55.892C117.782 55.9886 118.313 56.1903 118.825 56.4972C119.342 56.804 119.771 57.267 120.112 57.8864C120.452 58.5057 120.623 59.3352 120.623 60.375V69H118.612V67.2273H118.509C118.373 67.5114 118.146 67.8153 117.827 68.1392C117.509 68.4631 117.086 68.7386 116.558 68.9659C116.029 69.1932 115.384 69.3068 114.623 69.3068ZM114.93 67.5C115.725 67.5 116.396 67.3438 116.941 67.0312C117.492 66.7188 117.907 66.3153 118.185 65.821C118.469 65.3267 118.612 64.8068 118.612 64.2614V62.4205C118.526 62.5227 118.339 62.6165 118.049 62.7017C117.765 62.7812 117.435 62.8523 117.06 62.9148C116.691 62.9716 116.33 63.0227 115.978 63.0682C115.631 63.108 115.35 63.142 115.134 63.1705C114.612 63.2386 114.123 63.3494 113.668 63.5028C113.219 63.6506 112.856 63.875 112.577 64.1761C112.305 64.4716 112.168 64.875 112.168 65.3864C112.168 66.0852 112.427 66.6136 112.944 66.9716C113.467 67.3239 114.129 67.5 114.93 67.5ZM124.294 69V55.9091H126.237V57.9545H126.408C126.68 57.2557 127.121 56.7131 127.729 56.3267C128.337 55.9347 129.067 55.7386 129.919 55.7386C130.783 55.7386 131.501 55.9347 132.075 56.3267C132.655 56.7131 133.107 57.2557 133.43 57.9545H133.567C133.902 57.2784 134.405 56.7415 135.075 56.3438C135.746 55.9403 136.55 55.7386 137.487 55.7386C138.658 55.7386 139.615 56.1051 140.359 56.8381C141.104 57.5653 141.476 58.6989 141.476 60.2386V69H139.464V60.2386C139.464 59.2727 139.2 58.5824 138.672 58.1676C138.143 57.7528 137.521 57.5455 136.805 57.5455C135.885 57.5455 135.172 57.8239 134.666 58.3807C134.161 58.9318 133.908 59.6307 133.908 60.4773V69H131.862V60.0341C131.862 59.2898 131.621 58.6903 131.138 58.2358C130.655 57.7756 130.033 57.5455 129.271 57.5455C128.749 57.5455 128.26 57.6847 127.805 57.9631C127.357 58.2415 126.993 58.6278 126.714 59.1222C126.442 59.6108 126.305 60.1761 126.305 60.8182V69H124.294ZM145.153 69V55.9091H147.165V69H145.153ZM146.176 53.7273C145.784 53.7273 145.446 53.5938 145.162 53.3267C144.884 53.0597 144.744 52.7386 144.744 52.3636C144.744 51.9886 144.884 51.6676 145.162 51.4006C145.446 51.1335 145.784 51 146.176 51C146.568 51 146.903 51.1335 147.182 51.4006C147.466 51.6676 147.608 51.9886 147.608 52.3636C147.608 52.7386 147.466 53.0597 147.182 53.3267C146.903 53.5938 146.568 53.7273 146.176 53.7273ZM152.86 61.125V69H150.849V55.9091H152.792V57.9545H152.962C153.269 57.2898 153.735 56.7557 154.36 56.3523C154.985 55.9432 155.792 55.7386 156.781 55.7386C157.667 55.7386 158.442 55.9205 159.107 56.2841C159.772 56.642 160.289 57.1875 160.658 57.9205C161.028 58.6477 161.212 59.5682 161.212 60.6818V69H159.201V60.8182C159.201 59.7898 158.934 58.9886 158.4 58.4148C157.866 57.8352 157.133 57.5455 156.201 57.5455C155.559 57.5455 154.985 57.6847 154.479 57.9631C153.979 58.2415 153.585 58.6477 153.295 59.1818C153.005 59.7159 152.86 60.3636 152.86 61.125ZM170.172 74.1818C169.2 74.1818 168.365 74.0568 167.666 73.8068C166.967 73.5625 166.385 73.2386 165.919 72.8352C165.459 72.4375 165.092 72.0114 164.82 71.5568L166.422 70.4318C166.604 70.6705 166.834 70.9432 167.112 71.25C167.391 71.5625 167.771 71.8324 168.254 72.0597C168.743 72.2926 169.382 72.4091 170.172 72.4091C171.229 72.4091 172.101 72.1534 172.788 71.642C173.476 71.1307 173.82 70.3295 173.82 69.2386V66.5795H173.649C173.501 66.8182 173.291 67.1136 173.018 67.4659C172.751 67.8125 172.365 68.1222 171.859 68.3949C171.359 68.6619 170.683 68.7955 169.831 68.7955C168.774 68.7955 167.825 68.5455 166.984 68.0455C166.149 67.5455 165.487 66.8182 164.999 65.8636C164.516 64.9091 164.274 63.75 164.274 62.3864C164.274 61.0455 164.51 59.8778 164.982 58.8835C165.453 57.8835 166.109 57.1108 166.95 56.5653C167.791 56.0142 168.763 55.7386 169.865 55.7386C170.717 55.7386 171.393 55.8807 171.893 56.1648C172.399 56.4432 172.786 56.7614 173.053 57.1193C173.325 57.4716 173.536 57.7614 173.683 57.9886H173.888V55.9091H175.831V69.375C175.831 70.5 175.575 71.4148 175.064 72.1193C174.558 72.8295 173.876 73.3494 173.018 73.679C172.166 74.0142 171.217 74.1818 170.172 74.1818ZM170.104 66.9886C170.911 66.9886 171.592 66.804 172.149 66.4347C172.706 66.0653 173.129 65.5341 173.419 64.8409C173.709 64.1477 173.854 63.3182 173.854 62.3523C173.854 61.4091 173.712 60.5767 173.428 59.8551C173.143 59.1335 172.723 58.5682 172.166 58.1591C171.609 57.75 170.922 57.5455 170.104 57.5455C169.251 57.5455 168.541 57.7614 167.973 58.1932C167.411 58.625 166.987 59.2045 166.703 59.9318C166.425 60.6591 166.286 61.4659 166.286 62.3523C166.286 63.2614 166.428 64.0653 166.712 64.7642C167.001 65.4574 167.428 66.0028 167.99 66.4006C168.558 66.7926 169.263 66.9886 170.104 66.9886Z" fill="url(#paint1_linear_84_6488)" data-v-4641417b="">
          </path>
          <defs data-v-4641417b="">
            <linearGradient id="paint0_linear_84_6488" x1="113.5" y1="9" x2="103.5" y2="47" gradientUnits="userSpaceOnUse" data-v-4641417b="">
              <stop stop-color="#31B7E3" data-v-4641417b="">
              </stop>
              <stop offset="1" stop-color="#22E124" data-v-4641417b="">
              </stop>
            </linearGradient>
            <linearGradient id="paint1_linear_84_6488" x1="33.9913" y1="60.7059" x2="174.581" y2="60.7059" gradientUnits="userSpaceOnUse" data-v-4641417b="">
              <stop stop-color="#31BAD9" data-v-4641417b="">
              </stop>
              <stop offset="1" stop-color="#23E128" data-v-4641417b="">
              </stop>
            </linearGradient>
          </defs>
        </svg>