<svg data-v-76c247f8="" xmlns="http://www.w3.org/2000/svg" width="56" height="56" viewBox="0 0 56 56" fill="none" class="">
          <g clip-path="url(#clip0_226_251)">
            <path fill-rule="evenodd" clip-rule="evenodd" d="M52.3509 27.9323L29.2711 5.07261C28.5724 4.37977 27.4394 4.37847 26.74 5.07065L26.7387 5.07261L3.65824 27.931C2.98428 28.5985 2.60466 29.5042 2.604 
              30.4484C2.60596 32.411 4.21107 34.0005 6.19061 34.0018H8.6227V50.3141C8.62075 51.2941 9.42168 52.0898 10.4108 52.0911C10.4121 52.0911 10.4141 52.0911 10.416 
              52.0911H24.4186V39.65H30.6945V52.0911H45.5925C46.5816 52.0924 47.3838 51.2993 47.3858 50.3186C47.3858 50.3173 47.3858 50.3154 47.3858 50.3141V34.0018H49.8172C51.8 
              33.9966 53.4032 32.3987 53.3973 30.4334C53.3947 29.4951 53.0183 28.5959 52.3496 27.931L52.3509 27.9323Z" fill="url(#paint0_linear_226_251)"></path>
          </g>
          <defs>
            <linearGradient id="paint0_linear_226_251" x1="2.604" y1="52.0931" x2="2.604" y2="4.55225" gradientUnits="userSpaceOnUse">
              <stop stop-color="#F6F6F6"></stop>
              <stop offset="1" stop-color="#4675d2"></stop>
            </linearGradient>
            <linearGradient id="paint0_linear_226_233" x1="6.5116" y1="52.7442" x2="6.5116" y2="3.90698" gradientUnits="userSpaceOnUse">
              <stop stop-color="#B1835A"></stop>
              <stop offset="1" stop-color="#59b0ea"></stop>
            </linearGradient>
            <clipPath id="clip0_226_251">
              <rect width="56" height="56" fill="white"></rect>
            </clipPath>
          </defs>
        </svg>