<svg data-v-76c247f8="" xmlns="http://www.w3.org/2000/svg" width="56" height="56" viewBox="0 0 56 56" fill="none" class="">
          <g clip-path="url(#clip0_226_254)">
            <path fill-rule="evenodd" clip-rule="evenodd" d="M44.182 30.186C41.748 35.6375 36.5016 39.6076 30.2276 40.2914V48.3554H36.3668C37.5955 48.3554 38.6009 49.3412 38.6009 50.5472C38.6009 51.7538 37.5955 
              52.7396 36.3668 52.7396H19.6234C18.396 52.7396 17.3906 51.7538 17.3906 50.5472C17.3906 49.3412 18.396 48.3554 19.6234 48.3554H25.7619V40.223C19.7836 39.3569 
              14.8048 35.4838 12.4515 30.2133C7.01041 30.1039 2.60074 25.719 2.60074 20.3475C2.60074 15.4697 6.25572 11.3862 11.0001 10.6192V7.05601C11.0001 5.30242 
              12.4515 3.90503 14.2103 3.90503H42.3966C44.182 3.90503 45.6035 5.33042 45.6035 7.05601V10.7559C50.0412 11.7698 53.3908 15.6885 53.3908 20.3475C53.3908 
              25.5002 49.3158 29.7751 44.182 30.186ZM11.0001 23.6913V15.1135C8.73925 15.7985 7.06576 17.8809 7.06576 20.3475C7.06576 22.8695 8.79655 25.006 11.1401 
              25.6096C11.0561 24.9786 11.0001 24.3483 11.0001 23.6913ZM35.7827 17.7989L31.317 17.1959L29.3336 13.0584C28.5815 11.6057 27.4647 11.6057 26.8513 13.0584L24.8692 
              17.0865L20.4048 17.6895C18.8987 17.9363 18.5353 19.0322 19.6514 20.1288L22.8884 23.4165L22.1337 28.0488C21.8843 29.611 22.749 30.2407 24.1171 29.5009L28.1068 
              27.3085L32.0971 29.6377C33.4646 30.3774 34.3299 29.7751 34.0793 28.1856L33.3259 23.5532L36.5628 20.2655C37.6795 19.1696 37.3168 18.073 35.7827 17.7989ZM45.6035 
              15.3603V23.7186C45.6035 24.2936 45.5488 24.8419 45.4941 25.4175C47.5017 24.5951 48.9251 22.6221 48.9251 20.3749C48.9251 18.1277 47.5577 16.2094 45.6035 15.3603Z" fill="url(#paint0_linear_226_254)"></path>
          </g>
          <defs>
            <linearGradient id="paint0_linear_226_254" x1="2.60074" y1="52.7442" x2="2.60074" y2="3.90503" gradientUnits="userSpaceOnUse">
              <stop stop-color="#F6F6F6"></stop>
              <stop offset="1" stop-color="#4675d2"></stop>
            </linearGradient>
            <linearGradient id="paint0_linear_226_233" x1="6.5116" y1="52.7442" x2="6.5116" y2="3.90698" gradientUnits="userSpaceOnUse">
              <stop stop-color="#B1835A"></stop>
              <stop offset="1" stop-color="#59b0ea"></stop>
            </linearGradient>
            <clipPath id="clip0_226_254">
              <rect width="56" height="56" fill="white"></rect>
            </clipPath>
          </defs>
        </svg>