<svg xmlns="http://www.w3.org/2000/svg" width="48" height="48" viewBox="0 0 48 48" fill="none" data-v-0acd5ccd="">
              <g clip-path="url(#clip0_1816_27334)" data-v-0acd5ccd="">
                <path d="M23.9955 47.9998C10.7874 48.0471 -0.23118 37.1883 0.00368673 23.5594C0.230542 10.3977 11.1372 -0.274265 24.5288 0.00537298C37.2674 0.271345 47.9986 10.6432 48 24.0104C48.0014 37.308 37.2675 47.9998 23.9955 47.9998ZM31.898 33.1019C31.9229 33.0378 31.9637 32.9372 32.0012 32.8354C33.1533 29.6991 34.3075 26.5635 35.4523 23.4244C35.536 23.1947 35.6523 23.088 35.8957 23.0243C37.2211 22.6772 38.0122 21.3663 37.7026 20.0709C37.4124 18.8567 36.2337 18.0384 34.9821 18.182C33.8198 18.3155 32.8786 19.3717 32.8533 20.572C32.8411 21.1496 33.0217 21.6654 33.3848 22.1331C32.2741 23.4385 31.1737 24.7319 30.0385 26.0661C29.6353 23.6602 29.2447 21.329 28.8523 18.9878C28.9398 18.952 29.0064 18.9252 29.0725 18.8975C30.322 18.3741 30.9078 17.1195 30.5141 15.8101C30.134 14.5463 28.8118 13.7321 27.5455 13.9871C26.5239 14.1927 25.8288 14.7962 25.5231 15.7839C25.2074 16.804 25.4546 17.7202 26.2156 18.4748C26.3696 18.6275 26.399 18.7449 26.3322 18.9462C25.6104 21.1204 24.8986 23.298 24.183 25.4742C24.1586 25.5481 24.1223 25.6181 24.0673 25.7465C23.2467 23.3546 22.4458 21.02 21.6468 18.6912C22.8623 17.9342 23.0229 16.5173 22.6448 15.5997C22.187 14.4887 21.0419 13.806 19.8796 13.9608C18.6987 14.118 17.751 15.0669 17.62 16.2404C17.5534 16.8374 17.6585 17.4066 17.9731 17.9268C18.3196 18.4997 18.8001 18.8909 19.5106 18.9992C19.0253 21.3552 18.5454 23.6849 18.0595 26.0437C17.9958 25.9875 17.9587 25.9614 17.9295 25.9282C16.8492 24.6989 15.7714 23.4675 14.6876 22.2414C14.5807 22.1205 14.601 22.0352 14.6673 21.905C14.8237 21.5976 15.0201 21.291 15.0871 20.961C15.3937 19.4526 13.9742 17.8363 12.2263 18.1747C11.1024 18.3924 10.2019 19.4713 10.2078 20.6228C10.214 21.8218 11.1066 22.8928 12.2555 23.0499C12.4471 23.0761 12.5109 23.1563 12.5678 23.3159C13.1845 25.044 13.8075 26.7699 14.4283 28.4965C14.9596 29.9743 15.491 31.4521 16.02 32.9307C16.0686 33.0664 16.1044 33.1693 16.298 33.1459C16.9872 33.0625 17.6799 33.0088 18.3697 32.9293C20.934 32.6341 23.5048 32.4656 26.0844 32.6334C28.007 32.7585 29.9258 32.9409 31.898 33.1019Z" data-v-0acd5ccd="">
                </path>
              </g>
              <defs data-v-0acd5ccd="">
                <clipPath id="clip0_1816_27334" data-v-0acd5ccd="">
                  <rect width="48" height="48" fill="white" data-v-0acd5ccd="">
                  </rect>
                </clipPath>
              </defs>
            </svg>