<svg data-v-4641417b="" xmlns="http://www.w3.org/2000/svg" width="210" height="80" viewBox="0 0 210 80" fill="none">
          <path d="M0 10C0 4.47715 4.47715 0 10 0H200C205.523 0 210 4.47715 210 10V70C210 75.5229 205.523 80 200 80H10C4.47715 80 0 75.5229 0 70V10Z" fill="#2b3270" data-v-4641417b="">
          </path>
          <path d="M103.77 20.9054C104.064 19.3362 104.388 17.7716 104.638 16.1958C104.769 15.372 105.052 15.0024 105.994 15.0048C119.678 15.0379 133.363 15.0445 147.047 14.9998C148.332 14.9955 148.365 15.5404 148.194 16.4954C146.6 25.439 145.02 34.3853 143.433 43.3302C142.616 47.9394 141.731 52.5384 141.016 57.1635C140.825 58.3926 140.398 58.6458 139.244 58.6409C128.595 58.5968 117.945 58.614 107.295 58.6173C106.69 58.6177 106.084 58.6518 105.478 58.6704C102.916 59.5425 100.303 59.0963 97.7026 58.9697C97.4013 58.8726 97.155 58.7055 97.0105 58.4141C96.8318 56.4694 97.4713 54.627 97.752 52.7399C97.986 51.166 98.2675 49.5988 98.5121 48.0259C99.9477 40.1278 101.306 32.2161 102.707 24.312C102.915 23.1402 102.881 21.8723 103.77 20.9054Z" fill="#0091C3" data-v-4641417b="">
          </path>
          <path d="M103.77 20.9054C102.219 30.0018 100.721 39.1075 98.9046 48.1565C98.1326 47.8363 98.0202 47.061 97.764 46.4186C95.3124 40.2696 92.7706 34.1565 90.4274 27.9645C90.3104 27.6549 90.1692 27.3539 90.0618 27.0417C89.6875 25.9548 89.2357 26.0864 88.6325 26.8925C80.9302 37.1836 73.1949 47.4501 65.5016 57.7482C65.4303 57.8433 65.4164 57.947 65.485 58.1814C66.6435 58.191 67.8451 58.1887 69.0481 58.1728C69.9371 58.1608 70.4283 57.5771 70.8997 56.948C72.7851 54.4314 74.7024 51.9377 76.5451 49.3899C77.2936 48.3554 78.1776 47.885 79.4691 47.9006C83.4415 47.9487 87.4153 47.957 91.3874 47.8983C92.8886 47.8761 93.7677 48.4707 94.2271 49.8702C94.916 51.9678 95.7881 53.9981 96.6396 56.0331C96.9429 56.7577 97.0009 57.5095 97.1567 58.252C97.2714 58.3916 97.3858 58.5311 97.5005 58.6707C99.8374 60.0168 101.737 61.9244 103.817 63.5987C104.078 63.8082 104.206 64.1238 104.167 64.4788C90.1516 64.4944 76.1357 64.4934 62.1205 64.5494C60.6504 64.5554 61.0008 63.7094 61.1347 62.9421C62.3462 55.9986 63.5764 49.0585 64.8075 42.1186C65.9809 35.504 67.2001 28.8973 68.3036 22.271C68.4962 21.1145 68.9357 20.8768 69.9977 20.8802C81.2554 20.9136 92.5127 20.9034 103.77 20.9054Z" fill="#EA5902" data-v-4641417b="">
          </path>
          <path d="M104.168 64.4781C102.492 62.821 100.596 61.4272 98.7669 59.9521C98.3025 59.5775 97.921 59.1002 97.501 58.6699C100.16 58.6699 102.819 58.6699 105.478 58.6703C105.018 60.6011 105.224 62.6818 104.168 64.4781Z" fill="#C50110" data-v-4641417b="">
          </path>
          <path d="M131.304 42.7613C128.148 42.7613 125.306 42.7613 122.225 42.7613C122.498 41.1891 122.775 39.7651 122.983 38.3311C123.073 37.7043 123.457 37.69 123.918 37.69C128.225 37.6913 132.532 37.7215 136.838 37.6698C138.044 37.6552 137.653 38.3689 137.601 38.9612C137.056 45.2348 132.82 48.6487 127.779 51.268C124.039 53.2118 119.979 53.6643 115.881 52.4706C108.888 50.4344 105.323 43.5535 107.178 35.8493C109.323 26.9369 118.32 20.4237 127.442 21.1801C132.57 21.6054 137.117 25.2344 138.558 30.017C138.858 31.0141 138.923 31.7393 137.515 31.5073C137.246 31.4629 136.962 31.4761 136.689 31.505C134.696 31.7141 133.278 31.3227 131.921 29.4041C129.669 26.2182 126.137 25.6318 122.406 26.4281C116.944 27.5932 112.557 32.3476 111.846 37.8402C111.145 43.2565 115.172 47.9281 120.647 48.0079C124.963 48.0709 128.316 46.1497 131.304 42.7613Z" fill="#FEFEFE" data-v-4641417b="">
          </path>
          <path d="M97.1575 58.2513C95.9944 55.4059 94.7818 52.5791 93.6962 49.7045C93.3296 48.7339 92.894 48.3531 91.8174 48.3703C87.6222 48.4386 83.424 48.4422 79.2292 48.368C78.1433 48.3488 77.5227 48.7432 76.9224 49.5726C75.0144 52.2095 72.9941 54.7662 71.1143 57.4226C70.4636 58.3422 69.7718 58.7144 68.6633 58.6368C67.3457 58.5444 66.0165 58.615 64.3213 58.615C72.7856 47.3338 81.0951 36.2584 89.617 24.8997C92.773 32.8014 95.8392 40.4785 98.9054 48.1558C98.507 51.5532 97.8636 54.9077 97.1575 58.2513Z" fill="#FEFEFE" data-v-4641417b="">
          </path>
          <path d="M91.1297 43.3157C87.923 43.3157 84.9142 43.3157 81.6299 43.3157C83.747 40.4892 85.7376 37.8314 87.8584 35.0002C88.9811 37.8536 90.0375 40.5389 91.1297 43.3157Z" fill="#EA5902" data-v-4641417b="">
          </path>
        </svg>