<svg xmlns="http://www.w3.org/2000/svg" width="48" height="48" viewBox="0 0 48 48" data-v-0acd5ccd="">
            <g clip-path="url(#clip0_6492_262)" data-v-0acd5ccd="">
              <path d="M24 48C10.7454 48 0 37.2546 0 24C0 10.7454 10.7454 0 24 0C37.2546 0 48 10.7454 48 24C48 37.2546 37.2546 48 24 48ZM15 12.6C14.0452 12.6 13.1295 12.9793 12.4544 13.6544C11.7793 14.3295 11.4 15.2452 11.4 16.2V20.7276C11.4 21.6824 11.7793 22.5981 12.4544 23.2732C13.1295 23.9483 14.0452 24.3276 15 24.3276H19.485C20.4398 24.3276 21.3555 23.9483 22.0306 23.2732C22.7057 22.5981 23.085 21.6824 23.085 20.7276V16.2C23.085 15.2452 22.7057 14.3295 22.0306 13.6544C21.3555 12.9793 20.4398 12.6 19.485 12.6H15ZM28.146 12.6C27.1912 12.6 26.2755 12.9793 25.6004 13.6544C24.9253 14.3295 24.546 15.2452 24.546 16.2V20.7276C24.546 21.6824 24.9253 22.5981 25.6004 23.2732C26.2755 23.9483 27.1912 24.3276 28.146 24.3276H32.631C33.5858 24.3276 34.5015 23.9483 35.1766 23.2732C35.8517 22.5981 36.231 21.6824 36.231 20.7276V16.2C36.231 15.2452 35.8517 14.3295 35.1766 13.6544C34.5015 12.9793 33.5858 12.6 32.631 12.6H28.146ZM15 25.7934C14.0452 25.7934 13.1295 26.1727 12.4544 26.8478C11.7793 27.5229 11.4 28.4386 11.4 29.3934V33.921C11.4 34.8758 11.7793 35.7915 12.4544 36.4666C13.1295 37.1417 14.0452 37.521 15 37.521H19.485C20.4398 37.521 21.3555 37.1417 22.0306 36.4666C22.7057 35.7915 23.085 34.8758 23.085 33.921V29.3934C23.085 28.4386 22.7057 27.5229 22.0306 26.8478C21.3555 26.1727 20.4398 25.7934 19.485 25.7934H15ZM30.3882 25.7934C27.1614 25.7934 24.546 28.4094 24.546 31.6362V31.6782C24.546 34.905 27.162 37.521 30.3882 37.521C33.615 37.521 36.231 34.905 36.231 31.6782V31.6362C36.231 28.4094 33.615 25.7934 30.3882 25.7934Z" data-v-0acd5ccd="">
              </path>
            </g>
            <defs data-v-0acd5ccd="">
              <clipPath id="clip0_6492_262" data-v-0acd5ccd="">
                <rect width="48" height="48" fill="white" data-v-0acd5ccd="">
                </rect>
              </clipPath>
            </defs>
          </svg>