<svg data-v-76c247f8="" xmlns="http://www.w3.org/2000/svg" width="56" height="56" viewBox="0 0 56 56" fill="none" class="">
          <g clip-path="url(#clip0_226_262)">
            <path fill-rule="evenodd" clip-rule="evenodd" d="M23.0837 30.8723C13.9446 30.8723 6.5116 38.149 6.5116 47.1012V48.0656C6.5116 52.7442 13.8261 52.7442 23.0837 52.7442H32.9162C41.8098 52.7442 49.4883 
              52.7442 49.4883 48.0656V47.1012C49.4883 38.1536 42.0547 30.8723 32.9162 30.8723H23.0811H23.0837ZM27.507 29.6318C34.7447 29.6318 40.6312 23.8638 40.6312 
              16.7707C40.6312 9.67694 34.7447 3.90698 27.5096 3.90698C20.2713 3.90698 14.3822 9.67694 14.3822 16.7707C14.3822 23.8619 20.2713 29.6318 27.5096 29.6318H27.507Z" fill="url(#paint0_linear_226_262)"></path>
          </g>
          <defs>
            <linearGradient id="paint0_linear_226_262" x1="6.5116" y1="52.7442" x2="6.5116" y2="3.90698" gradientUnits="userSpaceOnUse">
              <stop stop-color="#F6F6F6"></stop>
              <stop offset="1" stop-color="#4675d2"></stop>
            </linearGradient>
            <linearGradient id="paint0_linear_226_233" x1="6.5116" y1="52.7442" x2="6.5116" y2="3.90698" gradientUnits="userSpaceOnUse">
              <stop stop-color="#B1835A"></stop>
              <stop offset="1" stop-color="#59b0ea"></stop>
            </linearGradient>
            <clipPath id="clip0_226_262">
              <rect width="56" height="56" fill="white"></rect>
            </clipPath>
          </defs>
        </svg>