<svg data-v-0acd5ccd="" xmlns="http://www.w3.org/2000/svg" width="48" height="48" viewBox="0 0 48 48" fill="none">
              <path data-v-0acd5ccd="" d="M29.7516 7.6875H17.8266C17.1422 7.6875 16.5938 7.13437 16.5938 6.45469V1.27969C16.5938 0.6 17.1469 0.046875 17.8266 0.046875H29.7469C30.4312 0.046875 30.9844 0.6 30.9844 1.27969V6.45C30.9844 7.13438 30.4313 7.6875 29.7516 7.6875Z">
              </path>
              <path data-v-0acd5ccd="" d="M40.7952 4.64062H33.9187C33.689 4.64062 33.5062 4.82813 33.5062 5.05313V8.58281C33.5062 9.26719 32.953 9.81562 32.2733 9.81562H15.7077C15.0233 9.81562 14.4749 9.2625 14.4749 8.58281V5.05313C14.4749 4.82344 14.2874 4.64062 14.0624 4.64062H7.18115C5.49834 4.64062 4.13428 6.00469 4.13428 7.6875V44.9062C4.13428 46.5891 5.49834 47.9531 7.18115 47.9531H40.7952C42.478 47.9531 43.8421 46.5891 43.8421 44.9062V7.6875C43.8421 6.00469 42.478 4.64062 40.7952 4.64062ZM7.82803 16.9688C7.82803 16.1391 8.49834 15.4688 9.32803 15.4688H33.4218C34.2515 15.4688 34.9218 16.1391 34.9218 16.9688C34.9218 17.7984 34.2515 18.4688 33.4218 18.4688H9.32803C8.49834 18.4688 7.82803 17.7984 7.82803 16.9688ZM19.5937 39.1406C19.5937 39.9703 18.9233 40.6406 18.0937 40.6406H9.32803C8.49834 40.6406 7.82803 39.9703 7.82803 39.1406C7.82803 38.3109 8.49834 37.6406 9.32803 37.6406H18.0937C18.9233 37.6406 19.5937 38.3109 19.5937 39.1406ZM19.5937 31.7484C19.5937 32.5781 18.9233 33.2484 18.0937 33.2484H9.32803C8.49834 33.2484 7.82803 32.5781 7.82803 31.7484C7.82803 30.9187 8.49834 30.2484 9.32803 30.2484H18.0937C18.9233 30.2484 19.5937 30.9234 19.5937 31.7484ZM22.4999 25.8609H9.32803C8.49834 25.8609 7.82803 25.1906 7.82803 24.3609C7.82803 23.5312 8.49834 22.8609 9.32803 22.8609H22.4999C23.3296 22.8609 23.9999 23.5312 23.9999 24.3609C23.9999 25.1859 23.3296 25.8609 22.4999 25.8609ZM32.0155 43.7859C27.3562 43.7859 23.578 41.8453 23.578 39.45C23.578 38.85 23.8171 38.2781 24.2437 37.7578C25.528 39.3094 28.5233 40.4016 32.0155 40.4016C35.5077 40.4016 38.503 39.3141 39.7874 37.7578C40.2187 38.2781 40.453 38.85 40.453 39.45C40.453 41.8453 36.6749 43.7859 32.0155 43.7859ZM32.0155 38.9766C27.3562 38.9766 23.578 37.0359 23.578 34.6406C23.578 34.0172 23.8358 33.4266 24.2952 32.8875C25.603 34.4109 28.5702 35.4703 32.0155 35.4703C35.4608 35.4703 38.4233 34.4062 39.7358 32.8875C40.1952 33.4219 40.453 34.0172 40.453 34.6406C40.453 37.0359 36.6749 38.9766 32.0155 38.9766ZM32.0155 34.1672C27.3562 34.1672 23.578 32.2266 23.578 29.8313C23.578 27.4359 27.3562 25.4953 32.0155 25.4953C36.6749 25.4953 40.453 27.4359 40.453 29.8313C40.453 32.2266 36.6749 34.1672 32.0155 34.1672Z">
              </path>
            </svg>