<svg data-v-4641417b="" xmlns="http://www.w3.org/2000/svg" width="210" height="80" viewBox="0 0 210 80" fill="none">
          <path d="M0 10C0 4.47715 4.47715 0 10 0H200C205.523 0 210 4.47715 210 10V70C210 75.5229 205.523 80 200 80H10C4.47715 80 0 75.5229 0 70V10Z" fill="#2b3270" data-v-4641417b="">
          </path>
          <path d="M94.4333 42.2315C94.4755 42.7398 94.527 43.235 94.5773 43.7186C94.8659 46.4927 95.115 48.8876 93.3547 51.2112C88.1097 57.7135 81.1033 59.6642 74.6691 59.6642C63.8062 59.6642 55 50.9306 55 40.1572C55 29.3838 63.8062 20.6502 74.6691 20.6502C80.1533 20.6502 85.5259 23.5619 89.0931 27.1526C88.1097 28.453 86.4706 30.0786 85.7784 31.0327C83.1327 27.8679 79.1382 25.8521 74.6691 25.8521C66.7029 25.8521 60.2451 32.2567 60.2451 40.1572C60.2451 48.0577 66.7029 54.4624 74.6691 54.4624C79.1482 54.4624 85.0555 53.0479 89.0931 48.6103C90.868 46.6596 90.6807 46.1078 90.7322 45.3591C92.3672 44.038 93.1977 42.9202 94.4333 42.2315Z" fill="url(#paint0_linear_84_6465)" data-v-4641417b="">
          </path>
          <path fill-rule="evenodd" clip-rule="evenodd" d="M109.418 59.6642C120.281 59.6642 129.087 50.9306 129.087 40.1572C129.087 29.3838 120.281 20.6502 109.418 20.6502C98.5549 20.6502 89.7487 29.3838 89.7487 40.1572C89.7487 50.9306 98.5549 59.6642 109.418 59.6642ZM109.418 54.4624C117.384 54.4624 123.842 48.0577 123.842 40.1572C123.842 32.2567 117.384 25.8521 109.418 25.8521C101.452 25.8521 94.9938 32.2567 94.9938 40.1572C94.9938 48.0577 101.452 54.4624 109.418 54.4624Z" fill="url(#paint1_linear_84_6465)" data-v-4641417b="">
          </path>
          <path fill-rule="evenodd" clip-rule="evenodd" d="M148.756 51.2112C157.446 51.2112 164.491 44.2243 164.491 35.6056C164.491 26.9869 157.446 20 148.756 20C140.066 20 133.021 26.9869 133.021 35.6056C133.021 44.2243 140.066 51.2112 148.756 51.2112ZM148.756 46.0093C154.55 46.0093 159.246 41.3514 159.246 35.6056C159.246 29.8598 154.55 25.2019 148.756 25.2019C142.962 25.2019 138.266 29.8598 138.266 35.6056C138.266 41.3514 142.962 46.0093 148.756 46.0093Z" fill="url(#paint2_linear_84_6465)" data-v-4641417b="">
          </path>
          <path d="M109.418 42.433C104.173 42.433 100.02 42.9749 98.5998 43.4084C98.9277 44.7089 100.567 48.6103 100.567 48.6103C100.567 48.6103 115.59 45.496 123.842 51.8614C135.643 60.9647 145.478 60.3145 149.412 59.6642C153.346 59.014 158.918 57.0633 162.197 50.8861C165.475 44.7089 164.491 35.6056 164.491 35.6056H162.197L157.607 47.96C157.935 49.5856 153.214 53.9422 146.134 54.4624C137.282 55.1126 132.742 51.0323 127.448 47.6349C121.875 44.0586 115.974 42.433 109.418 42.433Z" fill="url(#paint3_linear_84_6465)" data-v-4641417b="">
          </path>
          <defs data-v-4641417b="">
            <linearGradient id="paint0_linear_84_6465" x1="109.815" y1="20" x2="109.815" y2="60" gradientUnits="userSpaceOnUse" data-v-4641417b="">
              <stop stop-color="#FFC908" data-v-4641417b="">
              </stop>
              <stop offset="1" stop-color="#F57A1F" data-v-4641417b="">
              </stop>
            </linearGradient>
            <linearGradient id="paint1_linear_84_6465" x1="109.815" y1="20" x2="109.815" y2="60" gradientUnits="userSpaceOnUse" data-v-4641417b="">
              <stop stop-color="#FFC908" data-v-4641417b="">
              </stop>
              <stop offset="1" stop-color="#F57A1F" data-v-4641417b="">
              </stop>
            </linearGradient>
            <linearGradient id="paint2_linear_84_6465" x1="109.815" y1="20" x2="109.815" y2="60" gradientUnits="userSpaceOnUse" data-v-4641417b="">
              <stop stop-color="#FFC908" data-v-4641417b="">
              </stop>
              <stop offset="1" stop-color="#F57A1F" data-v-4641417b="">
              </stop>
            </linearGradient>
            <linearGradient id="paint3_linear_84_6465" x1="109.815" y1="20" x2="109.815" y2="60" gradientUnits="userSpaceOnUse" data-v-4641417b="">
              <stop stop-color="#FFC908" data-v-4641417b="">
              </stop>
              <stop offset="1" stop-color="#F57A1F" data-v-4641417b="">
              </stop>
            </linearGradient>
          </defs>
        </svg>