<svg data-v-c4b9aaee="" xmlns="http://www.w3.org/2000/svg" width="57" height="49" fill="none" viewBox="0 0 57 49" class="">
          <path fill="#fff" fill-rule="evenodd" d="M8.939 1.501A4 4 0 0 1 12.062 0h32.155a4 4 0 0 1 3.124 1.501l7.738 9.673c.427.533.749 1.12.968 1.735H.233a5.99 
          5.99 0 0 1 .967-1.735zM0 16.091h56.28a5.985 5.985 0 0 1-1.277 2.673l-23.79 28.549a4 4 0 0 1-6.146 0l-23.79-28.55A5.984 5.984 0 0 1 0 16.092m20.556 
          5.936 7.195 10.102a.5.5 0 0 0 .816-.002l7.118-10.093a2.44 2.44 0 0 1 4.435 1.406v.2h-.223c-.326 0-.782.248-1.304.93-.506.663-6.466 8.724-9.651 
          13.035a.975.975 0 0 1-1.563.007L17.32 24.26s-.394-.62-1.06-.62h-.14v-.195a2.445 2.445 0 0 1 4.436-1.418" clip-rule="evenodd">
          </path>
        </svg>