<svg data-v-4641417b="" width="210" height="80" viewBox="0 0 210 80" fill="none" xmlns="http://www.w3.org/2000/svg">
          <path d="M0 10C0 4.47715 4.47715 0 10 0H200C205.523 0 210 4.47715 210 10V70C210 75.5229 205.523 80 200 80H10C4.47715 80 0 75.5229 0 70V10Z" fill="#2b3270" data-v-4641417b="">
          </path>
          <path d="M48.1543 27.6648H66.1561V31.7176H52.8361V37.6336H61.707V41.6864H52.8361V48.296H66.5668V52.3488H48.1543V27.6648Z" fill="#fff" data-v-4641417b="">
          </path>
          <path d="M66.1562 34.8047H70.9476L75.1366 47.0311L79.0245 34.8047H83.6653L77.2311 52.3487H72.9326L66.1562 34.8047Z" fill="#fff" data-v-4641417b="">
          </path>
          <path d="M83.8154 43.6177C83.8154 38.2593 87.5527 34.4785 92.9053 34.4785C98.2169 34.4785 101.968 38.2729 101.968 43.6177C101.968 48.8945 98.1484 52.6889 92.7958 52.6889C87.4842 52.6889 83.8154 48.9625 83.8154 43.6177ZM97.2586 43.7265V43.5769C97.2586 40.2313 95.6159 38.2185 92.919 38.2185C90.1811 38.2185 88.5383 40.2313 88.5383 43.5769V43.7265C88.5383 47.0041 90.14 48.9353 92.8369 48.9353C95.5748 48.9353 97.2586 46.9905 97.2586 43.7265Z" fill="#fff" data-v-4641417b="">
          </path>
          <path d="M104.966 27.3247H109.648V52.3487H104.966V27.3247Z" fill="#fff" data-v-4641417b="">
          </path>
          <path d="M113.193 45.3175V34.8047H117.834V45.0591C117.834 47.3983 118.957 48.7719 121.051 48.7719C123.488 48.7719 124.501 46.7319 124.501 43.7127V34.8047H129.142V52.3487H124.501V49.8599C123.57 51.6823 121.955 52.6887 119.669 52.6887C115.671 52.6887 113.193 49.8599 113.193 45.3175Z" fill="#fff" data-v-4641417b="">
          </path>
          <path d="M134.262 47.6976V38.5176H131.757V34.8048H134.262V31.4864L138.793 28.9568V34.7912H142.27V38.504H138.752V47.2352C138.752 48.092 139.163 48.4592 140.025 48.5H142.079V52.3352H138.492C135.083 52.1584 134.344 50.608 134.262 47.6976Z" fill="#fff" data-v-4641417b="">
          </path>
          <path d="M145.269 27.7327H150.101V32.2343H145.269V27.7327ZM145.337 34.8047H150.019V52.3487H145.337V34.8047Z" fill="#fff" data-v-4641417b="">
          </path>
          <path d="M153.017 43.6175C153.017 38.2591 156.754 34.4783 162.107 34.4783C167.418 34.4783 171.169 38.2727 171.169 43.6175C171.169 48.8943 167.35 52.6887 161.997 52.6887C156.685 52.6887 153.017 48.9623 153.017 43.6175ZM166.446 43.7263V43.5767C166.446 40.2311 164.803 38.2183 162.107 38.2183C159.369 38.2183 157.726 40.2311 157.726 43.5767V43.7263C157.726 47.0039 159.327 48.9351 162.024 48.9351C164.762 48.9351 166.446 46.9903 166.446 43.7263Z" fill="#fff" data-v-4641417b="">
          </path>
          <path d="M174.126 34.8046H178.767V37.6606C179.698 35.6206 181.423 34.4238 183.928 34.4238C187.788 34.4238 190.061 36.9942 190.061 41.8222V52.3486H185.42V42.0942C185.42 39.6462 184.489 38.3814 182.312 38.3814C180.108 38.3814 178.753 40.163 178.753 43.4406V52.3622H174.112L174.126 34.8046Z" fill="#fff" data-v-4641417b="">
          </path>
          <path d="M37.2297 29.9358C32.9997 24.4006 25.3198 22.8366 18.9404 26.223C21.4319 31.7854 23.2937 38.327 35.5733 38.7078C37.0107 38.7486 38.5987 38.7078 40.3373 38.5718C40.0909 35.0766 38.9409 32.1798 37.2297 29.9358Z" fill="#fff" data-v-4641417b="">
          </path>
          <path d="M34.971 41.3191C27.5786 41.6863 24.1151 44.3519 21.9521 47.6567C20.679 49.6015 19.8576 51.7503 18.9404 53.7767C27.8934 58.5231 39.4611 53.5183 40.3373 41.4143C38.3523 41.2647 36.559 41.2375 34.971 41.3191Z" fill="#fff" data-v-4641417b="">
          </path>
        </svg>