<svg data-v-76c247f8="" xmlns="http://www.w3.org/2000/svg" width="56" height="56" viewBox="0 0 56 56" fill="none" class="wallet">
          <g clip-path="url(#clip0_226_268)">
            <path fill-rule="evenodd" clip-rule="evenodd" d="M49.4884 48.8372H13.6744C11.3784 48.8372 9.48486 47.1383 9.16775 44.9302H46.2326C48.3905 44.9302 50.1396 43.1812 50.1396 41.0233V14.3777C52.3476 14.6942 54.0465 16.5877 54.0465 
              18.8837V44.2791C54.0465 46.7965 52.0058 48.8372 49.4884 48.8372ZM42.3256 41.6744H7.16281C4.64542 41.6744 2.60468 39.6337 2.60468 37.1163V12.3721C2.60468 9.85471 4.64542 7.81396 
              7.16281 7.81396H42.3256C44.843 7.81396 46.8837 9.85471 46.8837 12.3721V37.1163C46.8837 39.6337 44.843 41.6744 42.3256 41.6744ZM10.8158 32.5621H35.1439C37.3116 32.5621 39.0691 
              31.8113 39.0691 29.7054C39.0691 29.4436 38.853 29.234 38.5866 29.234H18.3837C17.6791 29.234 17.1087 28.6798 17.1087 27.9955V25.6734C17.1087 25.5184 16.9804 25.3921 16.8209 
              25.3941C15.3134 25.409 14.7267 26.3487 13.0793 28.5502L10.4186 32.1766C10.4186 32.3888 10.5977 32.5621 10.8158 32.5621ZM38.6719 16.9257H14.3445C12.1761 16.9257 10.4193 17.6771 
              10.4193 19.783C10.4193 20.0448 10.6348 20.2544 10.9018 20.2544H31.1048C31.8087 20.2544 32.3797 20.8086 32.3797 21.4923V23.8143C32.3797 23.97 32.5074 24.0956 32.6676 24.0943C34.175 
              24.0794 34.7617 23.1397 36.4091 20.9382L39.0698 17.3118C39.0698 17.0995 38.8907 16.9257 38.6719 16.9257Z" fill="url(#paint0_linear_226_268)"></path>
          </g>
          <defs>
            <linearGradient id="paint0_linear_226_268" x1="2.60468" y1="48.8372" x2="2.60468" y2="7.81396" gradientUnits="userSpaceOnUse">
              <stop stop-color="#F6F6F6"></stop>
              <stop offset="1" stop-color="#4675d2"></stop>
            </linearGradient>
            <linearGradient id="paint0_linear_226_233" x1="6.5116" y1="52.7442" x2="6.5116" y2="3.90698" gradientUnits="userSpaceOnUse">
              <stop stop-color="#B1835A"></stop>
              <stop offset="1" stop-color="#59b0ea"></stop>
            </linearGradient>
            <clipPath id="clip0_226_268">
              <rect width="56" height="56" fill="white"></rect>
            </clipPath>
          </defs>
        </svg>