<svg width="80" height="80" viewBox="0 0 80 80" fill="none" xmlns="http://www.w3.org/2000/svg">
<g filter="url(#filter0_i_171_3231)">
<path d="M0 20C0 8.95431 8.95431 0 20 0H60C71.0457 0 80 8.95431 80 20V60C80 71.0457 71.0457 80 60 80H20C8.95431 80 0 71.0457 0 60V20Z" fill="url(#paint0_linear_171_3231)"/>
</g>
<mask id="mask0_171_3231" style="mask-type:alpha" maskUnits="userSpaceOnUse" x="0" y="0" width="80" height="80">
<path d="M0 20C0 8.95431 8.95431 0 20 0H60C71.0457 0 80 8.95431 80 20V60C80 71.0457 71.0457 80 60 80H20C8.95431 80 0 71.0457 0 60V20Z" fill="url(#paint1_linear_171_3231)"/>
</mask>
<g mask="url(#mask0_171_3231)">
<circle cx="-5.5" cy="-19.5" r="63.5" fill="url(#paint2_linear_171_3231)" fill-opacity="0.16"/>
<circle cx="63.5" cy="63.5" r="63.5" transform="matrix(1 0 0 -1 -3 159)" fill="url(#paint3_linear_171_3231)" fill-opacity="0.16"/>
</g>
<g filter="url(#filter1_d_171_3231)">
<path d="M53.75 22.5V15H20C19.3096 15 18.75 15.5596 18.75 16.25V57.5H26.25" stroke="white" stroke-width="2" stroke-linecap="round" stroke-linejoin="round" shape-rendering="crispEdges"/>
</g>
<g filter="url(#filter2_d_171_3231)">
<path fill-rule="evenodd" clip-rule="evenodd" d="M57.25 22.5H30.25C28.0409 22.5 26.25 24.2909 26.25 26.5V61C26.25 63.2091 28.0409 65 30.25 65H57.25C59.4591 65 61.25 63.2091 61.25 61V26.5C61.25 24.2909 59.4591 22.5 57.25 22.5ZM35.25 37.5C35.25 36.9477 35.6977 36.5 36.25 36.5H51.25C51.8023 36.5 52.25 36.9477 52.25 37.5C52.25 38.0523 51.8023 38.5 51.25 38.5H36.25C35.6977 38.5 35.25 38.0523 35.25 37.5ZM36.25 46.5C35.6977 46.5 35.25 46.9477 35.25 47.5C35.25 48.0523 35.6977 48.5 36.25 48.5H51.25C51.8023 48.5 52.25 48.0523 52.25 47.5C52.25 46.9477 51.8023 46.5 51.25 46.5H36.25Z" fill="white" fill-opacity="0.8" shape-rendering="crispEdges"/>
</g>
<defs>
<filter id="filter0_i_171_3231" x="0" y="-4" width="80" height="84" filterUnits="userSpaceOnUse" color-interpolation-filters="sRGB">
<feFlood flood-opacity="0" result="BackgroundImageFix"/>
<feBlend mode="normal" in="SourceGraphic" in2="BackgroundImageFix" result="shape"/>
<feColorMatrix in="SourceAlpha" type="matrix" values="0 0 0 0 0 0 0 0 0 0 0 0 0 0 0 0 0 0 127 0" result="hardAlpha"/>
<feOffset dy="-4"/>
<feGaussianBlur stdDeviation="6"/>
<feComposite in2="hardAlpha" operator="arithmetic" k2="-1" k3="1"/>
<feColorMatrix type="matrix" values="0 0 0 0 0 0 0 0 0 0.4095 0 0 0 0 0.7875 0 0 0 1 0"/>
<feBlend mode="normal" in2="shape" result="effect1_innerShadow_171_3231"/>
</filter>
<filter id="filter1_d_171_3231" x="15.75" y="13" width="41" height="48.5" filterUnits="userSpaceOnUse" color-interpolation-filters="sRGB">
<feFlood flood-opacity="0" result="BackgroundImageFix"/>
<feColorMatrix in="SourceAlpha" type="matrix" values="0 0 0 0 0 0 0 0 0 0 0 0 0 0 0 0 0 0 127 0" result="hardAlpha"/>
<feOffset dy="1"/>
<feGaussianBlur stdDeviation="1"/>
<feComposite in2="hardAlpha" operator="out"/>
<feColorMatrix type="matrix" values="0 0 0 0 0.396078 0 0 0 0 0.67451 0 0 0 0 1 0 0 0 0.5 0"/>
<feBlend mode="normal" in2="BackgroundImageFix" result="effect1_dropShadow_171_3231"/>
<feBlend mode="normal" in="SourceGraphic" in2="effect1_dropShadow_171_3231" result="shape"/>
</filter>
<filter id="filter2_d_171_3231" x="24.25" y="21.5" width="39" height="46.5" filterUnits="userSpaceOnUse" color-interpolation-filters="sRGB">
<feFlood flood-opacity="0" result="BackgroundImageFix"/>
<feColorMatrix in="SourceAlpha" type="matrix" values="0 0 0 0 0 0 0 0 0 0 0 0 0 0 0 0 0 0 127 0" result="hardAlpha"/>
<feOffset dy="1"/>
<feGaussianBlur stdDeviation="1"/>
<feComposite in2="hardAlpha" operator="out"/>
<feColorMatrix type="matrix" values="0 0 0 0 0.184314 0 0 0 0 0.666667 0 0 0 0 0.890196 0 0 0 1 0"/>
<feBlend mode="normal" in2="BackgroundImageFix" result="effect1_dropShadow_171_3231"/>
<feBlend mode="normal" in="SourceGraphic" in2="effect1_dropShadow_171_3231" result="shape"/>
</filter>
<linearGradient id="paint0_linear_171_3231" x1="40" y1="0" x2="40" y2="80" gradientUnits="userSpaceOnUse">
<stop stop-color="#4DE4F0"/>
<stop offset="1" stop-color="#4DB7F9"/>
</linearGradient>
<linearGradient id="paint1_linear_171_3231" x1="40" y1="0" x2="40" y2="80" gradientUnits="userSpaceOnUse">
<stop stop-color="#A061F9"/>
<stop offset="1" stop-color="#CD5FF6"/>
</linearGradient>
<linearGradient id="paint2_linear_171_3231" x1="-1.09537" y1="41.4306" x2="-18.7139" y2="-33.0809" gradientUnits="userSpaceOnUse">
<stop stop-color="white"/>
<stop offset="1" stop-color="white" stop-opacity="0"/>
</linearGradient>
<linearGradient id="paint3_linear_171_3231" x1="76.0179" y1="121.765" x2="58.948" y2="85.3495" gradientUnits="userSpaceOnUse">
<stop stop-color="white"/>
<stop offset="1" stop-color="white" stop-opacity="0"/>
</linearGradient>
</defs>
</svg>
