<svg version="1.1" id="Layer_1" xmlns="http://www.w3.org/2000/svg" xmlns:xlink="http://www.w3.org/1999/xlink" x="0px" y="0px"
	 width="100%" viewBox="0 0 640 640" enable-background="new 0 0 640 640" xml:space="preserve">
<path fill="#1DE4A5" opacity="1.000000" stroke="none" 
	d="
M641.000000,284.000000 
	C641.000000,308.354218 641.000000,332.708466 640.630493,357.265503 
	C639.843994,358.312225 639.212708,359.115021 639.041931,360.006073 
	C636.167053,375.003693 634.381775,390.304047 630.244690,404.940796 
	C625.611572,421.332458 619.540771,437.417419 612.817505,453.087463 
	C607.349792,465.831421 600.744873,478.244720 593.278564,489.932220 
	C584.884827,503.071564 575.234680,515.447266 565.627869,527.762573 
	C554.118164,542.517151 540.729858,555.497498 525.946777,566.766724 
	C524.991760,565.698547 524.242249,564.706543 523.251038,564.291199 
	C506.987488,557.473877 490.977051,549.900940 474.326752,544.200684 
	C457.590942,538.471130 446.386505,528.923584 443.077698,510.983948 
	C440.366791,496.285767 436.923950,481.721802 434.276031,467.013641 
	C433.869873,464.757599 435.563049,461.745575 437.034210,459.595612 
	C443.117554,450.705261 450.923523,442.686981 455.436218,433.096497 
	C463.265289,416.457916 465.864288,398.121918 467.879333,379.907990 
	C468.403503,375.170105 469.849304,372.267456 474.804626,372.103485 
	C481.283081,371.889038 485.240875,368.317749 487.636353,362.691498 
	C492.452667,351.379578 497.410706,340.119690 501.874756,328.668549 
	C506.080353,317.880341 503.191498,306.739258 490.001343,301.832001 
	C505.064545,269.175568 512.313538,235.111801 507.040588,197.531021 
	C510.135712,200.846390 512.159851,203.014618 514.714539,205.751053 
	C514.842712,203.533920 515.109375,202.220840 514.963196,200.955429 
	C512.901184,183.103546 510.553101,165.308975 503.762604,148.462540 
	C499.923279,138.937683 495.026642,130.182602 486.657318,123.771385 
	C473.917236,114.012024 458.885101,111.682663 443.215393,110.179771 
	C432.554016,104.819801 421.393555,102.719414 409.597412,101.323906 
	C404.455719,100.421318 399.727356,99.659996 394.757660,98.662689 
	C387.313934,94.282364 380.088348,90.177719 372.914490,85.984566 
	C361.478058,79.299904 349.626160,73.824921 335.858002,72.763092 
	C325.053741,61.484386 311.816498,57.952801 296.640686,58.647823 
	C280.468872,59.640949 267.273895,67.420204 253.629211,74.993126 
	C250.679657,76.830627 247.980530,78.473015 245.475449,80.371490 
	C228.587982,93.169563 215.607925,109.463409 203.614548,127.015839 
	C184.665115,133.257248 173.391693,146.287109 168.184448,164.833221 
	C163.971344,179.838593 164.254837,195.090958 166.447968,210.346603 
	C170.512756,238.621826 180.602554,264.914856 192.975464,290.688293 
	C192.543640,291.822235 192.256210,292.654633 191.580048,293.558075 
	C180.413162,296.339722 175.376480,306.447144 179.526291,318.550232 
	C182.973541,328.604279 187.382462,338.325073 191.215332,348.251434 
	C195.060989,358.210968 201.525375,364.329346 212.907837,364.178253 
	C214.341858,373.653687 215.513824,382.727264 217.153610,391.715515 
	C220.667572,410.977051 226.755173,429.071106 241.297516,443.227234 
	C246.176834,447.976990 250.746948,453.044403 255.353638,458.390411 
	C252.479599,472.827209 249.723526,486.842865 246.937515,500.852539 
	C243.945221,515.899353 236.554031,527.686096 221.727234,534.202881 
	C220.868454,534.317078 220.371399,534.397400 219.906097,534.565613 
	C187.989624,546.109436 156.071915,557.649841 124.176918,569.252686 
	C123.034431,569.668274 122.118034,570.705383 120.806732,571.223389 
	C117.304550,568.472900 113.927422,566.133545 110.906769,563.400330 
	C95.047432,549.050049 79.965004,533.929626 67.018028,516.853027 
	C54.964676,500.955048 44.477291,484.136871 35.387806,466.267334 
	C25.361050,446.555176 17.171854,426.260132 11.646699,404.958832 
	C8.321424,392.138794 6.572711,378.914246 3.918730,365.911682 
	C3.428366,363.509277 1.997024,361.298981 0.999997,359.000000 
	C1.000000,333.979095 1.000000,308.958221 1.373447,283.709320 
	C2.500550,279.054749 3.018071,274.572174 4.051814,270.211975 
	C7.245915,256.739746 10.303193,243.220032 14.061724,229.901642 
	C16.838020,220.063812 19.998806,210.234634 24.114944,200.898315 
	C30.182735,187.135208 37.188850,173.782043 43.911572,160.312302 
	C52.946220,142.210388 65.311600,126.351654 78.454498,111.198463 
	C92.577637,94.915092 108.098946,79.949860 125.358017,66.910316 
	C141.206619,54.936413 157.862167,44.417542 175.674789,35.407295 
	C195.414246,25.422390 215.696915,17.183035 237.010117,11.663116 
	C249.837418,8.340971 263.064331,6.578585 276.071503,3.918995 
	C278.479309,3.426672 280.695404,1.997032 283.000000,1.000000 
	C308.020905,1.000000 333.041779,1.000000 358.275330,1.368330 
	C359.330627,2.154736 360.134064,2.803540 361.022125,2.954534 
	C368.388000,4.206909 375.841431,5.039229 383.128723,6.635953 
	C392.922119,8.781789 402.644501,11.305780 412.297333,14.022899 
	C421.100616,16.500881 429.996826,18.898115 438.439575,22.342096 
	C448.114319,26.288633 457.530396,30.991592 466.704712,36.012939 
	C479.418182,42.971352 492.223755,49.905518 504.226868,57.983818 
	C522.121582,70.027306 538.160278,84.358673 553.145020,99.979485 
	C566.206238,113.595154 577.882751,128.238190 588.223694,143.892120 
	C594.977356,154.115723 600.285645,165.284363 606.461487,175.901657 
	C617.181763,194.331726 624.112366,214.347900 629.739258,234.677307 
	C634.010193,250.107559 635.980774,266.172668 639.074890,281.935730 
	C639.228699,282.719604 640.336426,283.316223 641.000000,284.000000 
z"/>
<path fill="#063F4C" opacity="1.000000" stroke="none" 
	d="
M121.096268,571.452820 
	C122.118034,570.705383 123.034431,569.668274 124.176918,569.252686 
	C156.071915,557.649841 187.989624,546.109436 219.906097,534.565613 
	C220.371399,534.397400 220.868454,534.317078 221.890915,534.474854 
	C227.442352,538.574158 232.106369,542.996338 237.520065,546.118835 
	C278.762726,569.906921 322.746765,573.287476 368.208771,562.204895 
	C389.684784,556.969482 408.959259,547.014221 424.776917,530.630188 
	C427.218201,531.132751 429.462494,531.609070 431.554382,532.460083 
	C455.994629,542.402466 480.411591,552.402039 504.835602,562.384277 
	C510.609558,564.744080 516.386963,567.095398 522.049927,569.808960 
	C521.154358,571.016174 520.503906,572.064453 519.569275,572.684326 
	C503.761963,583.168945 488.362335,594.368286 471.961426,603.830383 
	C455.113586,613.550354 436.905151,620.647217 418.275116,626.477417 
	C401.236053,631.809631 383.953033,635.947144 366.203949,638.132935 
	C363.394226,638.478943 360.730957,640.014465 358.000000,641.000000 
	C333.645782,641.000000 309.291534,641.000000 284.419250,640.611572 
	C282.893097,639.815125 281.919403,639.243286 280.871826,639.023254 
	C262.783295,635.224548 244.402512,632.470459 226.661148,627.452942 
	C204.067551,621.063171 182.395706,611.763916 162.331635,599.434448 
	C148.193619,590.746643 134.814316,580.824097 121.096268,571.452820 
z"/>
<path fill="#000000" opacity="1.000000" stroke="none" 
	d="
M358.468658,641.000000 
	C360.730957,640.014465 363.394226,638.478943 366.203949,638.132935 
	C383.953033,635.947144 401.236053,631.809631 418.275116,626.477417 
	C436.905151,620.647217 455.113586,613.550354 471.961426,603.830383 
	C488.362335,594.368286 503.761963,583.168945 519.569275,572.684326 
	C520.503906,572.064453 521.154358,571.016174 522.351440,569.893555 
	C523.857178,568.783630 524.948547,567.947449 526.039856,567.111206 
	C540.729858,555.497498 554.118164,542.517151 565.627869,527.762573 
	C575.234680,515.447266 584.884827,503.071564 593.278564,489.932220 
	C600.744873,478.244720 607.349792,465.831421 612.817505,453.087463 
	C619.540771,437.417419 625.611572,421.332458 630.244690,404.940796 
	C634.381775,390.304047 636.167053,375.003693 639.041931,360.006073 
	C639.212708,359.115021 639.843994,358.312225 640.630493,357.734192 
	C641.000000,452.260406 641.000000,546.520813 641.000000,641.000000 
	C546.979248,641.000000 452.958282,641.000000 358.468658,641.000000 
z"/>
<path fill="#000000" opacity="1.000000" stroke="none" 
	d="
M641.000000,283.531372 
	C640.336426,283.316223 639.228699,282.719604 639.074890,281.935730 
	C635.980774,266.172668 634.010193,250.107559 629.739258,234.677307 
	C624.112366,214.347900 617.181763,194.331726 606.461487,175.901657 
	C600.285645,165.284363 594.977356,154.115723 588.223694,143.892120 
	C577.882751,128.238190 566.206238,113.595154 553.145020,99.979485 
	C538.160278,84.358673 522.121582,70.027306 504.226868,57.983818 
	C492.223755,49.905518 479.418182,42.971352 466.704712,36.012939 
	C457.530396,30.991592 448.114319,26.288633 438.439575,22.342096 
	C429.996826,18.898115 421.100616,16.500881 412.297333,14.022899 
	C402.644501,11.305780 392.922119,8.781789 383.128723,6.635953 
	C375.841431,5.039229 368.388000,4.206909 361.022125,2.954534 
	C360.134064,2.803540 359.330627,2.154736 358.743988,1.368330 
	C452.927155,1.000000 546.854309,1.000000 641.000000,1.000000 
	C641.000000,95.020782 641.000000,189.041733 641.000000,283.531372 
z"/>
<path fill="#000000" opacity="1.000000" stroke="none" 
	d="
M120.806732,571.223389 
	C134.814316,580.824097 148.193619,590.746643 162.331635,599.434448 
	C182.395706,611.763916 204.067551,621.063171 226.661148,627.452942 
	C244.402512,632.470459 262.783295,635.224548 280.871826,639.023254 
	C281.919403,639.243286 282.893097,639.815125 283.950592,640.611572 
	C189.739731,641.000000 95.479469,641.000000 1.000000,641.000000 
	C1.000000,547.312561 1.000000,453.624939 0.999997,359.468658 
	C1.997024,361.298981 3.428366,363.509277 3.918730,365.911682 
	C6.572711,378.914246 8.321424,392.138794 11.646699,404.958832 
	C17.171854,426.260132 25.361050,446.555176 35.387806,466.267334 
	C44.477291,484.136871 54.964676,500.955048 67.018028,516.853027 
	C79.965004,533.929626 95.047432,549.050049 110.906769,563.400330 
	C113.927422,566.133545 117.304550,568.472900 120.806732,571.223389 
z"/>
<path fill="#000000" opacity="1.000000" stroke="none" 
	d="
M282.531342,1.000000 
	C280.695404,1.997032 278.479309,3.426672 276.071503,3.918995 
	C263.064331,6.578585 249.837418,8.340971 237.010117,11.663116 
	C215.696915,17.183035 195.414246,25.422390 175.674789,35.407295 
	C157.862167,44.417542 141.206619,54.936413 125.358017,66.910316 
	C108.098946,79.949860 92.577637,94.915092 78.454498,111.198463 
	C65.311600,126.351654 52.946220,142.210388 43.911572,160.312302 
	C37.188850,173.782043 30.182735,187.135208 24.114944,200.898315 
	C19.998806,210.234634 16.838020,220.063812 14.061724,229.901642 
	C10.303193,243.220032 7.245915,256.739746 4.051814,270.211975 
	C3.018071,274.572174 2.500550,279.054749 1.373447,283.240662 
	C1.000000,189.072937 1.000000,95.145889 1.000000,1.000000 
	C94.687447,1.000000 188.375061,1.000000 282.531342,1.000000 
z"/>
<path fill="#0FD496" opacity="1.000000" stroke="none" 
	d="
M525.946777,566.766724 
	C524.948547,567.947449 523.857178,568.783630 522.464355,569.535278 
	C516.386963,567.095398 510.609558,564.744080 504.835602,562.384277 
	C480.411591,552.402039 455.994629,542.402466 431.554382,532.460083 
	C429.462494,531.609070 427.218201,531.132751 424.551514,530.367065 
	C415.386047,524.801208 410.085205,516.923889 407.380585,507.156250 
	C405.885620,501.757233 404.329437,496.375214 402.812927,490.594574 
	C400.624908,478.435516 398.424835,466.667358 396.402405,454.579285 
	C397.392181,453.212219 398.102966,452.064026 399.031586,451.133118 
	C414.892761,435.233307 423.569336,415.844879 427.028412,393.874054 
	C428.628082,383.713531 430.391174,373.578705 432.466400,363.453491 
	C439.198547,362.940277 445.919067,362.857971 448.982269,355.800568 
	C454.672333,342.691101 460.786530,329.703644 465.418304,316.216949 
	C469.019562,305.730957 463.380188,296.419159 453.915771,293.441345 
	C453.152954,292.104431 452.243469,291.143433 451.531860,289.845947 
	C466.527008,257.466339 474.254364,224.158386 469.625854,187.624146 
	C472.583313,191.167725 474.982422,194.042313 477.381561,196.916916 
	C477.901947,196.723190 478.422363,196.529465 478.942749,196.335739 
	C476.169281,181.325943 474.005188,166.170471 470.460571,151.345047 
	C466.466827,134.640961 458.891876,119.775925 443.551697,110.259491 
	C458.885101,111.682663 473.917236,114.012024 486.657318,123.771385 
	C495.026642,130.182602 499.923279,138.937683 503.762604,148.462540 
	C510.553101,165.308975 512.901184,183.103546 514.963196,200.955429 
	C515.109375,202.220840 514.842712,203.533920 514.714539,205.751053 
	C512.159851,203.014618 510.135712,200.846390 507.040588,197.531021 
	C512.313538,235.111801 505.064545,269.175568 490.001343,301.832001 
	C503.191498,306.739258 506.080353,317.880341 501.874756,328.668549 
	C497.410706,340.119690 492.452667,351.379578 487.636353,362.691498 
	C485.240875,368.317749 481.283081,371.889038 474.804626,372.103485 
	C469.849304,372.267456 468.403503,375.170105 467.879333,379.907990 
	C465.864288,398.121918 463.265289,416.457916 455.436218,433.096497 
	C450.923523,442.686981 443.117554,450.705261 437.034210,459.595612 
	C435.563049,461.745575 433.869873,464.757599 434.276031,467.013641 
	C436.923950,481.721802 440.366791,496.285767 443.077698,510.983948 
	C446.386505,528.923584 457.590942,538.471130 474.326752,544.200684 
	C490.977051,549.900940 506.987488,557.473877 523.251038,564.291199 
	C524.242249,564.706543 524.991760,565.698547 525.946777,566.766724 
z"/>
<path fill="#EDA97A" opacity="1.000000" stroke="none" 
	d="
M402.800873,490.985535 
	C404.329437,496.375214 405.885620,501.757233 407.380585,507.156250 
	C410.085205,516.923889 415.386047,524.801208 424.283722,530.514893 
	C408.959259,547.014221 389.684784,556.969482 368.208771,562.204895 
	C322.746765,573.287476 278.762726,569.906921 237.520065,546.118835 
	C232.106369,542.996338 227.442352,538.574158 222.267426,534.481934 
	C236.554031,527.686096 243.945221,515.899353 246.937515,500.852539 
	C249.723526,486.842865 252.479599,472.827209 255.644058,458.512146 
	C262.362518,463.591125 268.337219,469.466888 275.096436,474.229156 
	C283.728912,480.311157 292.994629,485.494354 302.086487,491.392853 
	C303.509399,492.654877 304.717102,494.121063 306.175323,494.439240 
	C318.273468,497.078979 330.320801,500.710938 342.572479,501.698914 
	C358.513977,502.984406 374.195618,499.524597 389.425568,494.453491 
	C393.785522,493.001740 398.337158,492.125610 402.800873,490.985535 
z"/>
<path fill="#50301D" opacity="1.000000" stroke="none" 
	d="
M443.215393,110.179771 
	C458.891876,119.775925 466.466827,134.640961 470.460571,151.345047 
	C474.005188,166.170471 476.169281,181.325943 478.942749,196.335739 
	C478.422363,196.529465 477.901947,196.723190 477.381561,196.916916 
	C474.982422,194.042313 472.583313,191.167725 469.625854,187.624146 
	C474.254364,224.158386 466.527008,257.466339 451.343658,290.086975 
	C446.313202,292.497223 441.668823,294.329956 436.993652,295.706787 
	C436.413940,280.194336 432.875854,265.725800 428.730255,251.320984 
	C426.630096,244.023529 424.669281,236.513977 424.107727,228.991165 
	C423.468994,220.433853 420.912842,213.500336 413.795715,208.143280 
	C411.923187,204.237518 408.755859,200.793594 408.478851,197.131027 
	C407.867065,189.042938 408.769165,180.845963 408.935150,172.690994 
	C409.014862,168.773636 408.854187,164.850067 408.750641,160.930679 
	C408.625732,156.203110 408.282898,151.475525 408.325958,146.750580 
	C408.401794,138.427841 408.938507,130.103912 408.828217,121.786499 
	C408.737793,114.963112 407.702362,108.132904 410.010773,101.465172 
	C421.393555,102.719414 432.554016,104.819801 443.215393,110.179771 
z"/>
<path fill="#4E2F1D" opacity="1.000000" stroke="none" 
	d="
M193.119843,290.386780 
	C180.602554,264.914856 170.512756,238.621826 166.447968,210.346603 
	C164.254837,195.090958 163.971344,179.838593 168.184448,164.833221 
	C173.391693,146.287109 184.665115,133.257248 203.619278,127.449600 
	C204.744186,141.840012 210.768463,153.698441 219.714554,164.039108 
	C226.073853,171.389786 233.235992,178.045914 240.036331,185.463120 
	C239.841156,189.065338 239.794678,192.233200 239.433670,195.364807 
	C237.428818,212.756897 230.624817,228.388184 221.351105,242.988632 
	C213.685135,255.057877 209.304245,268.104279 208.283340,282.319611 
	C207.963776,286.769196 207.714966,291.223846 207.086777,295.459534 
	C202.199799,293.624176 197.659821,292.005463 193.119843,290.386780 
z"/>
<path fill="#AC7653" opacity="1.000000" stroke="none" 
	d="
M301.987427,491.064941 
	C292.994629,485.494354 283.728912,480.311157 275.096436,474.229156 
	C268.337219,469.466888 262.362518,463.591125 255.748840,458.088348 
	C250.746948,453.044403 246.176834,447.976990 241.297516,443.227234 
	C226.755173,429.071106 220.667572,410.977051 217.153610,391.715515 
	C215.513824,382.727264 214.341858,373.653687 212.898651,363.798431 
	C212.358017,360.210632 211.835068,357.449677 211.402145,354.674652 
	C209.238266,340.803772 207.097992,326.929230 205.232559,313.104553 
	C206.573105,313.036987 207.630508,312.920868 208.732285,313.271240 
	C209.180099,318.200165 209.417999,322.684784 210.015152,327.121094 
	C212.878265,348.390961 216.383377,369.569702 224.251831,389.644806 
	C226.424255,395.187408 229.782913,400.977844 234.208130,404.779633 
	C244.110855,413.287476 257.853699,411.345367 267.345184,401.319611 
	C269.964264,398.553040 272.253052,395.402924 275.160736,392.992523 
	C288.774628,381.706604 305.214783,379.850891 322.051453,379.799072 
	C321.717957,386.136383 321.357025,392.081299 320.594482,398.117371 
	C318.073547,398.466827 315.944489,398.663391 313.836517,398.994080 
	C304.153442,400.513306 294.030273,399.969696 284.800537,405.131927 
	C283.980347,405.765869 283.468506,406.350647 282.674591,407.140747 
	C281.244110,409.524841 279.611298,411.582428 279.030487,413.903259 
	C276.418610,424.339569 282.121216,431.387054 289.378418,437.541748 
	C299.045013,445.739746 310.648712,448.909241 322.993286,450.451904 
	C322.672272,465.142365 322.349091,479.365723 321.621033,493.666687 
	C314.806610,492.851135 308.397003,491.958008 301.987427,491.064941 
z"/>
<path fill="#54321F" opacity="1.000000" stroke="none" 
	d="
M409.597412,101.323906 
	C407.702362,108.132904 408.737793,114.963112 408.828217,121.786499 
	C408.938507,130.103912 408.401794,138.427841 408.325958,146.750580 
	C408.282898,151.475525 408.625732,156.203110 408.750641,160.930679 
	C408.854187,164.850067 409.014862,168.773636 408.935150,172.690994 
	C408.769165,180.845963 407.867065,189.042938 408.478851,197.131027 
	C408.755859,200.793594 411.923187,204.237518 413.451324,208.004333 
	C409.907227,206.934937 406.797455,205.136871 403.457153,204.433777 
	C386.571014,200.879501 370.250244,202.186279 355.005249,211.001984 
	C355.023987,211.029282 355.058502,211.085754 354.830902,210.739990 
	C356.587341,206.336227 358.571381,202.278214 360.314880,198.712204 
	C351.785187,200.012054 342.394592,201.443100 332.928101,202.525452 
	C330.787079,193.548752 329.150024,184.957367 335.392029,176.936157 
	C345.070862,174.331345 354.681213,172.593185 363.564423,169.038239 
	C372.390167,165.506302 380.719330,160.510498 388.734039,155.332825 
	C390.727417,154.045044 391.812225,149.288193 391.148132,146.676849 
	C390.707672,144.944962 386.517120,143.574066 383.823120,143.118454 
	C375.522217,141.714462 367.770386,144.617462 359.695251,146.772247 
	C356.331543,145.841064 352.379089,146.353943 352.382111,141.462112 
	C352.384674,137.357925 352.413300,133.253357 352.478394,129.149704 
	C352.611298,120.769661 352.750946,112.389572 352.936920,104.010590 
	C353.070435,97.995018 351.696594,92.786453 346.681549,88.719444 
	C345.449646,87.720436 345.720215,84.868729 345.623474,82.958862 
	C360.652222,93.424255 377.815094,96.194000 394.998993,98.898666 
	C399.727356,99.659996 404.455719,100.421318 409.597412,101.323906 
z"/>
<path fill="#573420" opacity="1.000000" stroke="none" 
	d="
M345.300079,82.868774 
	C345.720215,84.868729 345.449646,87.720436 346.681549,88.719444 
	C351.696594,92.786453 353.070435,97.995018 352.936920,104.010590 
	C352.750946,112.389572 352.611298,120.769661 352.478394,129.149704 
	C352.413300,133.253357 352.384674,137.357925 352.382111,141.462112 
	C352.379089,146.353943 356.331543,145.841064 359.460876,147.022217 
	C346.648895,154.815308 332.763611,158.156174 317.580139,158.006104 
	C315.776337,158.000366 314.388672,157.996719 312.895203,157.665680 
	C311.192139,157.227249 309.594971,157.116226 307.748352,157.004242 
	C307.498901,157.003265 307.000000,156.998489 306.826324,156.701447 
	C303.419861,153.586411 301.519714,150.802856 302.651459,145.781982 
	C303.653412,141.336868 302.324158,136.390396 302.202118,131.660690 
	C302.092468,127.413094 302.176453,123.158287 302.261139,118.908379 
	C302.423676,110.753456 302.822357,102.599182 302.796265,94.445686 
	C302.770172,86.292488 302.194702,78.140236 302.212952,69.988358 
	C302.216858,68.228584 303.728485,66.472191 304.915039,64.714439 
	C313.495087,67.392639 321.705688,70.070656 330.554474,72.956818 
	C321.235626,62.795399 309.278259,61.422031 297.001312,60.626961 
	C297.010620,59.819939 297.019531,59.282082 297.028442,58.744221 
	C311.816498,57.952801 325.053741,61.484386 335.972351,73.073021 
	C339.343414,76.670998 342.321747,79.769882 345.300079,82.868774 
z"/>
<path fill="#5B3621" opacity="1.000000" stroke="none" 
	d="
M296.640686,58.647823 
	C297.019531,59.282082 297.010620,59.819939 296.580231,60.717308 
	C292.063843,61.682854 287.968964,62.288887 283.760468,62.911732 
	C290.900635,63.530937 297.723114,64.122597 304.545624,64.714249 
	C303.728485,66.472191 302.216858,68.228584 302.212952,69.988358 
	C302.194702,78.140236 302.770172,86.292488 302.796265,94.445686 
	C302.822357,102.599182 302.423676,110.753456 302.261139,118.908379 
	C302.176453,123.158287 302.092468,127.413094 302.202118,131.660690 
	C302.324158,136.390396 303.653412,141.336868 302.651459,145.781982 
	C301.519714,150.802856 303.419861,153.586411 306.385284,156.703217 
	C303.001434,156.664505 299.794586,156.685532 296.784180,155.927017 
	C284.157410,152.745544 271.589447,149.330627 258.923523,145.624390 
	C258.231110,142.730179 257.175049,140.229080 257.081055,137.692337 
	C256.790436,129.850769 256.883514,121.995407 256.795349,114.145767 
	C256.705566,106.154724 256.850220,98.147621 256.368164,90.179253 
	C256.058594,85.062019 254.801682,80.002106 253.969421,74.916496 
	C267.273895,67.420204 280.468872,59.640949 296.640686,58.647823 
z"/>
<path fill="#5E3822" opacity="1.000000" stroke="none" 
	d="
M253.629211,74.993126 
	C254.801682,80.002106 256.058594,85.062019 256.368164,90.179253 
	C256.850220,98.147621 256.705566,106.154724 256.795349,114.145767 
	C256.883514,121.995407 256.790436,129.850769 257.081055,137.692337 
	C257.175049,140.229080 258.231110,142.730179 258.538391,145.606308 
	C243.074295,140.233246 227.918854,134.501465 212.763412,128.769669 
	C216.596985,133.256210 220.500687,137.563522 225.091934,140.934357 
	C235.886673,148.859726 247.009811,156.337753 257.741699,164.230972 
	C253.510376,165.864761 253.630127,169.084564 253.613190,172.507553 
	C253.580994,179.010818 253.222031,185.512466 252.651154,191.960693 
	C248.215622,189.608414 244.127716,187.310211 240.039810,185.012024 
	C233.235992,178.045914 226.073853,171.389786 219.714554,164.039108 
	C210.768463,153.698441 204.744186,141.840012 203.983673,127.387962 
	C215.607925,109.463409 228.587982,93.169563 245.475449,80.371490 
	C247.980530,78.473015 250.679657,76.830627 253.629211,74.993126 
z"/>
<path fill="#FCF7F3" opacity="1.000000" stroke="none" 
	d="
M192.975464,290.688293 
	C197.659821,292.005463 202.199799,293.624176 207.282928,295.630920 
	C212.549393,299.194061 217.272705,302.369141 222.158356,305.653381 
	C230.950333,286.434052 245.660980,275.357422 267.059570,276.414062 
	C288.391113,277.467377 302.034058,289.863068 308.819122,309.565094 
	C313.866791,308.928986 318.448669,308.351593 323.472076,307.842194 
	C328.471375,308.422272 333.029114,308.934387 337.904327,309.482178 
	C338.396851,308.293732 338.976227,306.955963 339.509216,305.599945 
	C344.081055,293.968536 351.986847,285.488464 363.351959,280.228851 
	C364.639862,279.632812 365.775726,278.708160 366.991211,277.956299 
	C367.000305,277.976685 366.963470,277.959473 367.320099,278.098145 
	C368.864014,277.857605 370.051300,277.478424 371.617798,277.018799 
	C374.579956,276.593872 377.162903,276.249451 380.187012,276.041199 
	C401.732117,276.550018 416.191681,286.924927 424.721558,305.954437 
	C429.048065,302.510986 433.036255,299.336823 437.024445,296.162659 
	C441.668823,294.329956 446.313202,292.497223 451.145752,290.423462 
	C452.243469,291.143433 453.152954,292.104431 453.558350,293.472351 
	C451.412842,294.308533 449.771484,294.737793 447.765350,295.247681 
	C443.877991,297.176697 440.355377,299.025177 436.509399,300.968689 
	C433.663727,303.223663 430.737152,305.072693 428.755951,307.648804 
	C427.348938,309.478241 426.320496,312.423462 426.653931,314.640411 
	C430.380188,339.416229 411.793884,363.967377 387.478455,366.031067 
	C359.669586,368.391327 337.181091,349.010101 336.837341,322.387207 
	C336.706909,312.287109 336.333771,311.910431 325.950562,311.618530 
	C324.957184,311.590576 323.959412,311.720276 322.518921,311.719543 
	C321.076233,311.693756 320.076477,311.696320 319.080780,311.761169 
	C310.193481,312.340027 310.036652,312.551758 309.984009,321.281830 
	C309.899689,335.268127 304.590088,347.068024 293.810364,355.823547 
	C278.661896,368.127350 261.617981,370.122894 244.310043,361.297821 
	C226.519379,352.226562 218.733154,336.833282 219.930069,316.903290 
	C220.400848,309.064301 216.435669,303.557465 208.395126,300.558197 
	C204.161270,298.357483 200.039352,296.507172 195.641693,294.447327 
	C194.233566,293.987549 193.101181,293.737305 191.968781,293.487061 
	C192.256210,292.654633 192.543640,291.822235 192.975464,290.688293 
M281.882507,283.421997 
	C280.789978,283.016815 279.713745,282.559265 278.602539,282.214264 
	C261.163971,276.800232 245.794113,280.411316 233.633591,294.007141 
	C222.150528,306.845581 220.170273,321.980408 226.598541,337.817078 
	C232.852722,353.224884 248.582504,363.083527 265.345337,362.948792 
	C284.267365,362.796692 300.920929,349.376251 305.394440,330.674744 
	C309.890045,311.880798 300.633636,292.848450 281.882507,283.421997 
M352.422729,291.928101 
	C342.302185,302.543427 338.325897,315.036316 341.050232,329.518860 
	C345.437073,352.838959 369.029480,367.464783 392.512817,361.467926 
	C415.230865,355.666534 428.755432,331.387054 421.669373,309.125824 
	C412.208588,279.404266 376.314972,270.160370 352.422729,291.928101 
z"/>
<path fill="#EBA97A" opacity="1.000000" stroke="none" 
	d="
M191.580048,293.558075 
	C193.101181,293.737305 194.233566,293.987549 195.655380,294.833344 
	C198.946350,301.304596 201.947891,307.180298 204.949432,313.055969 
	C207.097992,326.929230 209.238266,340.803772 211.402145,354.674652 
	C211.835068,357.449677 212.358017,360.210632 212.848633,363.357910 
	C201.525375,364.329346 195.060989,358.210968 191.215332,348.251434 
	C187.382462,338.325073 182.973541,328.604279 179.526291,318.550232 
	C175.376480,306.447144 180.413162,296.339722 191.580048,293.558075 
z"/>
<path fill="#10D193" opacity="1.000000" stroke="none" 
	d="
M345.623474,82.958870 
	C342.321747,79.769882 339.343414,76.670998 336.250732,73.262184 
	C349.626160,73.824921 361.478058,79.299904 372.914490,85.984566 
	C380.088348,90.177719 387.313934,94.282364 394.757660,98.662689 
	C377.815094,96.194000 360.652222,93.424255 345.623474,82.958870 
z"/>
<path fill="#A66F4D" opacity="1.000000" stroke="none" 
	d="
M320.996094,398.026245 
	C321.357025,392.081299 321.717957,386.136383 322.294220,379.694275 
	C322.674805,379.137970 322.840088,379.078796 323.460999,379.038818 
	C328.717896,379.363129 333.545441,379.447205 338.315643,380.014069 
	C353.702820,381.842560 368.105347,386.092010 378.252686,398.850189 
	C382.439850,404.114685 387.838806,407.009338 393.974640,408.750031 
	C403.465302,411.442535 413.252930,407.459290 417.547333,398.574188 
	C420.631195,392.193634 423.455536,385.431580 424.830139,378.528015 
	C429.302246,356.068573 433.054840,333.465881 437.385010,310.918274 
	C438.278687,310.842743 438.871796,310.767212 439.543152,311.102844 
	C439.225067,314.457092 438.858215,317.404541 438.427368,320.342621 
	C436.320984,334.707214 434.197601,349.069275 432.080200,363.432251 
	C430.391174,373.578705 428.628082,383.713531 427.028412,393.874054 
	C423.569336,415.844879 414.892761,435.233307 399.031586,451.133118 
	C398.102966,452.064026 397.392181,453.212219 396.133240,454.709900 
	C388.480865,461.566101 381.280762,467.977783 374.068573,474.375916 
	C359.221130,487.547577 341.831024,493.841461 322.025879,493.589081 
	C322.349091,479.365723 322.672272,465.142365 322.961151,450.383850 
	C322.926849,449.848724 322.886017,449.703857 323.332581,449.778412 
	C327.075623,449.554016 330.425262,449.531128 333.659210,448.907867 
	C346.939117,446.348694 358.837250,441.008392 366.858765,429.640045 
	C375.915680,416.804321 371.497803,405.047699 356.123871,402.203888 
	C345.257568,400.193909 334.055695,399.998199 322.799683,398.793579 
	C322.062531,398.405151 321.529297,398.215698 320.996094,398.026245 
z"/>
<path fill="#E39F70" opacity="1.000000" stroke="none" 
	d="
M321.621033,493.666687 
	C341.831024,493.841461 359.221130,487.547577 374.068573,474.375916 
	C381.280762,467.977783 388.480865,461.566101 395.955627,455.029877 
	C398.424835,466.667358 400.624908,478.435516 402.812927,490.594604 
	C398.337158,492.125610 393.785522,493.001740 389.425568,494.453491 
	C374.195618,499.524597 358.513977,502.984406 342.572479,501.698914 
	C330.320801,500.710938 318.273468,497.078979 306.175323,494.439240 
	C304.717102,494.121063 303.509399,492.654877 302.086487,491.392822 
	C308.397003,491.958008 314.806610,492.851135 321.621033,493.666687 
z"/>
<path fill="#EBA879" opacity="1.000000" stroke="none" 
	d="
M432.466370,363.453491 
	C434.197601,349.069275 436.320984,334.707214 438.427368,320.342621 
	C438.858215,317.404541 439.225067,314.457092 439.734100,310.811096 
	C442.607849,305.127869 445.368958,300.147461 448.130066,295.167053 
	C449.771484,294.737793 451.412842,294.308533 453.411652,293.848267 
	C463.380188,296.419159 469.019562,305.730957 465.418304,316.216949 
	C460.786530,329.703644 454.672333,342.691101 448.982269,355.800568 
	C445.919067,362.857971 439.198547,362.940277 432.466370,363.453491 
z"/>
<path fill="#E39E70" opacity="1.000000" stroke="none" 
	d="
M436.993652,295.706757 
	C433.036255,299.336823 429.048065,302.510986 424.721558,305.954437 
	C416.191681,286.924927 401.732117,276.550018 380.557465,275.823944 
	C391.849976,276.389313 403.213257,277.308075 414.836212,278.247833 
	C411.255096,270.420746 404.626831,266.662659 396.723053,265.039581 
	C383.266052,262.276123 369.966888,264.734497 356.704803,266.974121 
	C355.753571,267.134766 354.453125,267.486023 354.045227,268.178650 
	C352.862000,270.187714 351.308868,272.443298 351.386475,274.547333 
	C351.429413,275.712128 354.343842,277.460999 356.143127,277.724884 
	C359.690125,278.245117 363.361938,277.914581 366.982117,277.935913 
	C365.775726,278.708160 364.639862,279.632812 363.351959,280.228851 
	C351.986847,285.488464 344.081055,293.968536 339.509216,305.599945 
	C338.976227,306.955963 338.396851,308.293732 337.904327,309.482178 
	C333.029114,308.934387 328.471375,308.422272 323.466644,307.400269 
	C323.344696,298.488281 323.911072,290.087311 323.949707,281.683899 
	C324.068420,255.876175 323.984894,230.067505 324.392151,204.164673 
	C327.537506,203.671478 330.270721,203.272812 333.003967,202.874146 
	C342.394592,201.443100 351.785187,200.012054 360.314880,198.712204 
	C358.571381,202.278214 356.587341,206.336227 354.688385,210.625732 
	C354.673981,210.948837 354.574463,211.040436 354.474945,211.132019 
	C354.552521,211.190201 354.681610,211.310883 354.699280,211.296341 
	C354.808899,211.205994 354.893555,211.085312 354.986511,210.974701 
	C370.250244,202.186279 386.571014,200.879501 403.457153,204.433777 
	C406.797455,205.136871 409.907227,206.934937 413.467712,208.366974 
	C420.912842,213.500336 423.468994,220.433853 424.107727,228.991165 
	C424.669281,236.513977 426.630096,244.023529 428.730255,251.320984 
	C432.875854,265.725800 436.413940,280.194336 436.993652,295.706757 
z"/>
<path fill="#EDA87A" opacity="1.000000" stroke="none" 
	d="
M323.980011,204.259201 
	C323.984894,230.067505 324.068420,255.876175 323.949707,281.683899 
	C323.911072,290.087311 323.344696,298.488281 323.025116,307.332306 
	C318.448669,308.351593 313.866791,308.928986 308.819122,309.565094 
	C302.034058,289.863068 288.391113,277.467377 267.059570,276.414062 
	C245.660980,275.357422 230.950333,286.434052 222.158356,305.653381 
	C217.272705,302.369141 212.549393,299.194061 207.629913,295.847565 
	C207.714966,291.223846 207.963776,286.769196 208.283340,282.319611 
	C209.304245,268.104279 213.685135,255.057877 221.351105,242.988632 
	C230.624817,228.388184 237.428818,212.756897 239.433670,195.364807 
	C239.794678,192.233200 239.841156,189.065338 240.036331,185.463120 
	C244.127716,187.310211 248.215622,189.608414 252.890594,192.217194 
	C261.267578,195.385437 268.903107,198.810867 276.880280,200.979584 
	C292.295868,205.170502 308.127777,205.315872 323.980011,204.259201 
M277.664581,263.901917 
	C266.709015,262.993622 255.730316,261.766235 245.098389,265.948669 
	C238.670181,268.477417 233.633896,272.442810 231.154480,279.233429 
	C231.778992,279.444397 232.113068,279.685822 232.379166,279.625793 
	C233.836349,279.297272 235.281204,278.910553 236.722443,278.515259 
	C249.698654,274.956207 262.783691,273.379059 276.224609,275.609772 
	C280.293732,276.285095 284.569519,276.418823 288.660736,275.973846 
	C290.862793,275.734375 294.135773,274.164337 294.706207,272.454285 
	C295.851562,269.020782 293.399139,266.345612 289.913849,265.564972 
	C286.203003,264.733765 282.366760,264.462494 277.664581,263.901917 
z"/>
<path fill="#EEA97B" opacity="1.000000" stroke="none" 
	d="
M323.005371,379.019592 
	C322.840088,379.078796 322.674805,379.137970 322.266785,379.301910 
	C305.214783,379.850891 288.774628,381.706604 275.160736,392.992523 
	C272.253052,395.402924 269.964264,398.553040 267.345184,401.319611 
	C257.853699,411.345367 244.110855,413.287476 234.208130,404.779633 
	C229.782913,400.977844 226.424255,395.187408 224.251831,389.644806 
	C216.383377,369.569702 212.878265,348.390961 210.015152,327.121094 
	C209.417999,322.684784 209.180099,318.200165 208.783401,312.841095 
	C208.695801,308.265808 208.601440,304.587219 208.507080,300.908630 
	C216.435669,303.557465 220.400848,309.064301 219.930069,316.903290 
	C218.733154,336.833282 226.519379,352.226562 244.310043,361.297821 
	C261.617981,370.122894 278.661896,368.127350 293.810364,355.823547 
	C304.590088,347.068024 309.899689,335.268127 309.984009,321.281830 
	C310.036652,312.551758 310.193481,312.340027 319.080780,311.761169 
	C320.076477,311.696320 321.076233,311.693756 322.529968,312.209167 
	C322.992340,334.843903 322.998840,356.931732 323.005371,379.019592 
z"/>
<path fill="#EDA879" opacity="1.000000" stroke="none" 
	d="
M322.958984,449.916748 
	C310.648712,448.909241 299.045013,445.739746 289.378418,437.541748 
	C282.121216,431.387054 276.418610,424.339569 279.030487,413.903259 
	C279.611298,411.582428 281.244110,409.524841 282.970093,407.314453 
	C284.418671,408.265839 285.320892,409.223206 286.155975,410.235901 
	C295.713928,421.826050 307.792328,428.467957 322.984772,429.493866 
	C322.956970,436.540741 322.921509,443.122284 322.886047,449.703857 
	C322.886017,449.703857 322.926849,449.848724 322.958984,449.916748 
z"/>
<path fill="#D09271" opacity="1.000000" stroke="none" 
	d="
M322.977081,429.028564 
	C307.792328,428.467957 295.713928,421.826050 286.155975,410.235901 
	C285.320892,409.223206 284.418671,408.265839 283.252136,407.109100 
	C283.468506,406.350647 283.980347,405.765869 285.126160,405.365540 
	C296.250854,406.032043 306.739471,406.575958 317.234344,406.939667 
	C319.143158,407.005829 321.077515,406.335327 323.438538,406.007202 
	C336.808899,406.524902 349.740753,407.040314 363.781464,407.599915 
	C353.782837,423.691162 339.635223,428.772400 322.977081,429.028564 
M320.683228,422.228851 
	C336.695251,422.655792 352.062958,417.408356 356.159271,410.118256 
	C334.642883,410.118256 313.126526,410.118256 291.330292,410.118256 
	C299.727570,416.849487 308.971954,421.261261 320.683228,422.228851 
z"/>
<path fill="#ECA779" opacity="1.000000" stroke="none" 
	d="
M323.000061,406.004883 
	C321.077515,406.335327 319.143158,407.005829 317.234344,406.939667 
	C306.739471,406.575958 296.250854,406.032043 285.434479,405.316345 
	C294.030273,399.969696 304.153442,400.513306 313.836517,398.994080 
	C315.944489,398.663391 318.073547,398.466827 320.594482,398.117371 
	C321.529297,398.215698 322.062531,398.405151 322.799500,399.231903 
	C323.002197,401.914459 323.001129,403.959656 323.000061,406.004883 
z"/>
<path fill="#563523" opacity="1.000000" stroke="none" 
	d="
M208.395126,300.558197 
	C208.601440,304.587219 208.695801,308.265808 208.739044,312.374573 
	C207.630508,312.920868 206.573105,313.036987 205.232559,313.104553 
	C201.947891,307.180298 198.946350,301.304596 195.931122,295.042908 
	C200.039352,296.507172 204.161270,298.357483 208.395126,300.558197 
z"/>
<path fill="#5B3621" opacity="1.000000" stroke="none" 
	d="
M324.392151,204.164673 
	C308.127777,205.315872 292.295868,205.170502 276.880280,200.979584 
	C268.903107,198.810867 261.267578,195.385437 253.238220,192.271271 
	C253.222031,185.512466 253.580994,179.010818 253.613190,172.507553 
	C253.630127,169.084564 253.510376,165.864761 258.098663,164.292297 
	C276.814880,172.845993 295.640564,178.580002 316.461304,177.996201 
	C322.952026,177.667603 328.978455,177.337158 335.004883,177.006714 
	C329.150024,184.957367 330.787079,193.548752 332.928101,202.525452 
	C330.270721,203.272812 327.537506,203.671478 324.392151,204.164673 
z"/>
<path fill="#603D29" opacity="1.000000" stroke="none" 
	d="
M335.392029,176.936142 
	C328.978455,177.337158 322.952026,177.667603 316.532440,177.635239 
	C319.338623,173.623505 319.285126,169.216171 318.947632,164.791687 
	C318.774292,162.519562 318.322357,160.268661 317.996338,158.008179 
	C332.763611,158.156174 346.648895,154.815308 359.765900,147.258179 
	C367.770386,144.617462 375.522217,141.714462 383.823120,143.118454 
	C386.517120,143.574066 390.707672,144.944962 391.148132,146.676849 
	C391.812225,149.288193 390.727417,154.045044 388.734039,155.332825 
	C380.719330,160.510498 372.390167,165.506302 363.564423,169.038239 
	C354.681213,172.593185 345.070862,174.331345 335.392029,176.936142 
z"/>
<path fill="#65402B" opacity="1.000000" stroke="none" 
	d="
M317.580139,158.006104 
	C318.322357,160.268661 318.774292,162.519562 318.947632,164.791687 
	C319.285126,169.216171 319.338623,173.623505 316.068146,177.633392 
	C295.640564,178.580002 276.814880,172.845993 258.357056,164.058105 
	C247.009811,156.337753 235.886673,148.859726 225.091934,140.934357 
	C220.500687,137.563522 216.596985,133.256210 212.763412,128.769669 
	C227.918854,134.501465 243.074295,140.233246 258.614868,145.983124 
	C271.589447,149.330627 284.157410,152.745544 296.784180,155.927017 
	C299.794586,156.685532 303.001434,156.664505 306.558960,157.000244 
	C307.000000,156.998489 307.498901,157.003265 308.036743,157.234924 
	C310.050079,157.642075 311.525543,157.817566 313.001038,157.993073 
	C314.388672,157.996719 315.776337,158.000366 317.580139,158.006104 
z"/>
<path fill="#24CE95" opacity="1.000000" stroke="none" 
	d="
M304.915039,64.714439 
	C297.723114,64.122597 290.900635,63.530937 283.760468,62.911732 
	C287.968964,62.288887 292.063843,61.682854 296.579834,60.986469 
	C309.278259,61.422031 321.235626,62.795399 330.554474,72.956818 
	C321.705688,70.070656 313.495087,67.392639 304.915039,64.714439 
z"/>
<path fill="#5B3621" opacity="1.000000" stroke="none" 
	d="
M312.895203,157.665680 
	C311.525543,157.817566 310.050079,157.642075 308.286194,157.235901 
	C309.594971,157.116226 311.192139,157.227249 312.895203,157.665680 
z"/>
<path fill="#F1BA95" opacity="1.000000" stroke="none" 
	d="
M282.228302,283.587524 
	C300.633636,292.848450 309.890045,311.880798 305.394440,330.674744 
	C300.920929,349.376251 284.267365,362.796692 265.345337,362.948792 
	C248.582504,363.083527 232.852722,353.224884 226.598541,337.817078 
	C220.170273,321.980408 222.150528,306.845581 233.633591,294.007141 
	C245.794113,280.411316 261.163971,276.800232 278.602539,282.214264 
	C279.713745,282.559265 280.789978,283.016815 282.228302,283.587524 
M255.711227,301.501495 
	C252.973846,309.217896 254.873581,315.640106 260.977783,319.305664 
	C266.447693,322.590271 273.518738,321.608948 277.904236,316.956573 
	C283.430450,311.094055 282.892151,302.216125 276.695160,297.016632 
	C270.263489,291.620239 261.737091,293.189362 255.711227,301.501495 
z"/>
<path fill="#E9B28D" opacity="1.000000" stroke="none" 
	d="
M352.678284,291.676025 
	C376.314972,270.160370 412.208588,279.404266 421.669373,309.125824 
	C428.755432,331.387054 415.230865,355.666534 392.512817,361.467926 
	C369.029480,367.464783 345.437073,352.838959 341.050232,329.518860 
	C338.325897,315.036316 342.302185,302.543427 352.678284,291.676025 
M364.806152,312.311981 
	C369.130005,320.917603 377.600342,323.747223 385.019623,319.064514 
	C391.650848,314.879181 393.321594,305.790131 388.638000,299.380219 
	C384.931061,294.307007 377.912170,292.442993 372.122864,294.994354 
	C365.818817,297.772583 363.149597,303.597198 364.806152,312.311981 
z"/>
<path fill="#E49F71" opacity="1.000000" stroke="none" 
	d="
M323.460999,379.038818 
	C322.998840,356.931732 322.992340,334.843903 322.974762,312.266418 
	C323.959412,311.720276 324.957184,311.590576 325.950562,311.618530 
	C336.333771,311.910431 336.706909,312.287109 336.837341,322.387207 
	C337.181091,349.010101 359.669586,368.391327 387.478455,366.031067 
	C411.793884,363.967377 430.380188,339.416229 426.653931,314.640411 
	C426.320496,312.423462 427.348938,309.478241 428.755951,307.648804 
	C430.737152,305.072693 433.663727,303.223663 436.563904,301.427124 
	C436.989288,304.833130 437.036835,307.875702 437.084412,310.918304 
	C433.054840,333.465881 429.302246,356.068573 424.830139,378.528015 
	C423.455536,385.431580 420.631195,392.193634 417.547333,398.574188 
	C413.252930,407.459290 403.465302,411.442535 393.974640,408.750031 
	C387.838806,407.009338 382.439850,404.114685 378.252686,398.850189 
	C368.105347,386.092010 353.702820,381.842560 338.315643,380.014069 
	C333.545441,379.447205 328.717896,379.363129 323.460999,379.038818 
z"/>
<path fill="#53321F" opacity="1.000000" stroke="none" 
	d="
M366.991211,277.956299 
	C363.361938,277.914581 359.690125,278.245117 356.143127,277.724884 
	C354.343842,277.460999 351.429413,275.712128 351.386475,274.547333 
	C351.308868,272.443298 352.862000,270.187714 354.045227,268.178650 
	C354.453125,267.486023 355.753571,267.134766 356.704803,266.974121 
	C369.966888,264.734497 383.266052,262.276123 396.723053,265.039581 
	C404.626831,266.662659 411.255096,270.420746 414.836212,278.247833 
	C403.213257,277.308075 391.849976,276.389313 380.116272,275.687744 
	C377.162903,276.249451 374.579956,276.593872 371.233063,276.926208 
	C369.300568,277.262573 368.132019,277.611023 366.963470,277.959473 
	C366.963470,277.959473 367.000305,277.976685 366.991211,277.956299 
z"/>
<path fill="#5C3A27" opacity="1.000000" stroke="none" 
	d="
M437.385010,310.918274 
	C437.036835,307.875702 436.989288,304.833130 436.887238,301.332092 
	C440.355377,299.025177 443.877991,297.176697 447.765320,295.247650 
	C445.368958,300.147461 442.607849,305.127869 439.655823,310.399994 
	C438.871796,310.767212 438.278687,310.842743 437.385010,310.918274 
z"/>
<path fill="#E39E70" opacity="1.000000" stroke="none" 
	d="
M367.320099,278.098145 
	C368.132019,277.611023 369.300568,277.262573 370.853851,277.006683 
	C370.051300,277.478424 368.864014,277.857605 367.320099,278.098145 
z"/>
<path fill="#E39E6F" opacity="1.000000" stroke="none" 
	d="
M323.438538,406.007202 
	C323.001129,403.959656 323.002197,401.914459 323.003479,399.430908 
	C334.055695,399.998199 345.257568,400.193909 356.123871,402.203888 
	C371.497803,405.047699 375.915680,416.804321 366.858765,429.640045 
	C358.837250,441.008392 346.939117,446.348694 333.659210,448.907867 
	C330.425262,449.531128 327.075623,449.554016 323.332611,449.778412 
	C322.921509,443.122284 322.956970,436.540741 322.984772,429.493866 
	C339.635223,428.772400 353.782837,423.691162 363.781464,407.599915 
	C349.740753,407.040314 336.808899,406.524902 323.438538,406.007202 
z"/>
<path fill="#54321F" opacity="1.000000" stroke="none" 
	d="
M355.005249,211.001984 
	C354.893555,211.085312 354.808899,211.205994 354.699280,211.296341 
	C354.681610,211.310883 354.552521,211.190201 354.474945,211.132019 
	C354.574463,211.040436 354.673981,210.948837 354.915985,210.971497 
	C355.058502,211.085754 355.023987,211.029282 355.005249,211.001984 
z"/>
<path fill="#53321F" opacity="1.000000" stroke="none" 
	d="
M278.124939,263.924347 
	C282.366760,264.462494 286.203003,264.733765 289.913849,265.564972 
	C293.399139,266.345612 295.851562,269.020782 294.706207,272.454285 
	C294.135773,274.164337 290.862793,275.734375 288.660736,275.973846 
	C284.569519,276.418823 280.293732,276.285095 276.224609,275.609772 
	C262.783691,273.379059 249.698654,274.956207 236.722443,278.515259 
	C235.281204,278.910553 233.836349,279.297272 232.379166,279.625793 
	C232.113068,279.685822 231.778992,279.444397 231.154480,279.233429 
	C233.633896,272.442810 238.670181,268.477417 245.098389,265.948669 
	C255.730316,261.766235 266.709015,262.993622 278.124939,263.924347 
z"/>
<path fill="#FDFBFA" opacity="1.000000" stroke="none" 
	d="
M320.215027,422.201080 
	C308.971954,421.261261 299.727570,416.849487 291.330292,410.118256 
	C313.126526,410.118256 334.642883,410.118256 356.158905,410.116882 
	C352.062958,417.408356 336.695251,422.655792 320.215027,422.201080 
z"/>
<path fill="#62554F" opacity="1.000000" stroke="none" 
	d="
M255.879150,301.158997 
	C261.737091,293.189362 270.263489,291.620239 276.695160,297.016632 
	C282.892151,302.216125 283.430450,311.094055 277.904236,316.956573 
	C273.518738,321.608948 266.447693,322.590271 260.977783,319.305664 
	C254.873581,315.640106 252.973846,309.217896 255.879150,301.158997 
z"/>
<path fill="#62554F" opacity="1.000000" stroke="none" 
	d="
M364.671082,311.930878 
	C363.149597,303.597198 365.818817,297.772583 372.122864,294.994354 
	C377.912170,292.442993 384.931061,294.307007 388.638000,299.380219 
	C393.321594,305.790131 391.650848,314.879181 385.019623,319.064514 
	C377.600342,323.747223 369.130005,320.917603 364.671082,311.930878 
z"/>
</svg>