<svg xmlns="http://www.w3.org/2000/svg" viewBox="0 0 24 24" width="24" height="24">
  <g stroke="none" stroke-width="1" fill="none" fill-rule="evenodd">
    <g transform="translate(0.250000, 0.000000)" fill-rule="nonzero">
      <path d="M23.5011968,12.2739214 C23.5011968,11.3968124 23.4227334,10.557534 23.2770156,9.75048164 L12.0007006,9.75048164 L12.0007006,14.3742192 L18.4949501,14.3756203 C18.2315372,15.9140639 17.3838519,17.225524 16.085002,18.0998307 L16.085002,21.0996556 L19.9507268,21.0996556 C22.2079514,19.0105669 23.5011968,15.9224707 23.5011968,12.2739214 Z" fill="#4285F4"></path>
      <path d="M16.0864032,18.0998307 C15.0103334,18.8256174 13.6246132,19.2501605 12.0035028,19.2501605 C8.87197151,19.2501605 6.21542413,17.1400549 5.26405511,14.2957557 L1.27643178,14.2957557 L1.27643178,17.3894565 C3.25202872,21.3098254 7.31251095,24 12.0035028,24 C15.2457236,24 17.9695254,22.9337381 19.952128,21.0982544 L16.0864032,18.0998307 Z" fill="#34A853"></path>
      <path d="M4.88855158,12.0007006 C4.88855158,11.202055 5.02165917,10.4300309 5.26405511,9.70424426 L5.26405511,6.61054352 L1.27643178,6.61054352 C0.459571487,8.23165392 -7.96451662e-15,10.0615331 -7.96451662e-15,12.0007006 C-7.96451662e-15,13.9398681 0.46097262,15.7697472 1.27643178,17.3908576 L5.26405511,14.2971569 C5.02165917,13.5713702 4.88855158,12.7993461 4.88855158,12.0007006 Z" fill="#FABB05"></path>
      <path d="M12.0035028,4.74983945 C13.7731333,4.74983945 15.3578142,5.35933213 16.6090256,6.55029482 L20.0347948,3.12732792 C17.9541129,1.18956156 15.2415202,7.96451662e-15 12.0035028,7.96451662e-15 C7.31391208,7.96451662e-15 3.25202872,2.69017456 1.27643178,6.61054352 L5.26405511,9.70424426 C6.21542413,6.85994512 8.87197151,4.74983945 12.0035028,4.74983945 Z" fill="#E94235"></path>
    </g>
  </g>
</svg>
