<svg 
 xmlns="http://www.w3.org/2000/svg"
 xmlns:xlink="http://www.w3.org/1999/xlink"
 width="24px" height="29px">
<path fill-rule="evenodd"  fill="#F6F6F6"
 d="M23.259,20.790 C23.827,19.191 24.068,17.518 23.976,15.821 L23.900,14.430 C23.886,14.229 23.677,14.108 23.502,14.202 L22.292,14.848 C21.535,15.256 20.598,15.512 19.520,15.607 C19.448,15.612 19.400,15.584 19.371,15.560 C19.341,15.536 19.305,15.490 19.302,15.418 C19.296,15.353 19.321,15.289 19.367,15.245 C20.895,13.784 22.076,11.600 22.874,8.746 C23.540,6.377 23.573,4.049 22.982,1.822 L22.549,0.199 C22.493,-0.014 22.222,-0.073 22.081,0.097 L20.988,1.387 C20.240,2.267 19.455,2.923 18.659,3.327 C17.684,3.821 16.643,4.145 15.560,4.291 C14.800,4.391 14.040,4.406 13.293,4.331 C11.488,4.147 9.632,4.394 7.930,5.039 C6.212,5.693 4.633,6.764 3.357,8.139 C2.230,9.356 1.366,10.757 0.789,12.312 C0.234,13.811 -0.036,15.387 -0.008,16.992 C0.023,18.598 0.344,20.155 0.953,21.618 C1.584,23.134 2.493,24.482 3.659,25.629 C4.824,26.776 6.172,27.650 7.668,28.231 C9.115,28.792 10.639,29.056 12.199,29.009 C13.757,28.967 15.274,28.618 16.700,27.976 C18.180,27.310 19.499,26.358 20.628,25.141 C21.792,23.885 22.679,22.422 23.259,20.790 L23.259,20.790 Z"/>
</svg>