<svg xmlns="http://www.w3.org/2000/svg" width="24" height="24" viewBox="0 0 24 24">
  <g fill="none" fill-rule="evenodd">
    <rect width="24" height="1.983" y="20.035" fill="#00BAF2"/>
    <rect width="24" height="1.983" y="22.017" fill="#1F336B"/>
    <g fill-rule="nonzero" transform="translate(2.087 7.2)">
      <path fill="#00BAF2" d="M19.7561744 1.82063022C19.664547 1.56361358 19.4951557 1.34154825 19.2714255 1.18536487 19.0461017 1.02805235 18.7779122.94382144 18.5030299.944099379L18.4910785.944099379C18.3127635.94418624 18.1362015.979759772 17.9717502 1.04874804 17.8074582 1.11758945 17.6586234 1.21899281 17.5344881 1.34684654 17.4103529 1.21901492 17.2615181 1.11761629 17.0972261 1.04874804 16.9327748.9797045 16.7562127.944099379 16.5778978.944099379L16.5659464.944099379C16.2489952.943612982 15.9422425 1.05597456 15.700617 1.2610522L15.700617 1.16104803C15.6972068 1.11221378 15.6752003 1.06654586 15.639123 1.03344697 15.6028545 1.00021542 15.5554951.981703793 15.5063031.981533238L14.6199711.981533238C14.5941242.981618515 14.5685163.986626225 14.5445497.9962879 14.5208063 1.00607433 14.4991663 1.02036312 14.4808567 1.03836624 14.4627862 1.05636147 14.4483967 1.0777078 14.4385009 1.10120976 14.4285893 1.12472437 14.4235697 1.15001085 14.4237405 1.17552949L14.4237405 5.93307968C14.4237405 5.95852093 14.4288123 5.98370951 14.4386603 6.00716094 14.4485242 6.03062816 14.4629615 6.05188448 14.4811436 6.06969809 14.5182407 6.1059728 14.5680701 6.12628158 14.6199711 6.12624999L15.5063031 6.12624999C15.553551 6.12626579 15.5992372 6.10928916 15.6350277 6.07843118 15.6704835 6.04784167 15.6936055 6.005408 15.7000752 5.95902628L15.7000752 2.51054451C15.7064971 2.43321005 15.7410127 2.36091331 15.7971046 2.30726718 15.8536427 2.25343153 15.9275821 2.22154706 16.0056646 2.21736212L16.1696379 2.21736212C16.2376812 2.22214716 16.3026968 2.24706727 16.3565578 2.288964 16.3949616 2.31974302 16.4260353 2.35889191 16.4470698 2.40344174 16.4677855 2.44775468 16.4781434 2.49629993 16.477028 2.54525578L16.4803743 5.94291823C16.4803743 5.96837527 16.4854736 5.99357964 16.4953534 6.01703107 16.5053926 6.04049829 16.5197343 6.06173882 16.5380598 6.07952084 16.5750295 6.11593768 16.6247473 6.13643597 16.6765367 6.13664596L17.5639683 6.13664596C17.6146422 6.1369887 17.6635633 6.11803805 17.7006923 6.08362682 17.7371839 6.04935772 17.7590152 6.00224956 17.7615648 5.95220405L17.7615648 2.54141828C17.7604493 2.48739313 17.7731975 2.43396808 17.7985345 2.38622823 17.8238715 2.33831466 17.8608411 2.29760234 17.9062565 2.26791299 17.9554962 2.23632857 18.0117475 2.21753584 18.0702297 2.21327194L18.234203 2.21327194C18.3183409 2.21750425 18.3975388 2.25412639 18.4552243 2.31546333 18.512591 2.37638968 18.5436647 2.45748268 18.5415931 2.54114981L18.5452582 5.93416934C18.5452582 5.95962638 18.5503574 5.98483075 18.5602373 6.00828218 18.5701171 6.03174941 18.5846181 6.05298993 18.6027843 6.07078775 18.6397539 6.10722038 18.6894718 6.12763971 18.7414205 6.12762392L19.6280553 6.12762392C19.6538704 6.1276555 19.6793667 6.12264937 19.7031102 6.1128582 19.7268536 6.10306703 19.7485255 6.08888563 19.766851 6.07105622 19.7851765 6.05316365 19.7996775 6.03179679 19.8095573 6.00821902 19.8192778 5.98467283 19.8243771 5.95942109 19.8245364 5.93390087L19.8245364 2.2851265C19.832504 2.12740969 19.8097167 1.96962972 19.7572899 1.82063022M13.755769.99569066L13.2508822.99569066 13.2508822.178713424C13.251104.15525029 13.2465727.131989933 13.2375736.110357494 13.2286853.0886971303 13.2156619.0690151795 13.1992639.0524334144 13.182644.035846096 13.1629821.0226977164 13.1413715.0137260909 13.1196658.00467709956 13.0963916 0 13.0728956 0 13.0616625 0 13.0504453.00131600416 13.0394815.00384329097 12.4794433.155379286 12.5922019.929805962 11.5699436.995965153L11.4707628.995965153C11.4564244.9959953 11.4421177.997559752 11.4280961 1.00063154 11.3853344 1.01051646 11.3470722 1.03457983 11.3194093 1.06898667 11.2918573 1.10319994 11.2767901 1.1459463 11.2767426 1.19005084L11.2767426 2.06852564C11.2770119 2.12010814 11.2975293 2.1694693 11.3338111 2.20578807 11.3705998 2.24240831 11.4201902 2.2629239 11.4718561 2.2628763L12.0044533 2.2628763 12.0044533 5.99637954C12.0045008 6.02163925 12.0094915 6.0466451 12.0191244 6.06995322 12.0289474 6.09334067 12.0431591 6.11460198 12.0609672 6.13254717 12.0789814 6.15034956 12.1001801 6.16451848 12.1234701 6.17427647 12.1469661 6.18385993 12.1720306 6.18888966 12.1973803 6.18909593L13.0701863 6.18909593C13.1210125 6.188731 13.1697314 6.16846928 13.2060449 6.13254717 13.2240273 6.11460198 13.2382707 6.0932296 13.2479828 6.06965175 13.2576949 6.04608977 13.2626539 6.02079832 13.2625747 5.99528474L13.2625747 2.26508176 13.7568622 2.26508176C13.7824812 2.2650183 13.8078468 2.25998857 13.8315804 2.25026231 13.8551873 2.24042498 13.8766871 2.22606566 13.8948913 2.20797767 13.9129371 2.18984208 13.9272439 2.16829517 13.9370193 2.14455865 13.9467473 2.12099667 13.951738 2.09570522 13.9516908 2.07017577L13.9516908 1.19169938C13.9516908 1.16613503 13.9466522 1.14082771 13.9368451 1.11725938 13.9270537 1.09368947 13.9126995 1.07233295 13.894622 1.05443854 13.8579283 1.01785162 13.8084013.997423299 13.7568622.997612112"/>
      <path fill="#1F336B" d="M10.6055692.998202787L9.71813495.998202787C9.66618533.998119995 9.61627732 1.0185983 9.57917728 1.05522585 9.56097816 1.07318218 9.54652733 1.0946126 9.53667014 1.11826408 9.526797 1.14191396 9.52172485 1.16730885 9.52172485 1.19296166L9.52172485 3.01934117C9.52129419 3.04632821 9.51558404 3.07296498 9.50492934 3.09773893 9.49427465 3.12249695 9.47888276 3.1449145 9.45963093 3.16368602 9.42055307 3.20186592 9.36825254 3.22320081 9.31381469 3.22318489L8.94121927 3.22318489C8.91392857 3.22324857 8.88687712 3.21791485 8.86161209 3.20748623 8.83642681 3.19705761 8.81347455 3.18180476 8.79404727 3.16258743 8.77471569 3.14341788 8.75937165 3.12057044 8.74890835 3.09536661 8.73834936 3.0700991 8.73305391 3.04290508 8.73332506 3.01548815L8.72920992 1.191309C8.72917802 1.16563708 8.72405802 1.14023105 8.71415298 1.11657798 8.70424794 1.09292651 8.68973331 1.07150564 8.67150229 1.05357319 8.63446605 1.01701252 8.58466969.996549344 8.53279982.996549344L7.64563672.996549344C7.61982938.99647689 7.59427725 1.00153198 7.57041583 1.01142564 7.54657036 1.02102953 7.52489411 1.03536211 7.50667905 1.05357319 7.48838423 1.07160754 7.47386959 1.09315259 7.46399645 1.11693144 7.45397976 1.14052401 7.44885976 1.16592685 7.44895547 1.19158445L7.44895547 3.19288616C7.44182575 3.36576244 7.47071146 3.53824069 7.53376239 3.69920765 7.59722803 3.86071594 7.69335956 4.00714651 7.81606404 4.1292171 7.93935867 4.25202009 8.08651472 4.34786787 8.24829706 4.4107421 8.41052599 4.47388701 8.58385624 4.50303938 8.75766498 4.49641601 8.75766498 4.49641601 9.33214141 4.49641601 9.34965467 4.49999836 9.40023258 4.50507734 9.44722171 4.52859348 9.48178568 4.5661206 9.5164294 4.60355218 9.53595238 4.65267019 9.53649468 4.70384208 9.53670204 4.75466369 9.51818392 4.80373394 9.48451316 4.84157948 9.45036389 4.87947279 9.40369377 4.90356211 9.35321155 4.90935756L9.33844172 4.9118254 8.03901518 4.91679293C7.98704961 4.91664963 7.93712565 4.93714068 7.90005751 4.97380803 7.88185839 4.99176755 7.86740756 5.01319796 7.85755037 5.0368574 7.84767723 5.06050091 7.84260508 5.0858958 7.84260508 5.11154543L7.84260508 5.99305845C7.84260508 6.01870808 7.84767723 6.04410297 7.85755037 6.06774648 7.86740756 6.09140592 7.88185839 6.11283634 7.90005751 6.13079585 7.93709375 6.16754281 7.98701771 6.18812939 8.03901518 6.18809754L9.49299864 6.18809754C9.66683928 6.19499158 9.84026522 6.16612579 10.0026377 6.10325156 10.1645158 6.04045693 10.3118154 5.94481613 10.435413 5.82226789 10.5582292 5.70016546 10.6545521 5.5537508 10.7182889 5.39225843 10.7816907 5.23127555 10.8107678 5.05868586 10.8036381 4.88566628L10.8036381 1.19296166C10.803686 1.16733591 10.7986617 1.14195695 10.7888523 1.11830866 10.7790111 1.09459509 10.7644965 1.07313601 10.7461857 1.05522585 10.727859 1.03707527 10.7062146 1.02266945 10.6824489 1.01280286 10.6585237 1.00312573 10.6329875.998169351 10.6072121.998202787M2.11050618.999501674L.1910703.999501674C.140660797.999066624.0921071732 1.01887332.0558982869 1.05464458.0382537154 1.07235571.0242416181 1.09347234.0146802117 1.11676262.00511886845 1.14005131.000198006486 1.16504992.000206029611 1.19029872L.000206029611 2.05689161C-.0000686765371 2.05797525-.0000686765371 2.05910669.000206029611 2.06019033L.000206029611 5.99305276C-.00128916576 6.04258146.0163869938 6.0907078.0494102736 6.12705753.0827743392 6.16369411.128631625 6.18589278.177552358 6.18909593L1.0723878 6.18909593C1.1236964 6.18909593 1.17294483 6.16850674 1.20945084 6.13174268 1.22747844 6.11379888 1.24181131 6.09234919 1.25160614 6.06868442 1.26140098 6.04500371 1.2664639 6.01958599 1.26649542 5.99388142L1.26973935 4.65029592 2.10997025 4.65029592C2.26860431 4.65799295 2.42709651 4.63217683 2.57550069 4.57447303 2.72344776 4.51713575 2.85805973 4.42896255 2.97073026 4.3155788 3.08294368 4.20278468 3.1705518 4.06712257 3.22783282 3.9174369 3.28514537 3.76838866 3.31075947 3.60861557 3.30298855 3.448715L3.30298855 2.2008085C3.31068066 2.0409398 3.28516113 1.88119858 3.22810079 1.7320866 3.17063062 1.58242961 3.08303826 1.44671014 2.97101399 1.33367379 2.85826464 1.22024701 2.7236842 1.1319033 2.57576865 1.07422181 2.42733295 1.01622956 2.26873041.990225401 2.10997025.99784753L2.11050618.999501674zM2.03345895 2.61714917L2.03345895 3.16252262C2.03344319 3.1897889 2.02809969 3.21676834 2.01774371 3.24189922 2.00740349 3.26704603 1.99223994 3.28981839 1.97316729 3.30892551 1.93440724 3.34787278 1.8821387 3.36967306 1.82772646 3.36957776L1.27027843 3.36957776 1.27027843 2.28021696 1.82772646 2.28021696C1.88217023 2.2802329 1.934423 2.30212879 1.97316729 2.34115575 1.99225571 2.36024693 2.00741926 2.38301929 2.01777524 2.4081661 2.02811545 2.43329698 2.03345895 2.46029235 2.03345895 2.48755863L2.03345895 2.61714917zM5.55635274.996653516L4.33150306.996653516C4.28137238.994995044 4.23257302 1.01319388 4.19558123 1.04735492 4.15898567 1.08110253 4.13717732 1.12812742 4.13497429 1.17808275L4.13497429 2.00219288C4.13597279 2.0285035 4.14212224 2.05435476 4.15308981 2.07825766 4.16405738 2.10214473 4.17960534 2.12362408 4.19884614 2.1414285 4.23794586 2.17811447 4.28980409 2.19781972 4.34318384 2.19623569L5.50961377 2.19623569C5.55573463 2.20223914 5.59843209 2.22400362 5.63057405 2.25790171 5.66255752 2.29157803 5.68179832 2.33551883 5.68493644 2.38204159L5.68493644 2.49523587C5.68236889 2.54066565 5.663873 2.58370355 5.63274538 2.61665123 5.60139587 2.64983651 5.55961766 2.67104658 5.51449529 2.67666986L4.93685921 2.67666986C4.76843088 2.66421944 4.59924181 2.68660168 4.43968898 2.74243849 4.28059577 2.79791098 4.13456222 2.88590345 4.0107491 3.00088768 3.88734805 3.11514326 3.78886178 3.25401455 3.72151898 3.40869439 3.65441391 3.56277231 3.62014817 3.72934816 3.62094063 3.89761892L3.62094063 4.92070767C3.61154212 5.08373532 3.63721765 5.24687384 3.69623967 5.39895589 3.75516661 5.55162402 3.84591852 5.68975082 3.96236181 5.80402224 4.07940737 5.91905399 4.21930732 6.00777512 4.37282165 6.0643881 4.5266688 6.1213654 4.69069108 6.14507823 4.85422203 6.13399007L6.45583638 6.13399007C6.58896877 6.13848869 6.71850341 6.09006511 6.81656176 5.99915803 6.86472715 5.95450442 6.90363668 5.90064764 6.93097637 5.84070821 6.95831605 5.78075294 6.97357873 5.71593472 6.97584528 5.64999185L6.97584528 2.31544926C6.97611459 1.50723481 6.55722303.996653516 5.55635274.996653516zM5.69717194 4.664191L5.69717194 4.80122482C5.69707685 4.81209122 5.69590402 4.82292594 5.6936376 4.83355473 5.69170401 4.84294799 5.68888287 4.85211948 5.68520588 4.86095833 5.67016509 4.9005589 5.64328502 4.93447283 5.60827438 4.95797974 5.57294675 4.98159752 5.53132702 4.99384201 5.48894655 4.99306584L5.12143775 4.99306584C5.06804216 4.99464987 5.01618392 4.97494462 4.97710006 4.93824281 4.9578751 4.92039087 4.94235884 4.898864 4.93145466 4.87491357 4.92053464 4.85097898 4.91443274 4.82508021 4.91348179 4.79875375L4.91348179 4.04917824C4.91459123 4.02294682 4.92081992 3.9971906 4.93183504 3.97338274 4.94283431 3.94959071 4.95841397 3.92822224 4.97763892 3.91051287 5.0165643 3.87389026 5.0682165 3.85420085 5.12143775 3.85568983L5.48921598 3.85568983C5.54259573 3.85416917 5.59443812 3.87385858 5.63355368 3.91051287 5.65285788 3.92836481 5.66845339 3.94992336 5.67942096 3.97392131 5.69038853 3.99791926 5.69650628 4.02388139 5.69744138 4.05028705L5.69717194 4.664191z"/>
    </g>
  </g>
</svg>
