<?xml version="1.0" encoding="UTF-8"?>
<svg width="24px" height="24px" viewBox="0 0 24 24" version="1.1" xmlns="http://www.w3.org/2000/svg" xmlns:xlink="http://www.w3.org/1999/xlink">
    <title>icon-phonepe</title>
    <g id="Page-1" stroke="none" stroke-width="1" fill="none" fill-rule="evenodd">
        <g id="onion-pay-icons" transform="translate(0.000000, -50.000000)" fill-rule="nonzero">
            <g id="icon-phonepe" transform="translate(0.000000, 50.000000)">
                <circle id="Oval" fill="#5F259F" cx="12" cy="12" r="12"></circle>
                <path d="M17.4464149,8.86832027 C17.4464149,8.39922229 17.0441289,7.99693631 16.5750309,7.99693631 L14.9662405,7.99693631 L11.2792082,3.77364049 C10.9440877,3.3713545 10.4078242,3.23737701 9.87156071,3.3713545 L8.59789077,3.77364049 C8.39674778,3.84080599 8.32958228,4.10876097 8.46391327,4.24273847 L12.4860661,8.06410181 L6.38496436,8.06410181 C6.18382136,8.06410181 6.04984387,8.1980793 6.04984387,8.39922229 L6.04984387,9.06946327 C6.04984387,9.53856124 6.45212985,9.94084723 6.92122783,9.94084723 L7.85977729,9.94084723 L7.85977729,13.1587816 C7.85977729,15.572144 9.13344724,16.9801449 11.2788547,16.9801449 C11.9490956,16.9801449 12.4857126,16.9129794 13.1559536,16.6450245 L13.1559536,18.7904319 C13.1559536,19.3938608 13.6250516,19.8629588 14.2284805,19.8629588 L15.16703,19.8629588 C15.368173,19.8629588 15.569316,19.6618158 15.569316,19.4606728 L15.569316,9.87403523 L17.1112944,9.87403523 C17.3124374,9.87403523 17.4464149,9.74005774 17.4464149,9.53891475 L17.4464149,8.86832027 Z M13.1559536,14.6335945 C12.7536676,14.8347375 12.2174041,14.901903 11.8151181,14.901903 C10.7425912,14.901903 10.2063277,14.3656395 10.2063277,13.1587816 L10.2063277,9.94084723 L13.1559536,9.94084723 L13.1559536,14.6335945 Z" id="Shape" fill="#FFFFFF"></path>
            </g>
        </g>
    </g>
</svg>