<svg xmlns="http://www.w3.org/2000/svg" viewBox="0 0 48 48"><symbol xmlns="http://www.w3.org/2000/svg" id="qiiBz2_FR0T0AYGTLf6V3" viewBox="0 0 48 48" fill="none"><circle opacity="0.3" cx="27" cy="24" r="18" fill="#E9DCD2"></circle><path fill-rule="evenodd" clip-rule="evenodd" d="M17.4489 16.6808C17.4491 16.6697 17.4492 16.6586 17.4492 16.6475C17.4492 15.681 16.6833 14.8975 15.7168 14.8975C14.7529 14.8975 13.9263 15.6767 13.9219 16.6396H13.9209C13.9212 16.6432 13.9215 16.6469 13.9219 16.6505C13.9221 16.7723 13.9355 16.8911 13.9606 17.0059C14.5925 21.9877 18.8462 25.8397 23.9996 25.8397C29.1037 25.8397 33.3252 22.0611 34.0195 17.1487C34.0666 16.9905 34.0918 16.8229 34.0918 16.6494C34.0918 15.6829 33.3083 14.8994 32.3418 14.8994C31.3753 14.8994 30.5469 15.6829 30.5469 16.6494C30.5469 16.6662 30.5471 16.6829 30.5476 16.6996C30.0741 19.8911 27.3228 22.3397 23.9996 22.3397C20.67 22.3397 17.9144 19.8815 17.4489 16.6808Z" fill="#DCB793"></path><path fill-rule="evenodd" clip-rule="evenodd" d="M10.5124 5.2H37.4875C40.0604 5.2 42.1758 7.22874 42.2833 9.79945L42.7935 22H42.8V22.0005C42.8 22.8841 43.5163 23.6005 44.4 23.6005C45.2837 23.6005 46 22.8841 46 22.0005C46 21.9341 45.996 21.8686 45.9881 21.8044L45.4805 9.66575C45.3013 5.38123 41.7757 2 37.4875 2H10.5124C6.2241 2 2.69852 5.38123 2.51935 9.66575L1.34844 37.6657C1.15836 42.2112 4.79203 46 9.34145 46H38.6584C43.2078 46 46.8415 42.2112 46.6514 37.6657L46.3308 30H46.3303C46.3069 29.1368 45.5998 28.4442 44.7309 28.4442C43.862 28.4442 43.1549 29.1368 43.1315 30H43.128L43.1312 30.0763C43.1317 30.1004 43.1327 30.1243 43.1342 30.148L43.4542 37.7994C43.5682 40.5267 41.388 42.8 38.6584 42.8H9.34145C6.6118 42.8 4.4316 40.5267 4.54565 37.7994L5.71656 9.79945C5.82406 7.22874 7.93941 5.2 10.5124 5.2Z" fill="#DCB793"></path></symbol><use href="#qiiBz2_FR0T0AYGTLf6V3"></use></svg>