<svg xmlns:xlink="http://www.w3.org/1999/xlink" xmlns="http://www.w3.org/2000/svg" data-v-600663f7="" class="svg-icon icon-commission" width="60"  height="60" ><defs><symbol id="icon-commission" xmlns="http://www.w3.org/2000/svg" viewBox="0 0 60 60" fill="none">  <path opacity="0.4" d="M40.475 5H19.525C10.425 5 5 10.425 5 19.525V40.45C5 49.575 10.425 55 19.525 55H40.45C49.55 55 54.975 49.575 54.975 40.475V19.525C55 10.425 49.575 5 40.475 5Z" fill="#B1835A"></path>  <path d="M35.6504 30L31.8754 28.675V20.2H32.7754C34.8004 20.2 36.4504 21.975 36.4504 24.15C36.4504 25.175 37.3004 26.025 38.3254 26.025C39.3504 26.025 40.2004 25.175 40.2004 24.15C40.2004 19.9 36.8754 16.45 32.7754 16.45H31.8754V15C31.8754 13.975 31.0254 13.125 30.0004 13.125C28.9754 13.125 28.1254 13.975 28.1254 15V16.45H26.5004C22.8004 16.45 19.7754 19.575 19.7754 23.4C19.7754 27.875 22.3754 29.3 24.3504 30L28.1254 31.325V39.775H27.2254C25.2004 39.775 23.5504 38 23.5504 35.825C23.5504 34.8 22.7004 33.95 21.6754 33.95C20.6504 33.95 19.8004 34.8 19.8004 35.825C19.8004 40.075 23.1254 43.525 27.2254 43.525H28.1254V45C28.1254 46.025 28.9754 46.875 30.0004 46.875C31.0254 46.875 31.8754 46.025 31.8754 45V43.55H33.5004C37.2004 43.55 40.2254 40.425 40.2254 36.6C40.2004 32.1 37.6004 30.675 35.6504 30ZM25.6004 26.475C24.3254 26.025 23.5504 25.6 23.5504 23.425C23.5504 21.65 24.8754 20.225 26.5254 20.225H28.1504V27.375L25.6004 26.475ZM33.5004 39.8H31.8754V32.65L34.4004 33.525C35.6754 33.975 36.4504 34.4 36.4504 36.575C36.4504 38.35 35.1254 39.8 33.5004 39.8Z" fill="#B1835A"></path></symbol></defs><use xlink:href="#icon-commission"></use></svg>