<svg xmlns:xlink="http://www.w3.org/1999/xlink" xmlns="http://www.w3.org/2000/svg" data-v-600663f7="" class="svg-icon icon-copy_Code" width="60"  height="60" ><defs><symbol id="icon-copy_Code" xmlns="http://www.w3.org/2000/svg" viewBox="0 0 60 60" fill="none">  <path opacity="0.4" d="M40.475 5H19.525C10.425 5 5 10.425 5 19.525V40.45C5 49.575 10.425 55 19.525 55H40.45C49.55 55 54.975 49.575 54.975 40.475V19.525C55 10.425 49.575 5 40.475 5Z" fill="#B1835A"></path>  <path d="M53.25 30.5751H44.55C42.1 30.5751 39.925 31.9251 38.825 34.1251L36.725 38.2751C36.225 39.2751 35.225 39.9001 34.125 39.9001H25.925C25.15 39.9001 24.05 39.7251 23.325 38.2751L21.225 34.1501C20.6935 33.0859 19.8767 32.1904 18.8657 31.5636C17.8548 30.9367 16.6895 30.6031 15.5 30.6001H6.75C5.775 30.6001 5 31.3751 5 32.3501V40.5001C5 49.5751 10.45 55.0001 19.55 55.0001H40.5C49.075 55.0001 54.35 50.3001 55 41.9501V32.3251C55 31.3751 54.225 30.5751 53.25 30.5751ZM33.875 19.4951H26.125C25.15 19.4951 24.375 18.7201 24.375 17.7451C24.375 16.7701 25.15 15.9951 26.125 15.9951H33.875C34.85 15.9951 35.625 16.7701 35.625 17.7451C35.625 18.7201 34.825 19.4951 33.875 19.4951ZM35.8225 26.4776H24.1725C23.1975 26.4776 22.4225 25.7026 22.4225 24.7276C22.4225 23.7526 23.1975 22.9776 24.1725 22.9776H35.7975C36.7725 22.9776 37.5475 23.7526 37.5475 24.7276C37.5475 25.7026 36.7725 26.4776 35.8225 26.4776Z" fill="#B1835A"></path></symbol></defs><use xlink:href="#icon-copy_Code"></use></svg>