<svg xmlns:xlink="http://www.w3.org/1999/xlink" xmlns="http://www.w3.org/2000/svg" data-v-9e03166f="" class="svg-icon icon-saveWallet" width="48"  height="48" ><defs><symbol id="icon-saveWallet" viewBox="0 0 48 48" fill="none" xmlns="http://www.w3.org/2000/svg"><path fill-rule="evenodd" clip-rule="evenodd" d="M29.7 15.4996V7.89961C29.7 5.71961 27.9 4.09961 25.9 4.09961C25.46 4.09961 25 4.17961 24.56 4.33961L8.68004 10.3396C6.46004 11.1796 5.00004 13.2996 5.00004 15.6796V23.0196C5.00004 20.5596 6.18004 18.3796 8.00004 17.0196V15.6796C8.00004 14.5396 8.68004 13.5396 9.74004 13.1396L25.6 7.15961C25.7 7.11961 25.8 7.09961 25.9 7.09961C26.22 7.09961 26.7 7.35961 26.7 7.89961V15.4996H29.7ZM43 30.9996V28.9996C43 28.4596 42.58 28.0196 42 27.9996H38.98C38.7194 27.9951 38.4606 28.0442 38.2197 28.144C37.9789 28.2438 37.7611 28.3921 37.58 28.5796C37.18 28.9796 36.94 29.5596 37 30.1796C37.08 31.2196 38.04 31.9996 39.1 31.9996H42.02C42.2818 31.9944 42.531 31.8867 42.7142 31.6997C42.8975 31.5128 43.0001 31.2614 43 30.9996ZM5.00004 31.7596C6.38004 30.6596 8.12004 29.9996 10 29.9996C14.42 29.9996 18 33.5796 18 37.9996C18 39.4996 17.58 40.9196 16.84 42.1196C16.42 42.8396 15.88 43.4796 15.26 43.9996C13.86 45.2596 12.02 45.9996 10 45.9996C8.62116 46.0025 7.26531 45.6462 6.06596 44.9659C4.86661 44.2855 3.8651 43.3046 3.16004 42.1196C2.42004 40.9196 2.00004 39.4996 2.00004 37.9996C1.99643 36.8005 2.26448 35.6161 2.78406 34.5354C3.30363 33.4547 4.06125 32.5057 5.00004 31.7596ZM7.62669 34.2867C7.24931 33.8621 6.59918 33.8238 6.17459 34.2012C5.75 34.5786 5.71173 35.2287 6.08911 35.6533L8.22438 38.0557L6.08892 40.4581C5.71152 40.8826 5.74976 41.5328 6.17434 41.9102C6.59892 42.2876 7.24905 42.2493 7.62645 41.8248L10.3693 38.739C10.7157 38.3493 10.7157 37.7621 10.3693 37.3724L7.62669 34.2867ZM11.741 34.2867C11.3636 33.8621 10.7135 33.8238 10.2889 34.2012C9.86428 34.5786 9.82601 35.2287 10.2034 35.6533L12.3387 38.0557L10.2032 40.4581C9.8258 40.8826 9.86405 41.5328 10.2886 41.9102C10.7132 42.2876 11.3633 42.2493 11.7407 41.8248L14.4836 38.739C14.83 38.3493 14.83 37.7621 14.4836 37.3724L11.741 34.2867Z" fill="#B1835A"></path><path d="M38.96 25.9H41C42.1 25.9 43 25 43 23.9V23.02C43 18.88 39.62 15.5 35.48 15.5H12.52C10.82 15.5 9.26 16.06 8 17.02C6.18 18.38 5 20.56 5 23.02V26.58C5 27.34 5.8 27.82 6.52 27.58C7.64 27.2 8.82 27 10 27C16.06 27 21 31.94 21 38C21 39.44 20.62 41.02 20.02 42.42C19.7 43.14 20.2 44 20.98 44H35.48C39.62 44 43 40.62 43 36.48V36.1C43 35 42.1 34.1 41 34.1H39.26C37.34 34.1 35.5 32.92 35 31.06C34.6 29.54 35.08 28.06 36.08 27.1C36.82 26.34 37.84 25.9 38.96 25.9V25.9ZM28 25.5H18C17.18 25.5 16.5 24.82 16.5 24C16.5 23.18 17.18 22.5 18 22.5H28C28.82 22.5 29.5 23.18 29.5 24C29.5 24.82 28.82 25.5 28 25.5Z" fill="#B1835A"></path></symbol></defs><use xlink:href="#icon-saveWallet"></use></svg>