<svg xmlns="http://www.w3.org/2000/svg" viewBox="0 0 48 48"><symbol xmlns="http://www.w3.org/2000/svg" id="wO4SNIX1Q2fgPfYNJmb_G" viewBox="0 0 48 48" fill="none"><circle opacity="0.3" cx="27" cy="28" r="18" fill="#E9DCD2"></circle><path fill-rule="evenodd" clip-rule="evenodd" d="M23.6599 5.27799L5.76039 17.3574V42.8644H15.8404V32.4244C15.8404 29.6409 18.0969 27.3844 20.8804 27.3844H27.2404C30.0239 27.3844 32.2804 29.6409 32.2804 32.4244V36.8044H28.9204V32.4244C28.9204 31.4965 28.1682 30.7444 27.2404 30.7444H20.8804C19.9526 30.7444 19.2004 31.4965 19.2004 32.4244V43.5844C19.2004 45.0424 18.0184 46.2244 16.5604 46.2244H5.04039C3.58236 46.2244 2.40039 45.0424 2.40039 43.5844V16.9747C2.40039 16.0973 2.83631 15.2772 3.56361 14.7863L22.4377 2.04925C23.1552 1.56501 24.0926 1.55594 24.8194 2.02622L44.5146 14.7702C45.2664 15.2567 45.7204 16.0911 45.7204 16.9866V43.5844C45.7204 45.0424 44.5384 46.2244 43.0804 46.2244H30.6004V42.8644H42.3604V17.3783L23.6599 5.27799Z" fill="#DCB793"></path><path d="M32.4004 44.5444C32.4004 45.4723 31.6482 46.2244 30.7204 46.2244C29.7926 46.2244 29.0404 45.4723 29.0404 44.5444C29.0404 43.6166 29.7926 42.8644 30.7204 42.8644C31.6482 42.8644 32.4004 43.6166 32.4004 44.5444Z" fill="#DCB793"></path><path d="M32.2804 36.7444C32.2804 37.6723 31.5282 38.4244 30.6004 38.4244C29.6726 38.4244 28.9204 37.6723 28.9204 36.7444C28.9204 35.8166 29.6726 35.0644 30.6004 35.0644C31.5282 35.0644 32.2804 35.8166 32.2804 36.7444Z" fill="#DCB793"></path></symbol><use href="#wO4SNIX1Q2fgPfYNJmb_G"></use></svg>