<svg xmlns:xlink="http://www.w3.org/1999/xlink" xmlns="http://www.w3.org/2000/svg" data-v-600663f7="" class="svg-icon icon-invite_reg" width="60"  height="60" ><defs><symbol id="icon-invite_reg" xmlns="http://www.w3.org/2000/svg" viewBox="0 0 60 60" fill="none">  <path opacity="0.4" d="M52.5 17.5V42.5C52.5 50 48.75 55 40 55H20C11.25 55 7.5 50 7.5 42.5V17.5C7.5 10 11.25 5 20 5H40C48.75 5 52.5 10 52.5 17.5Z" fill="#B1835A"></path>  <path d="M38.75 5V24.65C38.75 25.75 37.45 26.3 36.65 25.575L30.85 20.225C30.62 20.0084 30.3159 19.8878 30 19.8878C29.6841 19.8878 29.38 20.0084 29.15 20.225L23.35 25.575C23.1711 25.7409 22.9476 25.8508 22.7071 25.8912C22.4665 25.9317 22.2193 25.9008 21.9961 25.8025C21.7728 25.7041 21.5832 25.5426 21.4507 25.3378C21.3181 25.133 21.2483 24.8939 21.25 24.65V5H38.75ZM43.75 36.875H33.125C32.1 36.875 31.25 36.025 31.25 35C31.25 33.975 32.1 33.125 33.125 33.125H43.75C44.775 33.125 45.625 33.975 45.625 35C45.625 36.025 44.775 36.875 43.75 36.875ZM43.75 46.875H22.5C21.475 46.875 20.625 46.025 20.625 45C20.625 43.975 21.475 43.125 22.5 43.125H43.75C44.775 43.125 45.625 43.975 45.625 45C45.625 46.025 44.775 46.875 43.75 46.875Z" fill="#B1835A"></path></symbol></defs><use xlink:href="#icon-invite_reg"></use></svg>