<svg xmlns:xlink="http://www.w3.org/1999/xlink" xmlns="http://www.w3.org/2000/svg" data-v-33f88764="" class="svg-icon icon-clock_b forgetbg forgetbg" width="80"  height="80" ><defs><symbol id="icon-clock_b" xmlns="http://www.w3.org/2000/svg" viewBox="0 0 80 80" fill="none"><path d="M49.9046 27.0391C50.0517 27.7139 50.3656 28.3391 50.8158 28.8554H28.6882V25.7923C28.6882 20.1291 33.3609 15.6107 39.5384 15.6107C45.4703 15.6107 49.8701 19.9903 49.8701 25.8288V26.7195V26.8812L49.9046 27.0391ZM56.7053 28.9486C57.2005 28.4152 57.5444 27.755 57.7005 27.0391L57.7349 26.8812V26.7195V25.8559C57.7752 23.4025 57.3256 20.9657 56.4129 18.6958C55.4985 16.4217 54.1382 14.3621 52.4141 12.646L52.4042 12.6362L52.3941 12.6265C48.9558 9.32933 44.4187 7.49241 39.7005 7.50002L39.4816 7.50002L39.4809 7.50002C34.707 7.50203 30.106 9.30237 26.5465 12.55L26.5465 12.55L26.5429 12.5532C24.7253 14.2225 23.276 16.267 22.2885 18.5501C21.3016 20.8319 20.7978 23.3014 20.8092 25.7958V29.6025C18.5861 30.3692 16.6212 31.7782 15.1551 33.6654C13.4403 35.8728 12.507 38.6062 12.5 41.42V41.4237L12.5 59.939L12.5 59.9428C12.5085 63.2588 13.7938 66.4444 16.0873 68.8006C18.3821 71.1582 21.5008 72.4934 24.7634 72.5H24.7665L55.2406 72.5L55.2437 72.5C58.5059 72.4934 61.6239 71.1579 63.9177 68.7998C66.21 66.4432 67.4936 63.2573 67.5 59.9419V59.939L67.5 41.4237L67.5 41.4208C67.4936 38.1049 66.2104 34.9184 63.9184 32.5607C61.9702 30.5565 59.4269 29.2898 56.7053 28.9486Z" fill="#B1835A" stroke="#333333" stroke-width="3px"></path><path d="M40.0473 39H40.0125C37.8143 39.0425 35.7039 39.888 34.0647 41.3828C32.4254 42.8777 31.366 44.9228 31.0787 47.1467C30.7915 49.3706 31.2956 51.6259 32.4994 53.503C33.7032 55.38 35.5269 56.7543 37.6393 57.3763V61.0402C37.7072 61.3594 37.8362 61.6616 38.0189 61.9297C38.2016 62.1978 38.4345 62.4264 38.7041 62.6024C39.0953 62.8626 39.5524 63.0008 40.0195 63C40.1926 62.9987 40.3651 62.9796 40.5345 62.9432C40.9997 62.8434 41.4263 62.6076 41.7624 62.2647C42.0986 61.9217 42.3296 61.4864 42.4275 61.0118V57.355C44.5245 56.7199 46.3306 55.3423 47.5209 53.4698C48.7112 51.5973 49.2075 49.3529 48.9206 47.1404C48.6337 44.9279 47.5824 42.8924 45.9558 41.4002C44.3292 39.9079 42.2341 39.0568 40.0473 39ZM44.4179 48.3444C44.4188 48.9318 44.3063 49.5137 44.0868 50.0568C43.8673 50.5999 43.5452 51.0936 43.1387 51.5096C42.7322 51.9257 42.2493 52.256 41.7177 52.4816C41.1861 52.7073 40.6161 52.8239 40.0404 52.8249C38.8787 52.8249 37.7645 52.3545 36.9425 51.5171C36.1204 50.6798 35.6577 49.5438 35.6558 48.3586C35.6503 47.1722 36.1069 46.0321 36.9253 45.1892C37.7436 44.3463 38.8566 43.8696 40.0195 43.8639C41.1823 43.8583 42.2998 44.3241 43.1259 45.1591C43.9521 45.994 44.4194 47.1296 44.4249 48.316L44.4179 48.3444Z" fill="#FFFFFF"></path></symbol></defs><use xlink:href="#icon-clock_b"></use></svg>