<svg xmlns:xlink="http://www.w3.org/1999/xlink" xmlns="http://www.w3.org/2000/svg" data-v-47f4cc84="" class="svg-icon icon-email" width="48"  height="48" ><defs><symbol id="icon-email" viewBox="0 0 48 48" fill="none" xmlns="http://www.w3.org/2000/svg"><path d="M17 23.7768L2.36511 38C2.1234 37.4588 1.99911 36.875 2 36.285V12.6171C2.00034 12.0625 2.11154 11.5133 2.32741 11L17 23.7768Z" fill="#768096"></path><path d="M23.0524 26.6409L4 9.69183C4.69859 9.24036 5.5142 9.00002 6.34774 9H41.6508C42.4853 8.99887 43.3019 9.24019 44 9.69423L28.6605 23.3414L28.56 23.4268L24.9443 26.6414C24.6841 26.8724 24.3473 27.0001 23.9982 27C23.6492 26.9999 23.3124 26.8721 23.0524 26.6409Z" fill="#768096"></path><path d="M29.4114 25.2188L43.9245 39.3748C43.2439 39.7856 42.4588 40.0022 41.6583 40H6.26378C5.4641 40.0021 4.67982 39.7855 4 39.3748L18.5122 25.2188L23.0862 29.2161C23.3262 29.4266 23.6376 29.5431 23.9603 29.5431C24.2831 29.5431 24.5944 29.4266 24.8344 29.2161L29.4114 25.2188ZM46 12.5838V35.7657C46.0007 36.343 45.8796 36.9142 45.6442 37.4439L31.3624 23.5136L45.6805 11C45.8913 11.5027 45.9998 12.0407 46 12.5838Z" fill="#768096"></path></symbol></defs><use xlink:href="#icon-email"></use></svg>