<svg xmlns="http://www.w3.org/2000/svg" viewBox="3.5 3.5 35 35"><g id="icon" fill="none"><path id="Vector" d="M36.75 28.4375H26.25C25.5325 28.4375 24.9375 27.8425 24.9375 27.125C24.9375 26.4075 25.5325 25.8125 26.25 25.8125H36.75C37.4675 25.8125 38.0625 26.4075 38.0625 27.125C38.0625 27.8425 37.4675 28.4375 36.75 28.4375ZM36.75 35.4375H26.25C25.5325 35.4375 24.9375 34.8425 24.9375 34.125C24.9375 33.4075 25.5325 32.8125 26.25 32.8125H36.75C37.4675 32.8125 38.0625 33.4075 38.0625 34.125C38.0625 34.8425 37.4675 35.4375 36.75 35.4375ZM38.5 14.91V6.965C38.5 4.4975 37.38 3.5 34.5975 3.5H27.5275C24.745 3.5 23.625 4.4975 23.625 6.965V14.8925C23.625 17.3775 24.745 18.3575 27.5275 18.3575H34.5975C37.38 18.375 38.5 17.3775 38.5 14.91ZM18.375 14.91V6.965C18.375 4.4975 17.255 3.5 14.4725 3.5H7.4025C4.62 3.5 3.5 4.4975 3.5 6.965V14.8925C3.5 17.3775 4.62 18.3575 7.4025 18.3575H14.4725C17.255 18.375 18.375 17.3775 18.375 14.91ZM18.375 34.5975V27.5275C18.375 24.745 17.255 23.625 14.4725 23.625H7.4025C4.62 23.625 3.5 24.745 3.5 27.5275V34.5975C3.5 37.38 4.62 38.5 7.4025 38.5H14.4725C17.255 38.5 18.375 37.38 18.375 34.5975Z" fill="#fff"></path></g></svg>