<svg xmlns:xlink="http://www.w3.org/1999/xlink" xmlns="http://www.w3.org/2000/svg" data-v-9e03166f="" class="svg-icon icon-quickpay2" width="48"  height="48" ><defs><symbol id="icon-quickpay2" viewBox="0 0 48 48" fill="none" xmlns="http://www.w3.org/2000/svg"><path d="M42.5 44H5.5C4.68 44 4 43.32 4 42.5C4 41.68 4.68 41 5.5 41H42.5C43.32 41 44 41.68 44 42.5C44 43.32 43.32 44 42.5 44Z" fill="#B1835A"></path><path opacity="0.4" d="M41.1778 27.3975L26.7178 41.8575C26.0471 42.5318 25.25 43.0672 24.3722 43.4331C23.4944 43.7991 22.553 43.9884 21.602 43.9903C20.6509 43.9921 19.7088 43.8065 18.8296 43.4439C17.9503 43.0814 17.1512 42.5491 16.4778 41.8775L7.25781 32.6575L31.9778 7.9375L41.1978 17.1575C41.8694 17.8309 42.4017 18.63 42.7643 19.5093C43.1268 20.3885 43.3124 21.3306 43.3106 22.2816C43.3087 23.2327 43.1194 24.174 42.7534 25.0519C42.3875 25.9297 41.8521 26.7268 41.1778 27.3975Z" fill="#B1835A"></path><path d="M31.9775 7.94059L7.23746 32.6606L5.41746 30.8406C4.74583 30.1672 4.21354 29.3681 3.85101 28.4888C3.48849 27.6096 3.30284 26.6675 3.3047 25.7164C3.30656 24.7654 3.49588 23.824 3.86184 22.9462C4.22779 22.0684 4.76321 21.2713 5.43746 20.6006L19.8975 6.14058C20.5682 5.46633 21.3653 4.93092 22.2431 4.56496C23.1209 4.19901 24.0623 4.00968 25.0133 4.00783C25.9644 4.00597 26.9065 4.19161 27.7857 4.55414C28.6649 4.91666 29.4641 5.44896 30.1375 6.12058L31.9775 7.94059ZM25.7795 35.1986L23.0795 37.8986C22.5195 38.4586 21.6195 38.4586 21.0595 37.8986C20.9263 37.7662 20.8206 37.6089 20.7485 37.4355C20.6764 37.2622 20.6393 37.0763 20.6393 36.8886C20.6393 36.7008 20.6764 36.515 20.7485 36.3416C20.8206 36.1683 20.9263 36.0109 21.0595 35.8786L23.7595 33.1786C24.3195 32.6186 25.2195 32.6186 25.7795 33.1786C26.3395 33.7386 26.3395 34.6386 25.7795 35.1986ZM34.5395 26.4406L29.1595 31.8206C28.5995 32.3806 27.6995 32.3806 27.1395 31.8206C27.0063 31.6882 26.9006 31.5309 26.8285 31.3575C26.7564 31.1842 26.7193 30.9983 26.7193 30.8106C26.7193 30.6228 26.7564 30.437 26.8285 30.2636C26.9006 30.0903 27.0063 29.9329 27.1395 29.8006L32.5195 24.4206C33.0795 23.8606 33.9795 23.8606 34.5395 24.4206C35.0795 24.9806 35.0795 25.8806 34.5395 26.4406Z" fill="#B1835A"></path></symbol></defs><use xlink:href="#icon-quickpay2"></use></svg>