<svg xmlns:xlink="http://www.w3.org/1999/xlink" xmlns="http://www.w3.org/2000/svg" data-v-600663f7="" class="svg-icon icon-server" width="60"  height="60" ><defs><symbol id="icon-server" xmlns="http://www.w3.org/2000/svg" viewBox="0 0 60 60" fill="none">  <path opacity="0.4" d="M13.4999 50C9.89986 44.4 10.3332 36.6667 10.9999 33.5L21.9999 21L33.9999 29.5L49.4999 33.5C49.9999 36 50.3999 42.4 47.9999 48C44.9999 55 35.9999 59 30.4999 59C24.9999 59 17.9999 57 13.4999 50Z" fill="#B1835A"></path>  <path d="M54.7158 33.4087V31.6947C54.8437 23.8926 52.5542 17.3183 48.0392 12.6498C45.8491 10.3941 43.1899 8.64749 40.2498 7.53358C39.7766 3.37668 35.2488 0 29.7361 0C24.2234 0 19.67 3.32552 19.2223 7.54637C16.2861 8.66044 13.6311 10.4072 11.4457 12.6625C6.96908 17.3183 4.61563 23.8542 4.75633 31.6692V33.754C4.03645 34.4538 3.52496 35.3397 3.27881 36.313C3.03266 37.2863 3.06152 38.3088 3.36217 39.2667C3.60387 40.1445 4.05307 40.9513 4.6719 41.6191C5.29073 42.2869 6.06105 42.7961 6.91791 43.1038C7.79515 43.6676 8.81692 43.9653 9.85972 43.9608C10.8147 48.5559 13.354 52.6694 17.0339 55.5824C20.7138 58.4955 25.3002 60.0229 29.9919 59.8977C34.6792 60.0168 39.2596 58.4866 42.9342 55.5741C46.6087 52.6615 49.1442 48.5515 50.0985 43.9608H50.3031C51.5987 43.9477 52.8518 43.497 53.8589 42.6817C54.5138 42.3061 55.0874 41.8039 55.5463 41.2044C56.0053 40.605 56.3403 39.9202 56.5321 39.1899C56.8329 38.1467 56.8212 37.0381 56.4984 36.0014C56.1756 34.9647 55.5558 34.0455 54.7158 33.3575V33.4087ZM48.7555 38.5248C48.7579 39.7582 48.6638 40.9898 48.4741 42.2085C46.7906 44.9067 44.5039 47.1774 41.7939 48.842C39.084 50.5065 36.0248 51.5196 32.8569 51.8013C32.5162 51.4174 32.0929 51.1155 31.6189 50.9184C31.1448 50.7212 30.6324 50.6339 30.1198 50.663C28.4059 50.663 27.0245 51.5967 27.0245 52.7606C27.0245 53.9245 28.3931 54.8582 30.1198 54.8582C30.7471 54.9242 31.3792 54.7903 31.9259 54.4756C32.4726 54.1609 32.9059 53.6815 33.1639 53.1059C35.3153 52.864 37.4237 52.3304 39.4312 51.5199C42.2032 50.4095 44.7125 48.7323 46.7985 46.5956C47.1439 46.2503 47.4509 45.9049 47.7578 45.534C45.2893 53.1059 38.6766 57.9663 30.0814 57.9663H29.9919C18.9154 57.9663 11.2155 49.9851 11.2155 38.576V37.4888C11.2155 37.0028 11.2922 35.6981 11.3562 34.4703C15.948 32.7947 20.0921 26.3867 21.7676 23.4321C24.4363 27.0903 28.0667 29.9371 32.2558 31.6564C34.2362 32.3468 36.2675 32.8813 38.3313 33.2552C42.3475 34.1121 46.1462 34.9307 48.7171 38.2946L48.8194 38.3841L48.7555 38.5248Z" fill="#B1835A"></path></symbol></defs><use xlink:href="#icon-server"></use></svg>