<svg xmlns:xlink="http://www.w3.org/1999/xlink" xmlns="http://www.w3.org/2000/svg" data-v-600663f7="" class="svg-icon icon-promotionData" width="48"  height="48" ><defs><symbol id="icon-promotionData" xmlns="http://www.w3.org/2000/svg" viewBox="0 0 48 48" fill="none"><path opacity="0.4" d="M38.5999 15.84V26.14C38.5999 32.3 35.0799 34.94 29.7999 34.94H12.2199C11.3199 34.94 10.4599 34.86 9.65992 34.68C9.15992 34.6 8.67992 34.46 8.23992 34.3C5.23992 33.18 3.41992 30.58 3.41992 26.14V15.84C3.41992 9.68004 6.93992 7.04004 12.2199 7.04004H29.7999C34.2799 7.04004 37.4999 8.94004 38.3599 13.28C38.4999 14.08 38.5999 14.9 38.5999 15.84Z" fill="#B1835A"></path><path d="M44.5963 21.8403V32.1403C44.5963 38.3003 41.0763 40.9403 35.7963 40.9403H18.2162C16.7362 40.9403 15.3962 40.7403 14.2362 40.3003C11.8562 39.4203 10.2362 37.6003 9.65625 34.6803C10.4563 34.8603 11.3162 34.9403 12.2162 34.9403H29.7962C35.0763 34.9403 38.5963 32.3003 38.5963 26.1403V15.8403C38.5963 14.9003 38.5162 14.0603 38.3562 13.2803C42.1562 14.0803 44.5963 16.7603 44.5963 21.8403Z" fill="#B1835A"></path><path d="M20.9995 26.2797C22.3999 26.2797 23.7429 25.7234 24.733 24.7333C25.7232 23.7431 26.2795 22.4001 26.2795 20.9997C26.2795 19.5994 25.7232 18.2564 24.733 17.2662C23.7429 16.276 22.3999 15.7197 20.9995 15.7197C19.5992 15.7197 18.2562 16.276 17.266 17.2662C16.2758 18.2564 15.7195 19.5994 15.7195 20.9997C15.7195 22.4001 16.2758 23.7431 17.266 24.7333C18.2562 25.7234 19.5992 26.2797 20.9995 26.2797ZM9.56152 16.4997C8.74152 16.4997 8.06152 17.1797 8.06152 17.9997V23.9997C8.06152 24.8197 8.74152 25.4997 9.56152 25.4997C10.3815 25.4997 11.0615 24.8197 11.0615 23.9997V17.9997C11.0615 17.1797 10.4015 16.4997 9.56152 16.4997ZM32.4195 16.4997C31.5995 16.4997 30.9195 17.1797 30.9195 17.9997V23.9997C30.9195 24.8197 31.5995 25.4997 32.4195 25.4997C33.2395 25.4997 33.9195 24.8197 33.9195 23.9997V17.9997C33.9195 17.1797 33.2595 16.4997 32.4195 16.4997Z" fill="#B1835A"></path></symbol></defs><use xlink:href="#icon-promotionData"></use></svg>