<svg xmlns:xlink="http://www.w3.org/1999/xlink" xmlns="http://www.w3.org/2000/svg" data-v-600663f7="" class="svg-icon icon-subordinate" width="49"  height="48" ><defs><symbol id="icon-subordinate" xmlns="http://www.w3.org/2000/svg" viewBox="0 0 49 48" fill="none">  <path d="M7.04203 2H23.302C24.662 2 25.762 3.12 25.762 4.5V7.24C25.762 8.24 25.142 9.48 24.522 10.1L19.222 14.84C18.482 15.46 17.982 16.72 17.982 17.7V23.06C17.982 23.8 17.482 24.8 16.882 25.18L15.162 26.3C13.562 27.3 11.342 26.18 11.342 24.18V17.56C11.342 16.68 10.842 15.56 10.362 14.94L5.68203 9.94C5.06203 9.32 4.58203 8.2 4.58203 7.44V4.58C4.58203 3.12 5.68203 2 7.04203 2Z" fill="#B1835A"></path>  <path opacity="0.4" d="M34.582 4H29.782C29.222 4 28.782 4.44 28.782 5V7.24C28.782 9.22 27.722 11.16 26.682 12.22L21.242 17.08C21.182 17.22 21.082 17.42 21.022 17.58V23.08C21.022 24.9 19.942 26.88 18.462 27.78L16.822 28.84C15.902 29.42 14.882 29.7 13.862 29.7C12.942 29.7 12.022 29.46 11.182 29C9.88203 28.28 8.98203 27.1 8.58203 25.74V20.42C8.58363 20.2888 8.55776 20.1588 8.5061 20.0383C8.45443 19.9177 8.37811 19.8093 8.28203 19.72L6.28203 17.72C5.64203 17.1 4.58203 17.54 4.58203 18.42V34C4.58203 39.52 9.06203 44 14.582 44H34.582C40.102 44 44.582 39.52 44.582 34V14C44.582 8.48 40.102 4 34.582 4Z" fill="#B1835A"></path>  <path d="M36.582 27.5H26.582C25.762 27.5 25.082 26.82 25.082 26C25.082 25.18 25.762 24.5 26.582 24.5H36.582C37.402 24.5 38.082 25.18 38.082 26C38.082 26.82 37.402 27.5 36.582 27.5ZM36.582 35.5H22.582C21.762 35.5 21.082 34.82 21.082 34C21.082 33.18 21.762 32.5 22.582 32.5H36.582C37.402 32.5 38.082 33.18 38.082 34C38.082 34.82 37.402 35.5 36.582 35.5Z" fill="#B1835A"></path></symbol></defs><use xlink:href="#icon-subordinate"></use></svg>