<svg xmlns:xlink="http://www.w3.org/1999/xlink" xmlns="http://www.w3.org/2000/svg" data-v-600663f7="" class="svg-icon icon-rebateRatio" width="60"  height="60" ><defs><symbol id="icon-rebateRatio" xmlns="http://www.w3.org/2000/svg" viewBox="0 0 60 60" fill="none">  <path opacity="0.36" d="M18.75 17.9814C23.9068 20.0007 30.0104 20.0007 30.0104 20.0007C30.0104 20.0007 36.1 20.0007 41.25 17.9814C46.8773 24.5487 50.8205 33.2062 53.4121 40.4976C56.0359 47.8791 50.2508 55.0007 42.4168 55.0007H17.5246C9.71023 55.0007 3.93235 47.9117 6.54287 40.5462C9.12242 33.2679 13.0685 24.6074 18.75 17.9814Z" fill="#B1835A" stroke="#B1835A" stroke-width="2px" stroke-linejoin="round"></path>  <path d="M30 25V47" stroke="#B1835A" stroke-width="2px" stroke-linecap="round" stroke-linejoin="round" fill="none"></path>  <path d="M35.5 27C35.5 27 30.4853 27 28 27C25.5147 27 23.5 29.0147 23.5 31.5C23.5 33.9853 25.5147 36 28 36" stroke="#B1835A" stroke-width="2px" stroke-linecap="round" stroke-linejoin="round" fill="none"></path>  <path d="M24.5 45C24.5 45 29.5147 45 32 45C34.4853 45 36.5 42.9853 36.5 40.5C36.5 38.0147 34.4853 36 32 36H28" stroke="#B1835A" stroke-width="2px" stroke-linecap="round" stroke-linejoin="round" fill="none"></path>  <path fill-rule="evenodd" clip-rule="evenodd" d="M30 20C38.9746 20 46.25 16.6421 46.25 12.5C46.25 8.35786 38.9746 5 30 5C21.0254 5 13.75 8.35786 13.75 12.5C13.75 16.6421 21.0254 20 30 20Z" fill="#B1835A" stroke="#B1835A" stroke-width="2px" stroke-linecap="round" stroke-linejoin="round"></path></symbol></defs><use xlink:href="#icon-rebateRatio"></use></svg>