<svg xmlns:xlink="http://www.w3.org/1999/xlink" xmlns="http://www.w3.org/2000/svg" data-v-7cba6004="" class="svg-icon icon-shuoming" width="48"  height="48" ><defs><symbol id="icon-shuoming" viewBox="0 0 48 48" fill="none" xmlns="http://www.w3.org/2000/svg"><path d="M7 37C7 29.2967 7 11 7 11C7 7.68629 9.68629 5 13 5H35V31C35 31 18.2326 31 13 31C9.7 31 7 33.6842 7 37Z" fill="#B1835A" stroke="#B1835A" stroke-width="2px" stroke-linejoin="round"></path><path d="M35 31C35 31 14.1537 31 13 31C9.68629 31 7 33.6863 7 37C7 40.3137 9.68629 43 13 43C15.2091 43 25.8758 43 41 43V7" stroke="#B1835A" stroke-width="2px" stroke-linecap="round" stroke-linejoin="round" fill="none"></path><path d="M14 37H34" stroke="#B1835A" stroke-width="2px" stroke-linecap="round" stroke-linejoin="round" fill="none"></path></symbol></defs><use xlink:href="#icon-shuoming"></use></svg>