<svg xmlns:xlink="http://www.w3.org/1999/xlink" xmlns="http://www.w3.org/2000/svg" data-v-600663f7="" class="svg-icon icon-team_port" width="60"  height="60" ><defs><symbol id="icon-team_port" xmlns="http://www.w3.org/2000/svg" viewBox="0 0 60 60" fill="none">  <path opacity="0.4" d="M54.9744 15.0504C55.0244 15.6504 54.9744 16.2754 54.8244 16.9004L46.3994 50.7254C46.1074 51.9488 45.4098 53.0373 44.4201 53.8136C43.4305 54.5899 42.2071 55.0082 40.9494 55.0004H8.09939C4.32439 55.0004 1.64939 51.3004 2.74939 47.6754L13.2744 13.8504C13.9994 11.5004 16.1744 9.90039 18.6244 9.90039H49.3744C51.7744 9.90039 53.7244 11.3254 54.5494 13.3254C54.7929 13.8704 54.9368 14.4546 54.9744 15.0504Z" fill="#B1835A"></path>  <path d="M57.475 49.0503C57.5337 49.8108 57.4342 50.5752 57.183 51.2954C56.9317 52.0156 56.5341 52.6759 56.0151 53.2348C55.496 53.7938 54.8669 54.2392 54.1673 54.543C53.4677 54.8469 52.7127 55.0026 51.95 55.0003H40.95C43.55 55.0003 45.8 53.2503 46.4 50.7253L54.825 16.9003C54.975 16.2753 55.025 15.6503 54.975 15.0503L55 15.0003L57.475 49.0503ZM24.2 17.8278C24.05 17.8278 23.9 17.8028 23.75 17.7778C23.51 17.7193 23.284 17.6139 23.0849 17.4677C22.8857 17.3216 22.7174 17.1375 22.5897 16.9261C22.4619 16.7147 22.3772 16.4801 22.3403 16.2359C22.3035 15.9916 22.3153 15.7425 22.375 15.5028L24.975 4.70282C25.225 3.70282 26.225 3.10282 27.25 3.32782C28.25 3.57782 28.875 4.57782 28.625 5.60282L26.025 16.4028C25.825 17.2528 25.05 17.8278 24.2 17.8278ZM40.95 17.8553C40.825 17.8553 40.675 17.8553 40.55 17.8053C40.0672 17.6944 39.6463 17.4006 39.3758 16.9855C39.1054 16.5705 39.0065 16.0668 39.1 15.5803L41.45 4.73032C41.675 3.70532 42.675 3.08032 43.675 3.28032C44.675 3.50532 45.325 4.50532 45.125 5.50532L42.775 16.3553C42.6 17.2553 41.825 17.8553 40.95 17.8553ZM39.25 31.8753H19.25C18.225 31.8753 17.375 31.0253 17.375 30.0003C17.375 28.9753 18.225 28.1253 19.25 28.1253H39.25C40.275 28.1253 41.125 28.9753 41.125 30.0003C41.125 31.0253 40.275 31.8753 39.25 31.8753ZM36.75 41.8753H16.75C15.725 41.8753 14.875 41.0253 14.875 40.0003C14.875 38.9753 15.725 38.1253 16.75 38.1253H36.75C37.775 38.1253 38.625 38.9753 38.625 40.0003C38.625 41.0253 37.775 41.8753 36.75 41.8753Z" fill="#B1835A"></path>  <path fill-rule="evenodd" clip-rule="evenodd" d="M17.1855 30.0003C17.1855 28.8168 18.1449 27.8574 19.3284 27.8574H39.0427C40.2261 27.8574 41.1855 28.8168 41.1855 30.0003C41.1855 31.1837 40.2261 32.1431 39.0427 32.1431H19.3284C18.1449 32.1431 17.1855 31.1837 17.1855 30.0003Z" fill="#B1835A"></path>  <path fill-rule="evenodd" clip-rule="evenodd" d="M14.5713 39.8567C14.5713 38.6733 15.5306 37.7139 16.7141 37.7139H36.4284C37.6119 37.7139 38.5713 38.6733 38.5713 39.8567C38.5713 41.0402 37.6119 41.9996 36.4284 41.9996H16.7141C15.5306 41.9996 14.5713 41.0402 14.5713 39.8567Z" fill="#B1835A"></path></symbol></defs><use xlink:href="#icon-team_port"></use></svg>