<svg xmlns:xlink="http://www.w3.org/1999/xlink" xmlns="http://www.w3.org/2000/svg" data-v-33f88764="" class="svg-icon icon-customer_b forgetbg forgetbg" width="80"  height="80" ><defs><symbol id="icon-customer_b" xmlns="http://www.w3.org/2000/svg" viewBox="0 0 80 80" fill="none"><path d="M67 69V32.995C67 18.6387 55.1352 7 40.5 7C25.8648 7 14 18.6387 14 32.995V69H67Z" fill="#B1835A"></path><path d="M66.7456 71H14.2527C13.5609 71 13 70.4314 13 69.7301V32.8776C13 17.5058 25.3364 5 40.5 5C55.6636 5 68 17.5058 68 32.8776V69.7301C67.9983 70.4314 67.4374 71 66.7456 71ZM15.5055 68.4593H65.4921V32.8776C65.4921 18.9067 54.28 7.5407 40.4983 7.5407C26.7167 7.5407 15.5055 18.9067 15.5055 32.8776V68.4593Z" fill="#333333"></path><path d="M49.7097 19C49.6927 19.0617 44.433 38.0444 19.0017 38.0452C19.0017 38.0669 19 38.0886 19 38.1102V51.854C19 63.5328 28.6257 73 40.5 73C52.3743 73 62 63.5328 62 51.854V38.1102C62 38.0886 61.9983 38.0669 61.9983 38.0452C48.6252 38.0436 49.7063 19.0675 49.7097 19Z" fill="#FFFFFF"></path><path d="M48.1738 22.339C48.7436 22.8348 49.2835 23.3623 49.7969 23.9139C49.4666 21.1199 49.5873 19.0225 49.5881 19C49.5839 19.0167 49.2057 20.3658 48.1738 22.339ZM62 38.1099C62 38.0883 61.9983 38.0666 61.9983 38.045C59.1764 38.045 56.9937 37.2142 55.3029 35.9025C55.3808 36.6283 55.4244 37.3641 55.4244 38.1108V51.8543C55.4244 62.4438 47.4311 71.2151 37 72.7583H37.0009C37.3157 72.805 37.634 72.8433 37.9532 72.8758C38.0567 72.8867 38.1611 72.895 38.2646 72.905C38.5016 72.9267 38.7404 72.9442 38.9799 72.9583C39.0818 72.9642 39.1836 72.9708 39.2854 72.975C39.6174 72.99 39.9511 73 40.2874 73C42.9107 73 45.4246 72.5467 47.7528 71.7167C52.4083 70.0568 56.3177 66.8878 58.8564 62.8188C59.2192 62.2372 59.5537 61.638 59.8583 61.0214C61.2308 58.2482 61.9991 55.1383 61.9991 51.8535V38.1099H62Z" fill="none"></path><path d="M71.4825 54H61.7478V38H71.4817C71.7681 38 72 38.2408 72 38.5381V53.461C72.0008 53.7592 71.7689 54 71.4825 54ZM9.5183 54H19.2522V38H9.5183C9.23194 38 9 38.2408 9 38.5381V53.461C9 53.7592 9.23194 54 9.5183 54Z" fill="#B1835A"></path><path d="M67.5549 55H61.5798C60.8903 55 60.3313 54.4343 60.3313 53.7366V38.2651C60.3313 37.5674 60.8903 37.0017 61.5798 37.0017H67.5549C70.557 37.0017 73 39.473 73 42.5116V49.4917C72.9992 52.5287 70.557 55 67.5549 55ZM62.8283 52.4724H67.5549C69.1797 52.4724 70.5021 51.1342 70.5021 49.4901V42.5099C70.5021 40.8658 69.1797 39.5276 67.5549 39.5276H62.8283V52.4724ZM19.4202 55H13.4451C10.443 55 8 52.5287 8 49.4901V42.5099C8 39.4721 10.4422 37 13.4451 37H19.4202C20.1097 37 20.6687 37.5657 20.6687 38.2634V53.7349C20.6696 54.4343 20.1105 55 19.4202 55ZM13.4451 39.5284C11.8203 39.5284 10.4979 40.8666 10.4979 42.5108V49.4909C10.4979 51.1351 11.8203 52.4732 13.4451 52.4732H18.1717V39.5284H13.4451Z" fill="#333333"></path><path d="M40.5 75C28.0936 75 18 64.8638 18 52.4049V38.5405C18 38.5127 18.0008 38.485 18.0017 38.4573C18.005 37.7612 18.5675 37.2106 19.2598 37.2106C29.2764 37.2106 37.2144 34.1465 42.8547 28.105C47.0778 23.5808 48.3719 18.9767 48.3845 18.9304C48.5553 18.3067 49.1672 17.9124 49.8025 18.0167C50.4379 18.1217 50.8924 18.6892 50.8556 19.3348C50.8497 19.4348 50.3475 29.4802 55.0376 34.4618C56.7788 36.3112 58.9711 37.2098 61.7402 37.2106C62.4291 37.2106 62.99 37.7671 62.9983 38.4581C62.9992 38.4892 63 38.5153 63 38.5405V52.4049C63.0008 64.8638 52.9073 75 40.5 75ZM20.5171 39.7224V52.4049C20.5171 63.47 29.4815 72.4722 40.5 72.4722C51.5185 72.4722 60.4829 63.47 60.4829 52.4049V39.6837C57.5849 39.4248 55.1406 38.2538 53.2028 36.1935C50.1951 32.9949 49.0198 28.2698 48.5745 24.6088C47.6638 26.1749 46.424 27.9629 44.7658 29.7526C40.6808 34.1634 33.1881 39.3954 20.5171 39.7224Z" fill="#333333"></path><path d="M66.7365 64H40.2635C39.5658 64 39 63.441 39 62.7517C39 62.0623 39.5658 61.5033 40.2635 61.5033H65.4729V54.2483C65.4729 53.559 66.0387 53 66.7365 53C67.4342 53 68 53.559 68 54.2483V62.7525C68 63.441 67.4342 64 66.7365 64Z" fill="#333333"></path><path d="M42.7986 66H38.2014C36.4333 66 35 64.4331 35 62.5C35 60.5669 36.4333 59 38.2014 59H42.7986C44.5667 59 46 60.5669 46 62.5C46 64.4331 44.5667 66 42.7986 66Z" fill="#B1835A"></path><path d="M42.393 67H37.6079C35.0677 67 33 64.9811 33 62.5C33 60.0189 35.0669 58 37.6079 58H42.393C44.9331 58 47 60.0189 47 62.5C47.0008 64.9811 44.934 67 42.393 67ZM37.6087 60.4902C36.4739 60.4902 35.5512 61.3916 35.5512 62.5C35.5512 63.6084 36.4739 64.5098 37.6087 64.5098H42.3938C43.5286 64.5098 44.4514 63.6084 44.4514 62.5C44.4514 61.3916 43.5286 60.4902 42.3938 60.4902H37.6087Z" fill="#333333"></path></symbol></defs><use xlink:href="#icon-customer_b"></use></svg>